  <svg xmlns="http://www.w3.org/2000/svg" width="1149" class="menu-button" height="293" viewBox="0 0 1149 293" version="1.1">	<path d="M 146.500 22.552 C 116.542 26.530, 92.275 38.528, 71.268 59.746 C 55.139 76.037, 44.916 93.435, 38.507 115.500 C 34.749 128.435, 33.672 139.183, 34.346 157 C 35.104 177.020, 37.784 188.194, 46.071 205.889 C 58.208 231.801, 79.280 253.126, 105.500 266.030 C 162.609 294.136, 229.609 277.597, 267.389 226.069 C 293.382 190.618, 299.087 143.749, 282.440 102.412 C 275.564 85.335, 267.582 73.474, 253.514 59.424 C 230.903 36.842, 204.765 24.762, 172.696 22.074 C 158.023 20.843, 159.584 20.815, 146.500 22.552 M 146 38.937 C 130.286 40.862, 114.048 47.240, 98.185 57.720 L 89.869 63.214 96.753 70.357 C 105.235 79.159, 110.907 86.820, 116.180 96.596 C 120.880 105.309, 122.364 109.817, 125.028 123.462 C 128.358 140.520, 134.861 150.345, 146.670 156.159 C 158.492 161.978, 170.112 160.387, 175.145 152.259 C 176.928 149.379, 177.074 148.022, 176.450 140.056 C 175.818 131.970, 175.966 130.673, 177.962 126.797 C 181.097 120.709, 185.378 116.549, 194 111.211 C 211.478 100.392, 217.829 95.098, 221.223 88.519 C 224.990 81.215, 228 70.797, 228 65.059 C 228 59.491, 227.980 59.455, 223.250 56.366 C 217.771 52.788, 205.662 46.607, 202 45.520 C 200.625 45.112, 198.150 44.187, 196.500 43.465 C 187.485 39.519, 160.789 37.126, 146 38.937 M 356 150.427 L 356 233 367.484 233 L 378.969 233 379.234 204.750 L 379.500 176.500 400.500 175.928 C 415.956 175.506, 423.216 174.890, 428 173.592 C 452.931 166.831, 468.270 147.104, 468.190 121.904 C 468.110 96.668, 453.063 77.600, 427.500 70.339 C 422.555 68.935, 415.739 68.566, 388.750 68.245 L 356 67.855 356 150.427 M 494 150.500 L 494 233 506 233 L 518 233 518 197 L 518 161 557.500 161 L 597 161 597 197 L 597 233 608.500 233 L 620 233 620 150.500 L 620 68 608.500 68 L 597 68 597 103.500 L 597 139 557.500 139 L 518 139 518 103.500 L 518 68 506 68 L 494 68 494 150.500 M 653.129 81.250 C 655.263 87.987, 667.036 124.775, 679.290 163 L 701.571 232.500 712.785 232.783 C 718.953 232.938, 724 232.834, 724 232.551 C 724 231.212, 759.269 118.405, 759.894 117.746 C 760.287 117.331, 768.663 143.107, 778.508 175.027 L 796.408 233.062 807.436 232.781 L 818.464 232.500 844.716 151 C 859.154 106.175, 870.975 69.388, 870.984 69.250 C 870.993 69.112, 865.473 69, 858.718 69 L 846.436 69 827.040 133.022 C 816.372 168.234, 807.333 196.697, 806.952 196.272 C 806.424 195.684, 779.635 108.441, 769.436 74.097 L 767.923 69 760.008 69 L 752.094 69 751.175 72.250 C 747.087 86.699, 713.626 195.663, 713.100 196.238 C 712.729 196.643, 703.707 168.181, 693.051 132.988 L 673.677 69 661.462 69 L 649.247 69 653.129 81.250 M 894 151 L 894 233 940 233 L 986 233 986 223 L 986 213 951.484 213 L 916.968 213 917.234 185.750 L 917.500 158.500 948.250 158.236 L 979 157.971 979 147.986 L 979 138 947.982 138 L 916.964 138 917.232 113.750 L 917.500 89.500 950.750 89.237 L 984 88.973 984 78.987 L 984 69 939 69 L 894 69 894 151 M 1016 150.900 L 1016 233 1050.750 232.983 C 1089.090 232.963, 1094.157 232.414, 1105.386 227.054 C 1123.330 218.491, 1132.473 200.802, 1129.890 179.647 C 1128.272 166.401, 1121.278 156.398, 1109.652 150.706 C 1106.543 149.184, 1104 147.799, 1104 147.630 C 1104 147.460, 1106.593 145.308, 1109.761 142.847 C 1127.129 129.360, 1128.482 99.518, 1112.443 83.706 C 1106.692 78.035, 1100.075 74.481, 1090.325 71.825 C 1083.272 69.904, 1079.220 69.650, 1049.250 69.247 L 1016 68.800 1016 150.900 M 243.660 81.250 C 240.642 90.005, 234.880 100.854, 230.765 105.530 C 226.710 110.137, 215.454 118.433, 206 123.782 C 202.975 125.494, 198.935 128.210, 197.022 129.819 L 193.543 132.745 193.522 144.122 C 193.497 157.050, 192.252 160.554, 185.335 167.165 C 177.396 174.751, 167.385 177.638, 154.654 176.014 C 141.298 174.309, 132.848 169.923, 123.530 159.859 C 114.715 150.338, 109.760 138.363, 106.536 118.793 C 105.037 109.691, 96.269 95.162, 85.690 84.250 C 81.825 80.263, 78.089 77, 77.389 77 C 75.562 77, 67.998 87.168, 62.699 96.749 C 53.462 113.448, 49.082 130.539, 49.052 150 C 49.003 182.364, 60.361 209.526, 83.154 231.552 C 101.304 249.091, 122.084 259.218, 147.722 263.017 C 159.019 264.691, 159.016 264.693, 157.251 256.340 C 155.070 246.019, 156.052 227.596, 159.273 218.422 C 162.385 209.559, 165.459 204.657, 171.643 198.698 C 182.306 188.425, 196.529 183.441, 219.471 181.938 C 227.704 181.399, 236.254 180.477, 238.471 179.888 C 247.348 177.529, 251.794 172.639, 255.498 161.159 C 258.348 152.327, 261.609 149.539, 272.750 146.413 C 274.805 145.837, 274.228 135.344, 271.571 124.977 C 268.319 112.294, 266.732 108.068, 261.578 98.380 C 257.443 90.607, 247.311 76, 246.054 76 C 245.733 76, 244.655 78.362, 243.660 81.250 M 379.454 90.259 C 379.188 90.952, 379.090 105.689, 379.235 123.009 L 379.500 154.500 399 154.419 C 416.536 154.345, 419.062 154.118, 424.079 152.161 C 431.372 149.315, 437.443 144.017, 440.717 137.638 C 444.461 130.345, 445.078 117.851, 442.088 109.921 C 437.889 98.785, 429.235 92.217, 415.914 90.056 C 406.440 88.519, 380.066 88.666, 379.454 90.259 M 1038.498 90.143 C 1038.204 90.910, 1038.084 102.554, 1038.232 116.019 L 1038.500 140.500 1050.500 140.791 C 1066.397 141.176, 1080.480 139.710, 1086.738 137.017 C 1096.244 132.928, 1101.253 125.146, 1101.231 114.500 C 1101.208 103.060, 1096.380 96.214, 1085.332 91.959 C 1080.182 89.975, 1077.135 89.656, 1059.267 89.231 C 1042.561 88.833, 1038.940 88.992, 1038.498 90.143 M 1038.667 159.667 C 1038.300 160.033, 1038 172.219, 1038 186.746 L 1038 213.159 1061.750 212.764 C 1088.661 212.316, 1091.664 211.689, 1099.369 204.907 C 1104.744 200.176, 1107.479 193.761, 1107.431 186 C 1107.345 171.981, 1099.015 162.953, 1083.526 160.089 C 1077.182 158.917, 1039.769 158.564, 1038.667 159.667 M 269.456 178.743 C 262.145 192.436, 250.948 197.638, 225.692 199.075 C 216.998 199.570, 207.134 200.688, 203.772 201.559 C 189.627 205.224, 179.956 212.989, 175.721 224.080 C 172.906 231.450, 172.888 247.803, 175.685 256.500 C 177.591 262.426, 177.657 262.496, 181.057 262.168 C 193.648 260.954, 215.377 251.695, 228.652 241.888 C 236.897 235.797, 249.850 222.318, 255.383 214.071 C 261.274 205.290, 267.377 192.222, 269.990 182.793 C 271.080 178.859, 271.846 175.513, 271.692 175.359 C 271.538 175.205, 270.532 176.728, 269.456 178.743" stroke="none" 
	fill="currentColor" 
	 fill-rule="evenodd"/>
</svg>
