<?xml version="1.0" standalone="no"?>
<!DOCTYPE svg PUBLIC "-//W3C//DTD SVG 1.1//EN" "http://www.w3.org/Graphics/SVG/1.1/DTD/svg11.dtd" >
<svg xmlns="http://www.w3.org/2000/svg" xmlns:xlink="http://www.w3.org/1999/xlink" version="1.1">
<metadata>
Created by FontForge 20190801 at Tue Sep 19 10:25:55 2023
 By root
(c) 2023 Adobe (http://www.adobe.com/), with Reserved Font Name `Source'
</metadata>
<defs>
<font id="SourceSans3-MediumItalic" horiz-adv-x="0" >
  <font-face 
    font-family="Source Sans 3 Medium"
    font-weight="500"
    font-style="italic"
    font-stretch="normal"
    units-per-em="1000"
    panose-1="2 11 3 3 3 4 3 9 2 4"
    ascent="800"
    descent="-200"
    x-height="489"
    cap-height="655"
    bbox="-645 -299 2077 964"
    underline-thickness="50"
    underline-position="-75"
    slope="-11"
    unicode-range="U+0021-1F916"
  />
<missing-glyph horiz-adv-x="637" 
d="M34 0l130 660h469l-130 -660h-469zM344 390h4l66 94l78 112h-209l34 -112zM167 64h227l-38 123l-28 100h-4l-68 -100zM128 116l160 224l-71 225zM455 116l92 449l-161 -225z" />
    <glyph glyph-name="f_f" unicode="ff" horiz-adv-x="569" 
d="M41 0l110 547q11 50 33 86.5t56 57t80 20.5q28 0 52 -6.5t43 -18.5l-31 -63q-10 6 -24.5 10t-32.5 4q-33 0 -54 -22t-29 -65l-111 -550h-92zM317 0l112 557q11 50 32 86.5t54 57t78 20.5q27 0 50 -6.5t42 -18.5l-31 -63q-9 6 -23 10t-31 4q-31 0 -50.5 -22t-27.5 -65
l-113 -560h-92zM56 415l15 69l71 5h461l-15 -74h-532z" />
    <glyph glyph-name="f_t" unicode="ft" horiz-adv-x="584" 
d="M41 0l112 557q11 50 32 86.5t54 57t78 20.5q27 0 50 -6.5t42 -18.5l-31 -63q-9 6 -23 10t-31 4q-31 0 -50.5 -22t-27.5 -65l-113 -560h-92zM438 -12q-66 0 -94 33t-28 81q0 16 1.5 29t4.5 27l53 257h-319l15 69l71 5h252l42 154h77l-30 -154h120l-14 -74h-123l-53 -261
q-1 -9 -2 -17t-1 -18q0 -28 13.5 -42.5t43.5 -14.5q15 0 27.5 4t23.5 9l18 -64q-17 -8 -42.5 -15.5t-55.5 -7.5z" />
    <glyph glyph-name="f_f_t" unicode="fft" horiz-adv-x="860" 
d="M41 0l110 547q11 50 33 86.5t56 57t80 20.5q28 0 52 -6.5t43 -18.5l-31 -63q-10 6 -24.5 10t-32.5 4q-33 0 -54 -22t-29 -65l-111 -550h-92zM317 0l112 557q11 50 32 86.5t54 57t78 20.5q27 0 50 -6.5t42 -18.5l-31 -63q-9 6 -23 10t-31 4q-31 0 -50.5 -22t-27.5 -65
l-113 -560h-92zM714 -12q-66 0 -94 33t-28 81q0 16 1.5 29t4.5 27l53 257h-595l15 69l71 5h528l42 154h77l-30 -154h120l-14 -74h-123l-53 -261q-1 -9 -2 -17t-1 -18q0 -28 13.5 -42.5t43.5 -14.5q15 0 27.5 4t23.5 9l18 -64q-17 -8 -42.5 -15.5t-55.5 -7.5z" />
    <glyph glyph-name=".notdef" horiz-adv-x="637" 
d="M34 0l130 660h469l-130 -660h-469zM344 390h4l66 94l78 112h-209l34 -112zM167 64h227l-38 123l-28 100h-4l-68 -100zM128 116l160 224l-71 225zM455 116l92 449l-161 -225z" />
    <glyph glyph-name="space" unicode="&#xa0;" horiz-adv-x="200" 
 />
    <glyph glyph-name="space" unicode=" " horiz-adv-x="200" 
 />
    <glyph glyph-name="A" unicode="A" horiz-adv-x="520" 
d="M-53 0l350 655h110l72 -655h-96l-30 371q-4 51 -8 102.5t-7 105.5h-4q-25 -55 -49 -105.5t-51 -102.5l-187 -371h-100zM107 194l18 72h290l-16 -72h-292z" />
    <glyph glyph-name="B" unicode="B" horiz-adv-x="575" 
d="M33 0l131 655h181q96 0 151 -36.5t55 -109.5q0 -42 -20.5 -76t-54 -56t-71.5 -32v-4q34 -8 61 -25t42 -43t15 -62q0 -74 -36 -120.5t-97.5 -68.5t-139.5 -22h-217zM201 377h87q87 0 128.5 33t41.5 85q0 42 -32 64.5t-101 22.5h-82zM140 73h107q58 0 100 14t65 43.5
t23 75.5q0 51 -35.5 78t-103.5 27h-107z" />
    <glyph glyph-name="C" unicode="C" horiz-adv-x="555" 
d="M292 -12q-74 0 -127 33t-80.5 93.5t-27.5 140.5q0 64 16 124t45.5 112.5t71.5 92t94 61.5t112 22q56 0 99 -26t65 -69l-54 -49q-19 32 -48 48t-68 16q-43 0 -79.5 -19t-65.5 -51t-50 -74t-32 -88.5t-11 -91.5q0 -58 16.5 -101.5t51 -68.5t88.5 -25q39 0 73.5 15t62.5 40
l39 -57q-37 -34 -82.5 -56t-108.5 -22z" />
    <glyph glyph-name="D" unicode="D" horiz-adv-x="601" 
d="M34 0l130 655h131q88 0 151 -30t96 -88t33 -142q0 -89 -25.5 -161.5t-72.5 -124.5t-112.5 -80.5t-145.5 -28.5h-185zM141 75h78q57 0 105 22.5t83 64t54 99.5t19 128q0 62 -22.5 104.5t-65 64.5t-100.5 22h-51z" />
    <glyph glyph-name="E" unicode="E" horiz-adv-x="508" 
d="M33 0l131 655h368l-15 -78h-276l-39 -195h234l-16 -78h-232l-47 -226h285l-16 -78h-377z" />
    <glyph glyph-name="F" unicode="F" horiz-adv-x="481" 
d="M33 0l131 655h368l-15 -78h-276l-42 -210h234l-16 -79h-232l-59 -288h-93z" />
    <glyph glyph-name="G" unicode="G" horiz-adv-x="594" 
d="M304 -12q-80 0 -135 33t-83.5 92.5t-28.5 141.5q0 80 24.5 154t70.5 132t110 92t142 34q59 0 103 -25.5t67 -68.5l-54 -54q-20 33 -50.5 50.5t-70.5 17.5q-45 0 -83 -18.5t-68.5 -51t-51.5 -74t-32.5 -88t-11.5 -92.5q0 -57 16.5 -101t53 -69.5t96.5 -25.5q32 0 58 10.5
t43 25.5l35 167h-128l15 76h211l-58 -291q-35 -29 -84 -48t-106 -19z" />
    <glyph glyph-name="H" unicode="H" horiz-adv-x="630" 
d="M34 0l130 655h93l-55 -271h277l55 271h93l-131 -655h-93l61 303h-277l-60 -303h-93z" />
    <glyph glyph-name="I" unicode="I" horiz-adv-x="261" 
d="M34 0l130 655h93l-130 -655h-93z" />
    <glyph glyph-name="J" unicode="J" horiz-adv-x="465" 
d="M164 -12q-59 0 -102 27t-64 78l56 45q16 -33 42.5 -51.5t66.5 -18.5q48 0 77.5 35.5t42.5 100.5l90 451h94l-94 -466q-10 -57 -36.5 -102.5t-69.5 -72t-103 -26.5z" />
    <glyph glyph-name="K" unicode="K" horiz-adv-x="566" 
d="M33 0l131 655h93l-61 -310h3l307 310h104l-244 -255l149 -400h-98l-120 341l-127 -128l-44 -213h-93z" />
    <glyph glyph-name="L" unicode="L" horiz-adv-x="472" 
d="M34 0l130 655h93l-115 -576h269l-16 -79h-361z" />
    <glyph glyph-name="M" unicode="M" horiz-adv-x="714" 
d="M34 0l130 655h113l50 -341q5 -32 8.5 -64.5t8.5 -66.5h4q15 34 30 66.5t33 64.5l184 341h115l-131 -655h-88l70 342q7 31 16 67.5t18.5 73t19.5 66.5h-4l-78 -158l-175 -325h-68l-52 325l-19 158h-4q-3 -31 -6.5 -67.5t-8.5 -73t-10 -66.5l-68 -342h-88z" />
    <glyph glyph-name="N" unicode="N" horiz-adv-x="625" 
d="M34 0l130 655h97l136 -398q5 -14 12 -38t14 -51.5t11 -50.5h4q6 52 13.5 107.5t16.5 107.5l64 323h90l-131 -655h-96l-135 398q-7 21 -18.5 61.5t-19.5 81.5h-4q-5 -52 -13 -107.5t-18 -107.5l-64 -326h-89z" />
    <glyph glyph-name="O" unicode="O" horiz-adv-x="640" 
d="M290 -12q-73 0 -124.5 34t-79 96t-27.5 145q0 63 15.5 122t44.5 110.5t69 89.5t89 60t105 22q73 0 125 -33.5t79 -95.5t27 -146q0 -62 -15.5 -121t-44.5 -110.5t-69 -90t-89 -60.5t-105 -22zM295 68q39 0 73 18t61.5 49.5t47.5 72t30.5 86t10.5 91.5q0 61 -15 106.5
t-47 70.5t-80 25q-38 0 -72 -18t-61.5 -49.5t-47 -72t-30.5 -86t-11 -91.5q0 -61 15.5 -106t46.5 -70.5t79 -25.5z" />
    <glyph glyph-name="P" unicode="P" horiz-adv-x="559" 
d="M33 0l131 655h191q62 0 109.5 -16.5t74 -52.5t26.5 -94q0 -63 -21.5 -108t-61 -73.5t-92.5 -42.5t-116 -14h-97l-51 -254h-93zM192 329h89q94 0 143 38t49 112q0 54 -35.5 78t-102.5 24h-93z" />
    <glyph glyph-name="Q" unicode="Q" horiz-adv-x="640" 
d="M291 -12q-74 0 -125.5 34t-79 95.5t-27.5 145.5q0 63 15.5 122t44.5 110t69 89.5t89 60.5t105 22q73 0 125 -33.5t79 -95.5t27 -146q0 -63 -15.5 -122t-44.5 -110t-69 -89.5t-89 -60.5t-104 -22zM295 66q39 0 72.5 17.5t61.5 49t47.5 72.5t30.5 87t11 93
q0 61 -15.5 106.5t-46.5 70.5t-79 25q-39 0 -72.5 -18t-61.5 -49.5t-47.5 -72t-30.5 -86t-11 -91.5q0 -63 15.5 -109t46.5 -70.5t79 -24.5zM461 -168q-57 0 -106 20t-84.5 61t-51.5 106l94 -3q8 -38 32 -61.5t57 -35t69 -11.5q15 0 27.5 2.5t24.5 5.5l16 -71
q-32 -13 -78 -13z" />
    <glyph glyph-name="R" unicode="R" horiz-adv-x="566" 
d="M33 0l131 655h186q62 0 109.5 -15.5t74 -50t26.5 -90.5q0 -58 -21.5 -101t-59.5 -72t-87.5 -43.5t-104.5 -14.5h-107l-54 -268h-93zM195 343h91q89 0 135.5 38.5t46.5 104.5q0 51 -35 73t-102 22h-89zM386 0l-108 288l70 56l138 -344h-100z" />
    <glyph glyph-name="S" unicode="S" horiz-adv-x="512" 
d="M233 -12q-64 0 -121.5 29t-97.5 88l58 52q30 -41 73.5 -65t97.5 -24q36 0 64.5 13.5t45 37.5t16.5 57q0 36 -21.5 59.5t-58.5 45.5l-71 42q-42 26 -72 63.5t-30 93.5q0 51 27.5 93.5t75 68t106.5 25.5q58 0 107.5 -26.5t79.5 -68.5l-55 -54q-25 30 -59 49.5t-77 19.5
q-35 0 -59 -14t-37 -36t-13 -46q0 -36 23.5 -57.5t60.5 -44.5l72 -43q48 -29 72.5 -64t24.5 -90q0 -59 -29.5 -105t-81.5 -72.5t-121 -26.5z" />
    <glyph glyph-name="T" unicode="T" horiz-adv-x="515" 
d="M161 0l115 576h-186l16 79h465l-16 -79h-186l-114 -576h-94z" />
    <glyph glyph-name="U" unicode="U" horiz-adv-x="623" 
d="M291 -12q-104 0 -158.5 53.5t-54.5 158.5q0 22 3.5 46.5t7.5 49.5l72 359h93l-74 -370q-4 -22 -6.5 -41t-2.5 -37q0 -67 30 -103t94 -36q37 0 67.5 17t53 58.5t37.5 115.5l79 396h91l-80 -397q-20 -101 -55.5 -160t-84.5 -84.5t-112 -25.5z" />
    <glyph glyph-name="V" unicode="V" horiz-adv-x="511" 
d="M139 0l-58 655h96l24 -353q5 -53 8.5 -106.5t5.5 -107.5h4q24 53 49.5 107.5t50.5 106.5l172 353h101l-341 -655h-112z" />
    <glyph glyph-name="W" unicode="W" horiz-adv-x="766" 
d="M92 0l11 655h97l-12 -348q-2 -52 -6 -106t-9 -108h4q23 54 45 108t44 106l152 348h93l6 -348q1 -52 -0.5 -106t-3.5 -108h4q20 54 39.5 108t39.5 106l133 348h93l-264 -655h-119l-5 378q0 35 1.5 75t2.5 79h-4q-13 -38 -26.5 -76.5t-29.5 -77.5l-164 -378h-122z" />
    <glyph glyph-name="X" unicode="X" horiz-adv-x="504" 
d="M-36 0l249 339l-106 316h103l49 -163q6 -22 12 -45t14 -50h3q17 28 33 52t31 46l109 160h100l-235 -322l115 -333h-103l-52 173q-7 25 -15 50.5t-16 52.5h-3q-18 -28 -35.5 -54.5t-34.5 -51.5l-118 -170h-100z" />
    <glyph glyph-name="Y" unicode="Y" horiz-adv-x="474" 
d="M138 0l51 251l-106 404h95l42 -180q8 -37 15 -71.5t15 -72.5h3q22 38 43.5 73t44.5 72l115 179h100l-274 -404l-50 -251h-94z" />
    <glyph glyph-name="Z" unicode="Z" horiz-adv-x="516" 
d="M-2 0l12 56l407 521h-288l15 78h401l-12 -56l-404 -521h318l-17 -78h-432z" />
    <glyph glyph-name="a" unicode="a" horiz-adv-x="540" 
d="M177 -12q-64 0 -102 46t-38 132q0 70 22 131t59 106.5t84.5 71.5t97.5 26q38 0 68.5 -19.5t47.5 -52.5h2l21 60h74l-98 -489h-76l7 70h-3q-35 -37 -78.5 -59.5t-87.5 -22.5zM213 64q36 0 72 21.5t69 66.5l42 206q-18 36 -42 51t-49 15q-34 0 -65 -19.5t-55 -54
t-38.5 -78.5t-14.5 -93q0 -58 22 -86.5t59 -28.5z" />
    <glyph glyph-name="b" unicode="b" horiz-adv-x="540" 
d="M239 -12q-37 0 -66.5 19.5t-46.5 51.5h-3l-20 -59h-76l142 709h92l-37 -182l-23 -95h2q35 29 76 49t83 20q65 0 102.5 -46t37.5 -132q0 -70 -21.5 -131t-59 -107t-84.5 -71.5t-98 -25.5zM235 65q33 0 64 19.5t55.5 53.5t38.5 78.5t14 93.5q0 58 -21.5 86t-59.5 28
q-31 0 -68.5 -19t-68.5 -55l-45 -220q19 -34 42 -49.5t49 -15.5z" />
    <glyph glyph-name="c" unicode="c" horiz-adv-x="437" 
d="M218 -12q-53 0 -94.5 23t-65 67t-23.5 108q0 67 22.5 124t60.5 100t88 67t105 24q46 0 78 -18t50 -42l-50 -52q-17 18 -36 27t-47 9q-35 0 -66.5 -19t-56 -51.5t-39 -75t-14.5 -89.5q0 -60 26.5 -93.5t79.5 -33.5q29 0 55.5 12.5t46.5 27.5l39 -53q-28 -25 -67.5 -43.5
t-91.5 -18.5z" />
    <glyph glyph-name="d" unicode="d" horiz-adv-x="538" 
d="M177 -12q-64 0 -102 46t-38 132q0 70 22 131t59.5 106.5t84.5 71.5t97 26q38 0 67 -19t45 -50h3l15 95l36 182h92l-143 -709h-75l6 70h-3q-35 -36 -78.5 -59t-87.5 -23zM213 65q36 0 71.5 20.5t69.5 66.5l42 206q-19 36 -42.5 51t-48.5 15q-34 0 -65 -20t-55 -54
t-38.5 -78t-14.5 -93q0 -58 22 -86t59 -28z" />
    <glyph glyph-name="e" unicode="e" horiz-adv-x="484" 
d="M234 -12q-91 0 -145 53.5t-54 152.5q0 69 23 125t61 96.5t84.5 63t94.5 22.5q57 0 91 -24t49 -64t15 -91q0 -21 -2.5 -39.5t-7 -34.5t-8.5 -29h-332l8 70h259q3 12 4 20t1 19q0 26 -8 48.5t-27.5 36.5t-51.5 14q-25 0 -53.5 -14.5t-52.5 -42.5t-39.5 -69t-15.5 -92
q0 -58 16 -89.5t44 -44t65 -12.5q31 0 57.5 10t48.5 26l34 -57q-30 -24 -69.5 -39t-88.5 -15z" />
    <glyph glyph-name="f" unicode="f" horiz-adv-x="294" 
d="M41 0l83 415h-68l15 69l69 5l13 68q10 50 31.5 86.5t54.5 57t78 20.5q27 0 50 -6.5t42 -18.5l-31 -63q-9 6 -23 10t-31 4q-31 0 -50.5 -22t-27.5 -65l-15 -71h96l-15 -74h-96l-83 -415h-92z" />
    <glyph glyph-name="g" unicode="g" horiz-adv-x="534" 
d="M172 -215q-45 0 -90 16t-82 51l42 58q27 -23 61.5 -37t72.5 -14q57 0 93 34.5t50 94.5l24 99q-36 -37 -77.5 -58.5t-86.5 -21.5q-62 0 -102 44t-40 129q0 67 21.5 125t58 102t82.5 69t95 25q38 0 68 -19.5t46 -52.5h3l21 60h75l-101 -504q-20 -99 -80 -149.5t-154 -50.5z
M211 84q32 0 69.5 19.5t68.5 60.5l40 194q-19 36 -42 51t-48 15q-33 0 -62.5 -19t-53 -51t-37.5 -74t-14 -88q0 -54 21.5 -81t57.5 -27z" />
    <glyph glyph-name="h" unicode="h" horiz-adv-x="529" 
d="M27 0l142 709h92l-46 -221l-17 -67h4q39 35 79.5 57.5t84.5 22.5q62 0 89 -32.5t27 -90.5q0 -17 -1.5 -32.5t-6.5 -35.5l-62 -310h-92l60 298q4 19 6 30.5t2 24.5q0 34 -16.5 51t-50.5 17q-27 0 -60 -19.5t-75 -61.5l-67 -340h-92z" />
    <glyph glyph-name="i" unicode="i" horiz-adv-x="244" 
d="M26 0l99 489h92l-98 -489h-93zM195 583q-21 0 -38 13t-17 37q0 27 19.5 45.5t45.5 18.5q22 0 38.5 -13.5t16.5 -37.5q0 -27 -19 -45t-46 -18z" />
    <glyph glyph-name="j" unicode="j" horiz-adv-x="245" 
d="M-45 -211q-22 0 -42 4t-37 15l26 65q11 -5 22 -7.5t24 -2.5q28 0 43.5 22.5t25.5 65.5l108 538h92l-107 -540q-10 -45 -29 -81.5t-50 -57.5t-76 -21zM195 583q-21 0 -38 13t-17 37q0 27 19.5 45.5t45.5 18.5q22 0 38.5 -13.5t16.5 -37.5q0 -27 -19 -45t-46 -18z" />
    <glyph glyph-name="k" unicode="k" horiz-adv-x="488" 
d="M27 0l142 709h92l-93 -463h3l233 243h104l-196 -207l117 -282h-93l-88 227l-104 -105l-25 -122h-92z" />
    <glyph glyph-name="l" unicode="l" horiz-adv-x="255" 
d="M121 -10q-41 0 -60 19.5t-19 52.5q0 10 1.5 21t4.5 25l121 601h92l-121 -604q-1 -8 -1.5 -13t-0.5 -10q0 -16 15 -16q3 0 6 0.5l9 1.5l6 -67q-12 -4 -25 -7.5t-28 -3.5z" />
    <glyph glyph-name="m" unicode="m" horiz-adv-x="806" 
d="M27 0l97 489h76l-6 -72h4q38 35 79 59.5t80 24.5q57 0 81.5 -27t31.5 -67q45 44 89 69t82 25q61 0 88 -32.5t27 -90.5q0 -17 -2 -32.5t-6 -35.5l-62 -310h-92l60 298q4 19 6 30.5t2 24.5q0 34 -16 51t-50 17q-20 0 -53 -19.5t-73 -61.5l-68 -340h-92l60 298q4 19 6 30.5
t2 24.5q0 34 -16 51t-49 17q-20 0 -53.5 -19.5t-73.5 -61.5l-67 -340h-92z" />
    <glyph glyph-name="n" unicode="n" horiz-adv-x="532" 
d="M27 0l97 489h76l-6 -72h4q38 35 80 59.5t88 24.5q62 0 89 -32.5t27 -90.5q0 -17 -2 -32.5t-6 -35.5l-62 -310h-92l60 298q4 19 6 30.5t2 24.5q0 34 -16.5 51t-50.5 17q-27 0 -60 -19.5t-75 -61.5l-67 -340h-92z" />
    <glyph glyph-name="o" unicode="o" horiz-adv-x="518" 
d="M215 -12q-55 0 -95 24t-62 68.5t-22 105.5q0 70 23 127.5t61 99.5t85.5 65t97.5 23q54 0 94 -24t62 -68.5t22 -105.5q0 -70 -22.5 -127.5t-61 -99.5t-86 -65t-96.5 -23zM224 64q32 0 61.5 18t52.5 50.5t36.5 75t13.5 91.5q0 61 -24 93.5t-71 32.5q-31 0 -60.5 -18
t-52.5 -50.5t-37 -75t-14 -91.5q0 -60 24.5 -93t70.5 -33z" />
    <glyph glyph-name="p" unicode="p" horiz-adv-x="539" 
d="M-14 -200l138 689h76l-4 -63h4q36 31 77.5 53t84.5 22q65 0 102.5 -46t37.5 -132q0 -70 -21.5 -131t-59 -107t-84.5 -71.5t-98 -25.5q-35 0 -64.5 19t-47.5 48h-2l-17 -102l-29 -153h-93zM235 65q33 0 64 19.5t55.5 53.5t38.5 78.5t14 93.5q0 58 -21.5 86t-59.5 28
q-31 0 -68.5 -19t-68.5 -56l-45 -221q19 -34 42 -48.5t49 -14.5z" />
    <glyph glyph-name="q" unicode="q" horiz-adv-x="538" 
d="M283 -200l31 153l32 118h-2q-36 -37 -79.5 -60t-87.5 -23q-64 0 -102 46t-38 132q0 70 22 131t59.5 106.5t84.5 71.5t97 26q38 0 68.5 -19.5t46.5 -52.5h4l19 60h75l-138 -689h-92zM213 65q36 0 71.5 20.5t69.5 66.5l42 206q-19 36 -42.5 51t-48.5 15q-34 0 -65 -20
t-55 -54t-38.5 -78t-14.5 -93q0 -58 22 -86t59 -28z" />
    <glyph glyph-name="r" unicode="r" horiz-adv-x="353" 
d="M27 0l97 489h76l-10 -94h4q29 45 67.5 75.5t82.5 30.5q15 0 27 -2t21 -7l-32 -81q-8 5 -19.5 6t-24.5 1q-35 0 -71 -29t-67 -87l-59 -302h-92z" />
    <glyph glyph-name="s" unicode="s" horiz-adv-x="407" 
d="M165 -12q-32 0 -64 11t-59.5 31.5t-44.5 49.5l49 43q25 -31 57.5 -48t68.5 -17q25 0 46.5 9.5t34.5 25.5t13 37q0 17 -9 30t-29.5 26.5t-56.5 33.5q-44 26 -73 57.5t-29 75.5q0 43 23 76.5t61.5 52.5t84.5 19q47 0 85 -19t66 -51l-48 -48q-20 21 -46.5 34t-57.5 13
q-35 0 -57.5 -20t-22.5 -47t25 -45t60 -38q38 -21 62.5 -41t36.5 -43.5t12 -53.5q0 -47 -24.5 -81.5t-67 -53.5t-96.5 -19z" />
    <glyph glyph-name="t" unicode="t" horiz-adv-x="335" 
d="M187 -10q-64 0 -91.5 33.5t-27.5 82.5q0 13 1 26.5t4 27.5l54 255h-72l16 69l75 5l42 153h77l-30 -153h121l-16 -74h-122l-54 -258q-1 -9 -2 -17.5t-1 -18.5q0 -27 13.5 -41.5t42.5 -14.5q15 0 27.5 3.5t22.5 7.5l20 -62q-17 -9 -42.5 -16.5t-57.5 -7.5z" />
    <glyph glyph-name="u" unicode="u" horiz-adv-x="527" 
d="M164 -12q-61 0 -88 33t-27 89q0 18 2 33.5t6 35.5l62 310h92l-61 -298q-3 -18 -5.5 -30.5t-2.5 -24.5q0 -33 16.5 -51t51.5 -18q26 0 58.5 20t73.5 62l67 340h92l-97 -489h-76l7 72h-4q-38 -34 -80.5 -59t-86.5 -25z" />
    <glyph glyph-name="v" unicode="v" horiz-adv-x="461" 
d="M128 0l-69 489h92l31 -271q4 -36 6.5 -73.5t5.5 -73.5h4q17 37 35 73.5t35 73.5l135 271h91l-257 -489h-109z" />
    <glyph glyph-name="w" unicode="w" horiz-adv-x="718" 
d="M102 0l-32 489h92l11 -275q2 -31 1.5 -67.5t0.5 -71.5h4q12 35 26 71.5t27 67.5l118 275h98l13 -275q0 -31 0.5 -67.5t0.5 -71.5h4q14 35 26 71.5t26 67.5l117 275h91l-220 -489h-116l-8 247q0 38 1 75t2 82h-4q-15 -45 -27 -82t-28 -75l-106 -247h-118z" />
    <glyph glyph-name="x" unicode="x" horiz-adv-x="445" 
d="M-43 0l216 260l-90 229h94l39 -103q7 -21 13.5 -41t13.5 -41h4q15 21 30.5 41t29.5 41l76 103h99l-198 -250l97 -239h-95l-40 107q-8 22 -16.5 44.5t-17.5 44.5h-4q-15 -22 -31 -43.5t-34 -44.5l-86 -108h-100z" />
    <glyph glyph-name="y" unicode="y" horiz-adv-x="461" 
d="M11 -205q-19 0 -36 3.5t-30 11.5l28 68q16 -7 38 -7q34 0 65 26t54 71l15 29l-85 492h94l35 -260q5 -32 8.5 -69.5t6.5 -70.5h4q16 34 33.5 71t33.5 69l130 260h94l-274 -515q-31 -60 -63 -99.5t-69 -59.5t-82 -20z" />
    <glyph glyph-name="z" unicode="z" horiz-adv-x="419" 
d="M-10 0l10 53l308 362h-211l15 74h326l-10 -54l-308 -361h243l-15 -74h-358z" />
    <glyph glyph-name="Agrave" unicode="&#xc0;" horiz-adv-x="520" 
d="M-53 0l350 655h110l72 -655h-96l-30 371q-4 51 -8 102.5t-7 105.5h-4q-25 -55 -49 -105.5t-51 -102.5l-187 -371h-100zM107 194l18 72h290l-16 -72h-292zM350 705l-144 129l5 11h109l109 -140h-79z" />
    <glyph glyph-name="Aacute" unicode="&#xc1;" horiz-adv-x="520" 
d="M-53 0l350 655h110l72 -655h-96l-30 371q-4 51 -8 102.5t-7 105.5h-4q-25 -55 -49 -105.5t-51 -102.5l-187 -371h-100zM107 194l18 72h290l-16 -72h-292zM264 705l151 140h117l6 -11l-193 -129h-81z" />
    <glyph glyph-name="Acircumflex" unicode="&#xc2;" horiz-adv-x="520" 
d="M-53 0l350 655h110l72 -655h-96l-30 371q-4 51 -8 102.5t-7 105.5h-4q-25 -55 -49 -105.5t-51 -102.5l-187 -371h-100zM107 194l18 72h290l-16 -72h-292zM185 706l155 140h83l105 -140h-78l-73 75h-4l-108 -75h-80z" />
    <glyph glyph-name="Atilde" unicode="&#xc3;" horiz-adv-x="520" 
d="M-53 0l350 655h110l72 -655h-96l-30 371q-4 51 -8 102.5t-7 105.5h-4q-25 -55 -49 -105.5t-51 -102.5l-187 -371h-100zM107 194l18 72h290l-16 -72h-292zM430 705q-25 0 -43.5 10t-32 23.5t-26 24t-28.5 10.5q-18 0 -32.5 -15.5t-23.5 -47.5l-64 5q14 64 48.5 96.5
t81.5 32.5q26 0 44 -10.5t31.5 -24t26 -24t28.5 -10.5q18 0 32.5 16t23.5 47l64 -5q-13 -63 -48 -95.5t-82 -32.5z" />
    <glyph glyph-name="Adieresis" unicode="&#xc4;" horiz-adv-x="520" 
d="M-53 0l350 655h110l72 -655h-96l-30 371q-4 51 -8 102.5t-7 105.5h-4q-25 -55 -49 -105.5t-51 -102.5l-187 -371h-100zM107 194l18 72h290l-16 -72h-292zM259 711q-19 0 -32 12t-13 34q0 24 17 41.5t40 17.5q20 0 33 -12t13 -34q0 -24 -17 -41.5t-41 -17.5zM462 711
q-20 0 -33 12t-13 34q0 24 17 41.5t41 17.5q19 0 32 -12t13 -34q0 -24 -17 -41.5t-40 -17.5z" />
    <glyph glyph-name="Aring" unicode="&#xc5;" horiz-adv-x="520" 
d="M-53 0l350 655h110l72 -655h-96l-30 371q-4 51 -8 102.5t-7 105.5h-4q-25 -55 -49 -105.5t-51 -102.5l-187 -371h-100zM107 194l18 72h290l-16 -72h-292zM363 699q-43 0 -73 19.5t-30 62.5q0 42 35.5 71.5t86.5 29.5q43 0 73 -19.5t30 -62.5q0 -42 -35 -71.5t-87 -29.5z
M365 739q24 0 41 17.5t17 41.5q0 21 -11.5 32.5t-31.5 11.5q-23 0 -40.5 -17.5t-17.5 -41.5q0 -21 11.5 -32.5t31.5 -11.5z" />
    <glyph glyph-name="Amacron" unicode="&#x100;" horiz-adv-x="520" 
d="M-53 0l350 655h110l72 -655h-96l-30 371q-4 51 -8 102.5t-7 105.5h-4q-25 -55 -49 -105.5t-51 -102.5l-187 -371h-100zM107 194l18 72h290l-16 -72h-292zM230 732l12 63h264l-12 -63h-264z" />
    <glyph glyph-name="Abreve" unicode="&#x102;" horiz-adv-x="520" 
d="M-53 0l350 655h110l72 -655h-96l-30 371q-4 51 -8 102.5t-7 105.5h-4q-25 -55 -49 -105.5t-51 -102.5l-187 -371h-100zM107 194l18 72h290l-16 -72h-292zM356 703q-49 0 -76.5 19t-38.5 48.5t-11 63.5l59 10q1 -37 19.5 -58.5t59.5 -21.5q39 0 66 22.5t40 57.5l56 -10
q-10 -37 -33 -66.5t-58.5 -47t-82.5 -17.5z" />
    <glyph glyph-name="uni0226" unicode="&#x226;" horiz-adv-x="520" 
d="M-53 0l350 655h110l72 -655h-96l-30 371q-4 51 -8 102.5t-7 105.5h-4q-25 -55 -49 -105.5t-51 -102.5l-187 -371h-100zM107 194l18 72h290l-16 -72h-292zM364 712q-21 0 -38 13.5t-17 37.5q0 26 19.5 45t45.5 19q22 0 38.5 -13.5t16.5 -37.5q0 -28 -19 -46t-46 -18z" />
    <glyph glyph-name="uni01CD" unicode="&#x1cd;" horiz-adv-x="520" 
d="M-53 0l350 655h110l72 -655h-96l-30 371q-4 51 -8 102.5t-7 105.5h-4q-25 -55 -49 -105.5t-51 -102.5l-187 -371h-100zM107 194l18 72h290l-16 -72h-292zM312 706l-102 140h78l71 -75h4l110 75h80l-155 -140h-86z" />
    <glyph glyph-name="uni0200" unicode="&#x200;" horiz-adv-x="520" 
d="M-53 0l350 655h110l72 -655h-96l-30 371q-4 51 -8 102.5t-7 105.5h-4q-25 -55 -49 -105.5t-51 -102.5l-187 -371h-100zM107 194l18 72h290l-16 -72h-292zM228 705l-108 129l6 11h91l77 -140h-66zM418 705l-108 129l5 11h92l77 -140h-66z" />
    <glyph glyph-name="Aogonek" unicode="&#x104;" horiz-adv-x="520" 
d="M390 -221q-38 0 -64.5 20t-26.5 56q0 28 15.5 55t39 50.5t46.5 39.5h-17l-30 371q-3 51 -7.5 102.5t-7.5 105.5h-4q-25 -54 -49 -104.5t-51 -103.5l-187 -371h-103l354 655h108l74 -655q-44 -23 -69.5 -53.5t-25.5 -60.5q0 -18 12 -28t29 -10q21 0 42 14l21 -49
q-21 -16 -46.5 -25t-52.5 -9zM107 194l18 72h290l-16 -72h-292z" />
    <glyph glyph-name="Aogonek.d" horiz-adv-x="520" 
d="M201 -221q-38 0 -64 20t-26 56q0 27 16 56t43 56t62 48l27 -32q-29 -20 -46 -46.5t-17 -50.5q0 -18 12 -28t30 -10q21 0 42 14l21 -49q-21 -16 -46.5 -25t-53.5 -9zM-54 0l352 655h108l74 -655h-97l-30 371q-3 51 -7.5 102.5t-7.5 105.5h-4q-25 -54 -49 -104.5
t-51 -103.5l-187 -371h-101zM107 194l18 72h290l-16 -72h-292z" />
    <glyph glyph-name="uni1EA0" unicode="&#x1ea0;" horiz-adv-x="520" 
d="M-53 0l350 655h110l72 -655h-96l-30 371q-4 51 -8 102.5t-7 105.5h-4q-25 -55 -49 -105.5t-51 -102.5l-187 -371h-100zM107 194l18 72h290l-16 -72h-292zM182 -218q-21 0 -38 13t-17 37q0 27 19.5 45.5t45.5 18.5q22 0 38.5 -13.5t16.5 -37.5q0 -27 -19 -45t-46 -18z" />
    <glyph glyph-name="uni1EA2" unicode="&#x1ea2;" horiz-adv-x="520" 
d="M-53 0l350 655h110l72 -655h-96l-30 371q-4 51 -8 102.5t-7 105.5h-4q-25 -55 -49 -105.5t-51 -102.5l-187 -371h-100zM107 194l18 72h290l-16 -72h-292zM310 701l-4 44q63 13 63 49q0 17 -18 26.5t-55 9.5l15 56q45 0 74.5 -9.5t44.5 -26t15 -38.5q0 -43 -35 -72
t-100 -39z" />
    <glyph glyph-name="uni1EA4" unicode="&#x1ea4;" horiz-adv-x="520" 
d="M-53 0l350 655h110l72 -655h-96l-30 371q-4 51 -8 102.5t-7 105.5h-4q-25 -55 -49 -105.5t-51 -102.5l-187 -371h-100zM107 194l18 72h290l-16 -72h-292zM205 705l136 120h76l96 -120h-72l-64 65h-4l-94 -65h-74zM463 785l96 114h78l5 -10l-126 -104h-53z" />
    <glyph glyph-name="uni1EA6" unicode="&#x1ea6;" horiz-adv-x="520" 
d="M-53 0l350 655h110l72 -655h-96l-30 371q-4 51 -8 102.5t-7 105.5h-4q-25 -55 -49 -105.5t-51 -102.5l-187 -371h-100zM107 194l18 72h290l-16 -72h-292zM205 705l136 120h76l96 -120h-72l-64 65h-4l-94 -65h-74zM225 785l-84 104l6 10h74l54 -114h-50z" />
    <glyph glyph-name="uni1EA8" unicode="&#x1ea8;" horiz-adv-x="520" 
d="M-53 0l350 655h110l72 -655h-96l-30 371q-4 51 -8 102.5t-7 105.5h-4q-25 -55 -49 -105.5t-51 -102.5l-187 -371h-100zM107 194l18 72h290l-16 -72h-292zM205 705l136 120h76l96 -120h-72l-64 65h-3l-95 -65h-74zM494 774l-4 37q47 9 47 40q0 16 -15.5 22.5t-46.5 8.5
l11 46q55 -1 86.5 -15t31.5 -45q0 -37 -29.5 -61t-80.5 -33z" />
    <glyph glyph-name="uni1EAA" unicode="&#x1eaa;" horiz-adv-x="520" 
d="M-53 0l350 655h110l72 -655h-96l-30 371q-4 51 -8 102.5t-7 105.5h-4q-25 -55 -49 -105.5t-51 -102.5l-187 -371h-100zM107 194l18 72h290l-16 -72h-292zM262 705l15 52l74 63l117 -52l30 -63l-98 36l-26 24l-59 -36zM451 844q-29 0 -48.5 12t-36 24t-34.5 12
q-17 0 -27 -11.5t-17 -32.5l-51 7q7 29 19.5 50t31.5 33t44 12q29 0 48.5 -12t36 -24t34.5 -12q17 0 27.5 11.5t17.5 32.5l50 -7q-7 -28 -19.5 -49.5t-31.5 -33.5t-44 -12z" />
    <glyph glyph-name="uni1EAC" unicode="&#x1eac;" horiz-adv-x="520" 
d="M-53 0l350 655h110l72 -655h-96l-30 371q-4 51 -8 102.5t-7 105.5h-4q-25 -55 -49 -105.5t-51 -102.5l-187 -371h-100zM107 194l18 72h290l-16 -72h-292zM185 705l155 140h83l105 -140h-78l-73 75h-4l-108 -75h-80zM182 -218q-21 0 -38 13t-17 37q0 27 19.5 45.5
t45.5 18.5q22 0 38.5 -13.5t16.5 -37.5q0 -27 -19 -45t-46 -18z" />
    <glyph glyph-name="uni1EAE" unicode="&#x1eae;" horiz-adv-x="520" 
d="M-53 0l350 655h110l72 -655h-96l-30 371q-4 51 -8 102.5t-7 105.5h-4q-25 -55 -49 -105.5t-51 -102.5l-187 -371h-100zM107 194l18 72h290l-16 -72h-292zM355 703q-44 0 -72 16.5t-40.5 46.5t-11.5 68l53 10q0 -37 19.5 -61t62.5 -24q42 0 70 24t42 61l52 -10
q-11 -37 -33.5 -67t-57.5 -47t-84 -17zM329 835l95 114h78l6 -11l-127 -103h-52z" />
    <glyph glyph-name="uni1EB0" unicode="&#x1eb0;" horiz-adv-x="520" 
d="M-53 0l350 655h110l72 -655h-96l-30 371q-4 51 -8 102.5t-7 105.5h-4q-25 -55 -49 -105.5t-51 -102.5l-187 -371h-100zM107 194l18 72h290l-16 -72h-292zM355 703q-44 0 -72 16.5t-40.5 46.5t-11.5 68l53 10q0 -37 19.5 -61t62.5 -24q42 0 70 24t42 61l52 -10
q-11 -37 -33.5 -67t-57.5 -47t-84 -17zM369 835l-85 103l6 11h75l54 -114h-50z" />
    <glyph glyph-name="uni1EB2" unicode="&#x1eb2;" horiz-adv-x="520" 
d="M-53 0l350 655h110l72 -655h-96l-30 371q-4 51 -8 102.5t-7 105.5h-4q-25 -55 -49 -105.5t-51 -102.5l-187 -371h-100zM107 194l18 72h290l-16 -72h-292zM355 703q-45 0 -72.5 16.5t-39.5 46t-12 68.5l53 10q1 -38 19.5 -61.5t62.5 -23.5q41 0 69 24t43 61l52 -10
q-11 -37 -33.5 -66.5t-57.5 -47t-84 -17.5zM348 811l-3 36q48 9 48 41q0 15 -14.5 22t-45.5 9l11 45q56 0 86 -14.5t30 -45.5q0 -39 -31.5 -62.5t-80.5 -30.5z" />
    <glyph glyph-name="uni1EB4" unicode="&#x1eb4;" horiz-adv-x="520" 
d="M-53 0l350 655h110l72 -655h-96l-30 371q-4 51 -8 102.5t-7 105.5h-4q-25 -55 -49 -105.5t-51 -102.5l-187 -371h-100zM107 194l18 72h290l-16 -72h-292zM357 703q-45 0 -74 15.5t-41.5 41t-11.5 54.5l53 9q1 -25 19.5 -45t62.5 -20q45 0 70.5 20t35.5 45l52 -9
q-9 -29 -30 -54.5t-54.5 -41t-81.5 -15.5zM451 844q-29 0 -48.5 12t-36 24t-34.5 12q-17 0 -27 -11.5t-17 -32.5l-51 7q7 29 19.5 50t31.5 33t44 12q29 0 48.5 -12t36 -24t34.5 -12q17 0 27.5 11.5t17.5 32.5l50 -7q-7 -28 -19.5 -49.5t-31.5 -33.5t-44 -12z" />
    <glyph glyph-name="uni1EB6" unicode="&#x1eb6;" horiz-adv-x="520" 
d="M-53 0l350 655h110l72 -655h-96l-30 371q-4 51 -8 102.5t-7 105.5h-4q-25 -55 -49 -105.5t-51 -102.5l-187 -371h-100zM107 194l18 72h290l-16 -72h-292zM356 703q-49 0 -76.5 19t-38.5 48.5t-11 63.5l59 10q1 -37 19.5 -58.5t59.5 -21.5q39 0 66 22.5t40 57.5l56 -10
q-10 -37 -33 -66.5t-58.5 -47t-82.5 -17.5zM182 -218q-21 0 -38 13t-17 37q0 27 19.5 45.5t45.5 18.5q22 0 38.5 -13.5t16.5 -37.5q0 -27 -19 -45t-46 -18z" />
    <glyph glyph-name="Aringacute" unicode="&#x1fa;" horiz-adv-x="520" 
d="M-53 0l350 655h110l72 -655h-96l-30 371q-4 51 -8 102.5t-7 105.5h-4q-25 -55 -49 -105.5t-51 -102.5l-187 -371h-100zM107 194l18 72h290l-16 -72h-292zM363 699q-43 0 -73 19t-30 61q0 28 16 48t39 38l119 94h93l5 -11l-138 -91l6 15q37 -1 61 -21t24 -55
q0 -41 -35 -69t-87 -28zM365 739q24 0 41 16.5t17 38.5q0 20 -11.5 31.5t-31.5 11.5q-23 0 -40.5 -16.5t-17.5 -39.5q0 -20 11.5 -31t31.5 -11z" />
    <glyph glyph-name="AE" unicode="&#xc6;" horiz-adv-x="812" 
d="M-34 0l450 655h419l-16 -78h-265l-38 -195h223l-16 -78h-222l-46 -226h274l-16 -78h-366l117 585h-4q-35 -53 -70 -104.5t-70 -104.5l-248 -376h-106zM145 184l17 74h288l-16 -74h-289z" />
    <glyph glyph-name="AEacute" unicode="&#x1fc;" horiz-adv-x="812" 
d="M-34 0l450 655h419l-16 -78h-265l-38 -195h223l-16 -78h-222l-46 -226h274l-16 -78h-366l117 585h-4q-35 -53 -70 -104.5t-70 -104.5l-248 -376h-106zM145 184l17 74h288l-16 -74h-289zM535 705l151 140h117l6 -11l-193 -129h-81z" />
    <glyph glyph-name="uni01E2" unicode="&#x1e2;" horiz-adv-x="812" 
d="M-34 0l450 655h419l-16 -78h-265l-38 -195h223l-16 -78h-222l-46 -226h274l-16 -78h-366l117 585h-4q-35 -53 -70 -104.5t-70 -104.5l-248 -376h-106zM145 184l17 74h288l-16 -74h-289zM501 732l12 63h264l-12 -63h-264z" />
    <glyph glyph-name="uni023A" unicode="&#x23a;" horiz-adv-x="520" 
d="M125 -53l-37 16l350 745l37 -15zM-53 0l350 655h110l72 -655h-96l-30 371q-4 51 -8 102.5t-7 105.5h-4q-25 -55 -49 -105.5t-51 -102.5l-187 -371h-100zM107 194l18 72h290l-16 -72h-292z" />
    <glyph glyph-name="uni0243" unicode="&#x243;" horiz-adv-x="597" 
d="M52 0l130 655h182q63 0 109.5 -15.5t72 -47t25.5 -78.5q0 -41 -21 -74.5t-54.5 -56t-70.5 -31.5v-4q35 -8 61.5 -24.5t41.5 -43t15 -64.5q0 -76 -36.5 -123.5t-98.5 -70t-140 -22.5h-216zM4 164l16 71l82 5h233l-15 -76h-316zM158 75h108q57 0 99 14t65 45t23 81
q0 48 -35.5 74t-102.5 26h-107zM222 383h84q86 0 127.5 32.5t41.5 84.5q0 41 -32.5 61t-101.5 20h-80z" />
    <glyph glyph-name="uni0181" unicode="&#x181;" horiz-adv-x="716" 
d="M197 0l123 616h93l-48 -239h63q88 0 129 33t41 85q0 29 -15.5 50.5t-49 33.5t-87.5 12h-62q-64 0 -110.5 -19.5t-77 -50t-44.5 -64.5t-14 -65t12 -51t37 -35l-49 -65q-38 21 -61.5 56.5t-23.5 81.5q0 52 21.5 103t67 93t116.5 67t170 25q95 0 153.5 -18.5t85 -54
t26.5 -85.5q0 -42 -20.5 -76t-54 -56t-71.5 -32v-4q35 -8 61.5 -25t41.5 -43t15 -62q0 -74 -36 -120.5t-98.5 -68.5t-139.5 -22h-194zM304 73h83q58 0 100.5 14t65 43.5t22.5 75.5q0 51 -35.5 78t-102.5 27h-85z" />
    <glyph glyph-name="uni1E02" unicode="&#x1e02;" horiz-adv-x="575" 
d="M33 0l131 655h181q96 0 151 -36.5t55 -109.5q0 -42 -20.5 -76t-54 -56t-71.5 -32v-4q34 -8 61 -25t42 -43t15 -62q0 -74 -36 -120.5t-97.5 -68.5t-139.5 -22h-217zM201 377h87q87 0 128.5 33t41.5 85q0 42 -32 64.5t-101 22.5h-82zM140 73h107q58 0 100 14t65 43.5
t23 75.5q0 51 -35.5 78t-103.5 27h-107zM364 712q-21 0 -38 13.5t-17 37.5q0 26 19.5 45t45.5 19q22 0 38.5 -13.5t16.5 -37.5q0 -28 -19 -46t-46 -18z" />
    <glyph glyph-name="uni1E06" unicode="&#x1e06;" horiz-adv-x="575" 
d="M33 0l131 655h181q96 0 151 -36.5t55 -109.5q0 -42 -20.5 -76t-54 -56t-71.5 -32v-4q34 -8 61 -25t42 -43t15 -62q0 -74 -36 -120.5t-97.5 -68.5t-139.5 -22h-217zM201 377h87q87 0 128.5 33t41.5 85q0 42 -32 64.5t-101 22.5h-82zM140 73h107q58 0 100 14t65 43.5
t23 75.5q0 51 -35.5 78t-103.5 27h-107zM95 -161l11 62h262l-11 -62h-262z" />
    <glyph glyph-name="Ccedilla" unicode="&#xc7;" horiz-adv-x="554" 
d="M292 -12q-74 0 -127 33t-80.5 93.5t-27.5 140.5q0 64 16 124t45.5 112.5t71.5 92t94 61.5t112 22q56 0 99 -26t65 -69l-54 -49q-19 32 -48 48t-68 16q-43 0 -79.5 -19t-65.5 -51t-50 -74t-32 -88.5t-11 -91.5q0 -58 16.5 -101.5t51 -68.5t88.5 -25q39 0 73.5 15t62.5 40
l39 -57q-37 -34 -82.5 -56t-108.5 -22zM141 -230l-1 45q60 2 87.5 15t29.5 36q1 19 -14.5 29t-54.5 14l61 94h62l-41 -67q37 -9 50.5 -24t10.5 -42q-5 -48 -55.5 -72.5t-134.5 -27.5z" />
    <glyph glyph-name="Cacute" unicode="&#x106;" horiz-adv-x="554" 
d="M292 -12q-74 0 -127 33t-80.5 93.5t-27.5 140.5q0 64 16 124t45.5 112.5t71.5 92t94 61.5t112 22q56 0 99 -26t65 -69l-54 -49q-19 32 -48 48t-68 16q-43 0 -79.5 -19t-65.5 -51t-50 -74t-32 -88.5t-11 -91.5q0 -58 16.5 -101.5t51 -68.5t88.5 -25q39 0 73.5 15t62.5 40
l39 -57q-37 -34 -82.5 -56t-108.5 -22zM320 705l151 140h117l6 -11l-193 -129h-81z" />
    <glyph glyph-name="Ccircumflex" unicode="&#x108;" horiz-adv-x="554" 
d="M292 -12q-74 0 -127 33t-80.5 93.5t-27.5 140.5q0 64 16 124t45.5 112.5t71.5 92t94 61.5t112 22q56 0 99 -26t65 -69l-54 -49q-19 32 -48 48t-68 16q-43 0 -79.5 -19t-65.5 -51t-50 -74t-32 -88.5t-11 -91.5q0 -58 16.5 -101.5t51 -68.5t88.5 -25q39 0 73.5 15t62.5 40
l39 -57q-37 -34 -82.5 -56t-108.5 -22zM241 705l155 140h83l105 -140h-78l-73 75h-4l-108 -75h-80z" />
    <glyph glyph-name="Cdotaccent" unicode="&#x10a;" horiz-adv-x="554" 
d="M292 -12q-74 0 -127 33t-80.5 93.5t-27.5 140.5q0 64 16 124t45.5 112.5t71.5 92t94 61.5t112 22q56 0 99 -26t65 -69l-54 -49q-19 32 -48 48t-68 16q-43 0 -79.5 -19t-65.5 -51t-50 -74t-32 -88.5t-11 -91.5q0 -58 16.5 -101.5t51 -68.5t88.5 -25q39 0 73.5 15t62.5 40
l39 -57q-37 -34 -82.5 -56t-108.5 -22zM420 712q-21 0 -38 13.5t-17 37.5q0 26 19.5 45t45.5 19q22 0 38.5 -13.5t16.5 -37.5q0 -28 -19 -46t-46 -18z" />
    <glyph glyph-name="Ccaron" unicode="&#x10c;" horiz-adv-x="554" 
d="M292 -12q-74 0 -127 33t-80.5 93.5t-27.5 140.5q0 64 16 124t45.5 112.5t71.5 92t94 61.5t112 22q56 0 99 -26t65 -69l-54 -49q-19 32 -48 48t-68 16q-43 0 -79.5 -19t-65.5 -51t-50 -74t-32 -88.5t-11 -91.5q0 -58 16.5 -101.5t51 -68.5t88.5 -25q39 0 73.5 15t62.5 40
l39 -57q-37 -34 -82.5 -56t-108.5 -22zM368 706l-102 140h78l71 -75h4l110 75h80l-155 -140h-86z" />
    <glyph glyph-name="uni023B" unicode="&#x23b;" horiz-adv-x="555" 
d="M158 -53l-37 16l359 745l36 -15zM292 -12q-74 0 -127 33t-80.5 93.5t-27.5 140.5q0 64 16 124t45.5 112.5t71.5 92t94 61.5t112 22q56 0 99 -26t65 -69l-54 -49q-19 32 -48 48t-68 16q-43 0 -79.5 -19t-65.5 -51t-50 -74t-32 -88.5t-11 -91.5q0 -58 16.5 -101.5t51 -68.5
t88.5 -25q39 0 73.5 15t62.5 40l39 -57q-37 -34 -82.5 -56t-108.5 -22z" />
    <glyph glyph-name="uni1E0A" unicode="&#x1e0a;" horiz-adv-x="601" 
d="M34 0l130 655h131q88 0 151 -30t96 -88t33 -142q0 -89 -25.5 -161.5t-72.5 -124.5t-112.5 -80.5t-145.5 -28.5h-185zM141 75h78q57 0 105 22.5t83 64t54 99.5t19 128q0 62 -22.5 104.5t-65 64.5t-100.5 22h-51zM392 712q-21 0 -38 13.5t-17 37.5q0 26 19.5 45t45.5 19
q22 0 38.5 -13.5t16.5 -37.5q0 -28 -19 -46t-46 -18z" />
    <glyph glyph-name="Dcaron" unicode="&#x10e;" horiz-adv-x="601" 
d="M34 0l130 655h131q88 0 151 -30t96 -88t33 -142q0 -89 -25.5 -161.5t-72.5 -124.5t-112.5 -80.5t-145.5 -28.5h-185zM141 75h78q57 0 105 22.5t83 64t54 99.5t19 128q0 62 -22.5 104.5t-65 64.5t-100.5 22h-51zM340 706l-102 140h78l71 -75h4l110 75h80l-155 -140h-86z
" />
    <glyph glyph-name="uni1E0C" unicode="&#x1e0c;" horiz-adv-x="601" 
d="M34 0l130 655h131q88 0 151 -30t96 -88t33 -142q0 -89 -25.5 -161.5t-72.5 -124.5t-112.5 -80.5t-145.5 -28.5h-185zM141 75h78q57 0 105 22.5t83 64t54 99.5t19 128q0 62 -22.5 104.5t-65 64.5t-100.5 22h-51zM221 -218q-21 0 -38 13t-17 37q0 27 19.5 45.5t45.5 18.5
q22 0 38.5 -13.5t16.5 -37.5q0 -27 -19 -45t-46 -18z" />
    <glyph glyph-name="uni1E0E" unicode="&#x1e0e;" horiz-adv-x="601" 
d="M34 0l130 655h131q88 0 151 -30t96 -88t33 -142q0 -89 -25.5 -161.5t-72.5 -124.5t-112.5 -80.5t-145.5 -28.5h-185zM141 75h78q57 0 105 22.5t83 64t54 99.5t19 128q0 62 -22.5 104.5t-65 64.5t-100.5 22h-51zM96 -161l11 62h262l-11 -62h-262z" />
    <glyph glyph-name="uni1E10" unicode="&#x1e10;" horiz-adv-x="601" 
d="M34 0l130 655h131q88 0 151 -30t96 -88t33 -142q0 -89 -25.5 -161.5t-72.5 -124.5t-112.5 -80.5t-145.5 -28.5h-185zM141 75h78q57 0 105 22.5t83 64t54 99.5t19 128q0 62 -22.5 104.5t-65 64.5t-100.5 22h-51zM99 -230l-1 45q60 2 87.5 15t29.5 36q1 19 -14.5 29
t-54.5 14l61 94h62l-41 -67q37 -9 50.5 -24t10.5 -42q-5 -48 -55.5 -72.5t-134.5 -27.5z" />
    <glyph glyph-name="Dcroat" unicode="&#x110;" horiz-adv-x="621" 
d="M41 307l16 68l72 4h239l-14 -72h-313zM54 0l130 655h131q88 0 151 -30t96 -88t33 -142q0 -89 -25.5 -161.5t-72.5 -124.5t-112.5 -80.5t-145.5 -28.5h-185zM161 75h78q57 0 105 22.5t83 64t54 99.5t19 128q0 62 -22.5 104.5t-65 64.5t-100.5 22h-51z" />
    <glyph glyph-name="uni018A" unicode="&#x18a;" horiz-adv-x="741" 
d="M197 0l123 616h93l-108 -540h53q57 0 105 22t83.5 64t54.5 100.5t19 132.5q0 65 -22.5 109t-65.5 65.5t-103 21.5h-45q-64 0 -110.5 -19.5t-77 -50t-44.5 -64.5t-14 -65t12 -51t37 -35l-49 -65q-38 21 -61.5 56.5t-23.5 81.5q0 52 21.5 103t67 93t116.5 67t170 25
q94 0 158 -31.5t96.5 -91.5t32.5 -144q0 -91 -25.5 -165t-73 -126.5t-112.5 -80.5t-144 -28h-163z" />
    <glyph glyph-name="Egrave" unicode="&#xc8;" horiz-adv-x="508" 
d="M33 0l131 655h368l-15 -78h-276l-39 -195h234l-16 -78h-232l-47 -226h285l-16 -78h-377zM356 705l-144 129l5 11h109l109 -140h-79z" />
    <glyph glyph-name="Eacute" unicode="&#xc9;" horiz-adv-x="508" 
d="M33 0l131 655h368l-15 -78h-276l-39 -195h234l-16 -78h-232l-47 -226h285l-16 -78h-377zM270 705l151 140h117l6 -11l-193 -129h-81z" />
    <glyph glyph-name="Ecircumflex" unicode="&#xca;" horiz-adv-x="508" 
d="M33 0l131 655h368l-15 -78h-276l-39 -195h234l-16 -78h-232l-47 -226h285l-16 -78h-377zM191 706l155 140h83l105 -140h-78l-73 75h-4l-108 -75h-80z" />
    <glyph glyph-name="uni1EBC" unicode="&#x1ebc;" horiz-adv-x="508" 
d="M33 0l131 655h368l-15 -78h-276l-39 -195h234l-16 -78h-232l-47 -226h285l-16 -78h-377zM439 705q-25 0 -43.5 10t-32 23.5t-26 24t-28.5 10.5q-18 0 -32.5 -15.5t-23.5 -47.5l-64 5q14 64 48.5 96.5t81.5 32.5q26 0 44 -10.5t31.5 -24t26 -24t28.5 -10.5q18 0 32.5 16
t23.5 47l64 -5q-13 -63 -48 -95.5t-82 -32.5z" />
    <glyph glyph-name="Edieresis" unicode="&#xcb;" horiz-adv-x="508" 
d="M33 0l131 655h368l-15 -78h-276l-39 -195h234l-16 -78h-232l-47 -226h285l-16 -78h-377zM265 711q-19 0 -32 12t-13 34q0 24 17 41.5t40 17.5q20 0 33 -12t13 -34q0 -24 -17 -41.5t-41 -17.5zM468 711q-20 0 -33 12t-13 34q0 24 17 41.5t41 17.5q19 0 32 -12t13 -34
q0 -24 -17 -41.5t-40 -17.5z" />
    <glyph glyph-name="Emacron" unicode="&#x112;" horiz-adv-x="508" 
d="M33 0l131 655h368l-15 -78h-276l-39 -195h234l-16 -78h-232l-47 -226h285l-16 -78h-377zM236 732l12 63h264l-12 -63h-264z" />
    <glyph glyph-name="Ebreve" unicode="&#x114;" horiz-adv-x="508" 
d="M33 0l131 655h368l-15 -78h-276l-39 -195h234l-16 -78h-232l-47 -226h285l-16 -78h-377zM362 703q-49 0 -76.5 19t-38.5 48.5t-11 63.5l59 10q1 -37 19.5 -58.5t59.5 -21.5q39 0 66 22.5t40 57.5l56 -10q-10 -37 -33 -66.5t-58.5 -47t-82.5 -17.5z" />
    <glyph glyph-name="Edotaccent" unicode="&#x116;" horiz-adv-x="508" 
d="M33 0l131 655h368l-15 -78h-276l-39 -195h234l-16 -78h-232l-47 -226h285l-16 -78h-377zM370 712q-21 0 -38 13.5t-17 37.5q0 26 19.5 45t45.5 19q22 0 38.5 -13.5t16.5 -37.5q0 -28 -19 -46t-46 -18z" />
    <glyph glyph-name="Ecaron" unicode="&#x11a;" horiz-adv-x="508" 
d="M33 0l131 655h368l-15 -78h-276l-39 -195h234l-16 -78h-232l-47 -226h285l-16 -78h-377zM318 706l-102 140h78l71 -75h4l110 75h80l-155 -140h-86z" />
    <glyph glyph-name="uni0204" unicode="&#x204;" horiz-adv-x="508" 
d="M33 0l131 655h368l-15 -78h-276l-39 -195h234l-16 -78h-232l-47 -226h285l-16 -78h-377zM234 705l-108 129l6 11h91l77 -140h-66zM424 705l-108 129l5 11h92l77 -140h-66z" />
    <glyph glyph-name="Eogonek" unicode="&#x118;" horiz-adv-x="508" 
d="M310 -221q-38 0 -64.5 20t-26.5 56q0 28 15.5 55t39 50.5t46.5 39.5h-287l131 655h368l-15 -78h-276l-39 -195h234l-16 -78h-232l-47 -226h285l-16 -78q-19 -2 -37.5 -13.5t-33.5 -28.5t-24.5 -36t-9.5 -36q0 -18 12 -28t29 -10q21 0 42 14l21 -49q-21 -16 -46.5 -25
t-52.5 -9z" />
    <glyph glyph-name="Eogonek.d" horiz-adv-x="508" 
d="M209 -221q-38 0 -64.5 19.5t-26.5 56.5q0 28 15.5 55t39 50.5t46.5 39.5h-186l131 655h368l-15 -78h-276l-39 -195h234l-16 -78h-232l-47 -226h285l-16 -78h-98q-17 0 -36 -11t-35.5 -28.5t-26.5 -37t-10 -37.5t12 -28t29 -10q21 0 42 14l21 -49q-21 -16 -47 -25t-52 -9z
" />
    <glyph glyph-name="uni1EB8" unicode="&#x1eb8;" horiz-adv-x="508" 
d="M33 0l131 655h368l-15 -78h-276l-39 -195h234l-16 -78h-232l-47 -226h285l-16 -78h-377zM207 -218q-21 0 -38 13t-17 37q0 27 19.5 45.5t45.5 18.5q22 0 38.5 -13.5t16.5 -37.5q0 -27 -19 -45t-46 -18z" />
    <glyph glyph-name="uni1EBA" unicode="&#x1eba;" horiz-adv-x="508" 
d="M33 0l131 655h368l-15 -78h-276l-39 -195h234l-16 -78h-232l-47 -226h285l-16 -78h-377zM319 701l-4 44q63 13 63 49q0 17 -18 26.5t-55 9.5l15 56q45 0 74.5 -9.5t44.5 -26t15 -38.5q0 -43 -35 -72t-100 -39z" />
    <glyph glyph-name="uni1EBE" unicode="&#x1ebe;" horiz-adv-x="508" 
d="M33 0l131 655h368l-15 -78h-276l-39 -195h234l-16 -78h-232l-47 -226h285l-16 -78h-377zM214 705l136 120h76l96 -120h-72l-64 65h-4l-94 -65h-74zM472 785l96 114h78l5 -10l-126 -104h-53z" />
    <glyph glyph-name="uni1EC0" unicode="&#x1ec0;" horiz-adv-x="508" 
d="M33 0l131 655h368l-15 -78h-276l-39 -195h234l-16 -78h-232l-47 -226h285l-16 -78h-377zM214 705l136 120h76l96 -120h-72l-64 65h-4l-94 -65h-74zM234 785l-84 104l6 10h74l54 -114h-50z" />
    <glyph glyph-name="uni1EC2" unicode="&#x1ec2;" horiz-adv-x="508" 
d="M33 0l131 655h368l-15 -78h-276l-39 -195h234l-16 -78h-232l-47 -226h285l-16 -78h-377zM214 705l136 120h76l96 -120h-72l-64 65h-3l-95 -65h-74zM503 774l-4 37q47 9 47 40q0 16 -15.5 22.5t-46.5 8.5l11 46q55 -1 86.5 -15t31.5 -45q0 -37 -29.5 -61t-80.5 -33z" />
    <glyph glyph-name="uni1EC4" unicode="&#x1ec4;" horiz-adv-x="508" 
d="M33 0l131 655h368l-15 -78h-276l-39 -195h234l-16 -78h-232l-47 -226h285l-16 -78h-377zM271 705l15 52l74 63l117 -52l30 -63l-98 36l-26 24l-59 -36zM460 844q-29 0 -48.5 12t-36 24t-34.5 12q-17 0 -27 -11.5t-17 -32.5l-51 7q7 29 19.5 50t31.5 33t44 12
q29 0 48.5 -12t36 -24t34.5 -12q17 0 27.5 11.5t17.5 32.5l50 -7q-7 -28 -19.5 -49.5t-31.5 -33.5t-44 -12z" />
    <glyph glyph-name="uni1EC6" unicode="&#x1ec6;" horiz-adv-x="508" 
d="M33 0l131 655h368l-15 -78h-276l-39 -195h234l-16 -78h-232l-47 -226h285l-16 -78h-377zM194 705l155 140h83l105 -140h-78l-73 75h-4l-108 -75h-80zM207 -218q-21 0 -38 13t-17 37q0 27 19.5 45.5t45.5 18.5q22 0 38.5 -13.5t16.5 -37.5q0 -27 -19 -45t-46 -18z" />
    <glyph glyph-name="uni1E16" unicode="&#x1e16;" horiz-adv-x="508" 
d="M33 0l131 655h368l-15 -78h-276l-39 -195h234l-16 -78h-232l-47 -226h285l-16 -78h-377zM238 734l12 63h264l-12 -63h-264zM333 839l105 120h88l6 -11l-137 -109h-62z" />
    <glyph glyph-name="uni018E" unicode="&#x18e;" horiz-adv-x="508" 
d="M-3 0l16 78h285l44 226h-233l15 78h234l39 195h-276l16 78h368l-131 -655h-377z" />
    <glyph glyph-name="uni0190" unicode="&#x190;" horiz-adv-x="534" 
d="M238 -12q-98 0 -154.5 43t-56.5 116q0 39 16 72t42.5 58t59.5 42.5t67 25.5v4q-24 10 -43.5 28.5t-31.5 44t-12 56.5q0 53 30.5 95.5t83 68t118.5 25.5q60 0 109 -26t72 -69l-53 -49q-21 32 -53.5 48.5t-75.5 16.5q-37 0 -69 -14.5t-51.5 -41t-19.5 -60.5q0 -40 29.5 -67
t99.5 -27h53l-12 -69h-72q-54 0 -96 -19.5t-66.5 -51t-24.5 -69.5q0 -48 33.5 -75t91.5 -27q54 0 98.5 19t82.5 50l39 -57q-45 -41 -100.5 -66t-133.5 -25z" />
    <glyph glyph-name="uni1E1E" unicode="&#x1e1e;" horiz-adv-x="481" 
d="M33 0l131 655h368l-15 -78h-276l-42 -210h234l-16 -79h-232l-59 -288h-93zM375 712q-21 0 -38 13.5t-17 37.5q0 26 19.5 45t45.5 19q22 0 38.5 -13.5t16.5 -37.5q0 -28 -19 -46t-46 -18z" />
    <glyph glyph-name="uni01F4" unicode="&#x1f4;" horiz-adv-x="594" 
d="M304 -12q-80 0 -135 33t-83.5 92.5t-28.5 141.5q0 80 24.5 154t70.5 132t110 92t142 34q59 0 103 -25.5t67 -68.5l-54 -54q-20 33 -50.5 50.5t-70.5 17.5q-45 0 -83 -18.5t-68.5 -51t-51.5 -74t-32.5 -88t-11.5 -92.5q0 -57 16.5 -101t53 -69.5t96.5 -25.5q32 0 58 10.5
t43 25.5l35 167h-128l15 76h211l-58 -291q-35 -29 -84 -48t-106 -19zM320 705l151 140h117l6 -11l-193 -129h-81z" />
    <glyph glyph-name="Gcircumflex" unicode="&#x11c;" horiz-adv-x="594" 
d="M304 -12q-80 0 -135 33t-83.5 92.5t-28.5 141.5q0 80 24.5 154t70.5 132t110 92t142 34q59 0 103 -25.5t67 -68.5l-54 -54q-20 33 -50.5 50.5t-70.5 17.5q-45 0 -83 -18.5t-68.5 -51t-51.5 -74t-32.5 -88t-11.5 -92.5q0 -57 16.5 -101t53 -69.5t96.5 -25.5q32 0 58 10.5
t43 25.5l35 167h-128l15 76h211l-58 -291q-35 -29 -84 -48t-106 -19zM241 705l155 140h83l105 -140h-78l-73 75h-4l-108 -75h-80z" />
    <glyph glyph-name="uni1E20" unicode="&#x1e20;" horiz-adv-x="594" 
d="M304 -12q-80 0 -135 33t-83.5 92.5t-28.5 141.5q0 80 24.5 154t70.5 132t110 92t142 34q59 0 103 -25.5t67 -68.5l-54 -54q-20 33 -50.5 50.5t-70.5 17.5q-45 0 -83 -18.5t-68.5 -51t-51.5 -74t-32.5 -88t-11.5 -92.5q0 -57 16.5 -101t53 -69.5t96.5 -25.5q32 0 58 10.5
t43 25.5l35 167h-128l15 76h211l-58 -291q-35 -29 -84 -48t-106 -19zM286 732l12 63h264l-12 -63h-264z" />
    <glyph glyph-name="Gbreve" unicode="&#x11e;" horiz-adv-x="594" 
d="M304 -12q-80 0 -135 33t-83.5 92.5t-28.5 141.5q0 80 24.5 154t70.5 132t110 92t142 34q59 0 103 -25.5t67 -68.5l-54 -54q-20 33 -50.5 50.5t-70.5 17.5q-45 0 -83 -18.5t-68.5 -51t-51.5 -74t-32.5 -88t-11.5 -92.5q0 -57 16.5 -101t53 -69.5t96.5 -25.5q32 0 58 10.5
t43 25.5l35 167h-128l15 76h211l-58 -291q-35 -29 -84 -48t-106 -19zM412 703q-49 0 -76.5 19t-38.5 48.5t-11 63.5l59 10q1 -37 19.5 -58.5t59.5 -21.5q39 0 66 22.5t40 57.5l56 -10q-10 -37 -33 -66.5t-58.5 -47t-82.5 -17.5z" />
    <glyph glyph-name="Gdotaccent" unicode="&#x120;" horiz-adv-x="594" 
d="M304 -12q-80 0 -135 33t-83.5 92.5t-28.5 141.5q0 80 24.5 154t70.5 132t110 92t142 34q59 0 103 -25.5t67 -68.5l-54 -54q-20 33 -50.5 50.5t-70.5 17.5q-45 0 -83 -18.5t-68.5 -51t-51.5 -74t-32.5 -88t-11.5 -92.5q0 -57 16.5 -101t53 -69.5t96.5 -25.5q32 0 58 10.5
t43 25.5l35 167h-128l15 76h211l-58 -291q-35 -29 -84 -48t-106 -19zM420 712q-21 0 -38 13.5t-17 37.5q0 26 19.5 45t45.5 19q22 0 38.5 -13.5t16.5 -37.5q0 -28 -19 -46t-46 -18z" />
    <glyph glyph-name="Gcaron" unicode="&#x1e6;" horiz-adv-x="594" 
d="M304 -12q-80 0 -135 33t-83.5 92.5t-28.5 141.5q0 80 24.5 154t70.5 132t110 92t142 34q59 0 103 -25.5t67 -68.5l-54 -54q-20 33 -50.5 50.5t-70.5 17.5q-45 0 -83 -18.5t-68.5 -51t-51.5 -74t-32.5 -88t-11.5 -92.5q0 -57 16.5 -101t53 -69.5t96.5 -25.5q32 0 58 10.5
t43 25.5l35 167h-128l15 76h211l-58 -291q-35 -29 -84 -48t-106 -19zM368 706l-102 140h78l71 -75h4l110 75h80l-155 -140h-86z" />
    <glyph glyph-name="uni0122" unicode="&#x122;" horiz-adv-x="594" 
d="M304 -12q-80 0 -135 33t-83.5 92.5t-28.5 141.5q0 80 24.5 154t70.5 132t110 92t142 34q59 0 103 -25.5t67 -68.5l-54 -54q-20 33 -50.5 50.5t-70.5 17.5q-45 0 -83 -18.5t-68.5 -51t-51.5 -74t-32.5 -88t-11.5 -92.5q0 -57 16.5 -101t53 -69.5t96.5 -25.5q32 0 58 10.5
t43 25.5l35 167h-128l15 76h211l-58 -291q-35 -29 -84 -48t-106 -19zM163 -226l-1 45q60 2 87.5 15.5t27.5 34.5q0 16 -14 26t-47 11l26 42q46 -4 70 -13t32.5 -22.5t8.5 -32.5q0 -34 -24 -57t-67 -35t-99 -14z" />
    <glyph glyph-name="uni01E4" unicode="&#x1e4;" horiz-adv-x="634" 
d="M303 -12q-78 0 -133.5 32.5t-84 92.5t-28.5 142q0 79 25 153.5t71 132.5t109.5 92t141.5 34q59 0 103 -26t68 -68l-55 -54q-20 33 -50.5 50.5t-70.5 17.5q-45 0 -83 -18.5t-68 -51t-51.5 -74t-33 -88t-11.5 -92.5q0 -57 16.5 -100.5t53 -69.5t96.5 -26q32 0 58 10.5
t43 25.5l50 243h83l-58 -291q-36 -29 -84.5 -48t-106.5 -19zM313 196l14 66l129 6h152l-14 -72h-281z" />
    <glyph glyph-name="uni00470303" horiz-adv-x="594" 
d="M304 -12q-80 0 -135 33t-83.5 92.5t-28.5 141.5q0 80 24.5 154t70.5 132t110 92t142 34q59 0 103 -25.5t67 -68.5l-54 -54q-20 33 -50.5 50.5t-70.5 17.5q-45 0 -83 -18.5t-68.5 -51t-51.5 -74t-32.5 -88t-11.5 -92.5q0 -57 16.5 -101t53 -69.5t96.5 -25.5q32 0 58 10.5
t43 25.5l35 167h-128l15 76h211l-58 -291q-35 -29 -84 -48t-106 -19zM486 705q-25 0 -43.5 10t-32 23.5t-26 24t-28.5 10.5q-18 0 -32.5 -15.5t-23.5 -47.5l-64 5q14 64 48.5 96.5t81.5 32.5q26 0 44 -10.5t31.5 -24t26 -24t28.5 -10.5q18 0 32.5 16t23.5 47l64 -5
q-13 -63 -48 -95.5t-82 -32.5z" />
    <glyph glyph-name="uni0193" unicode="&#x193;" horiz-adv-x="594" 
d="M304 -12q-80 0 -135 33t-83.5 92.5t-28.5 141.5q0 80 24.5 154t70.5 132t110 92t142 34q33 0 59 -10t48 -29l-17 -14q-5 26 -7 41.5t-2 32.5q0 31 14 57.5t41 43t65 16.5q22 0 41.5 -6t33.5 -16l-30 -63q-9 6 -16.5 8.5t-20.5 2.5q-26 0 -41 -19t-15 -54q0 -20 4 -40.5
t13 -44.5l-54 -54q-20 33 -50.5 50.5t-70.5 17.5q-45 0 -83 -18.5t-68.5 -51t-51.5 -74t-32.5 -88t-11.5 -92.5q0 -57 16.5 -101t53 -69.5t96.5 -25.5q32 0 58 10.5t43 25.5l35 167h-128l15 76h211l-58 -291q-35 -29 -84 -48t-106 -19z" />
    <glyph glyph-name="Hcircumflex" unicode="&#x124;" horiz-adv-x="630" 
d="M34 0l130 655h93l-55 -271h277l55 271h93l-131 -655h-93l61 303h-277l-60 -303h-93zM232 705l155 140h83l105 -140h-78l-73 75h-4l-108 -75h-80z" />
    <glyph glyph-name="uni1E26" unicode="&#x1e26;" horiz-adv-x="630" 
d="M34 0l130 655h93l-55 -271h277l55 271h93l-131 -655h-93l61 303h-277l-60 -303h-93zM306 710q-19 0 -32 12t-13 34q0 24 17 41.5t40 17.5q20 0 33 -12t13 -34q0 -24 -17 -41.5t-41 -17.5zM509 710q-20 0 -33 12t-13 34q0 24 17 41.5t41 17.5q19 0 32 -12t13 -34
q0 -24 -17 -41.5t-40 -17.5z" />
    <glyph glyph-name="uni1E22" unicode="&#x1e22;" horiz-adv-x="630" 
d="M34 0l130 655h93l-55 -271h277l55 271h93l-131 -655h-93l61 303h-277l-60 -303h-93zM411 711q-21 0 -38 13.5t-17 37.5q0 26 19.5 45t45.5 19q22 0 38.5 -13.5t16.5 -37.5q0 -28 -19 -46t-46 -18z" />
    <glyph glyph-name="uni021E" unicode="&#x21e;" horiz-adv-x="630" 
d="M34 0l130 655h93l-55 -271h277l55 271h93l-131 -655h-93l61 303h-277l-60 -303h-93zM359 705l-102 140h78l71 -75h4l110 75h80l-155 -140h-86z" />
    <glyph glyph-name="uni1E24" unicode="&#x1e24;" horiz-adv-x="630" 
d="M34 0l130 655h93l-55 -271h277l55 271h93l-131 -655h-93l61 303h-277l-60 -303h-93zM243 -218q-21 0 -38 13t-17 37q0 27 19.5 45.5t45.5 18.5q22 0 38.5 -13.5t16.5 -37.5q0 -27 -19 -45t-46 -18z" />
    <glyph glyph-name="uni1E28" unicode="&#x1e28;" horiz-adv-x="630" 
d="M34 0l130 655h93l-55 -271h277l55 271h93l-131 -655h-93l61 303h-277l-60 -303h-93zM-55 -230l-1 45q60 2 87.5 15t29.5 36q1 19 -14.5 29t-54.5 14l61 94h62l-41 -67q37 -9 50.5 -24t10.5 -42q-5 -48 -55.5 -72.5t-134.5 -27.5z" />
    <glyph glyph-name="uni1E2A" unicode="&#x1e2a;" horiz-adv-x="630" 
d="M34 0l130 655h93l-55 -271h277l55 271h93l-131 -655h-93l61 303h-277l-60 -303h-93zM233 -230q-47 0 -76 19.5t-43 54.5t-14 79l62 9q0 -27 8.5 -49t26.5 -35t49 -13q30 0 53.5 14t39 36.5t24.5 47.5l58 -10q-9 -39 -32 -74t-61.5 -57t-94.5 -22z" />
    <glyph glyph-name="uni1E96.c" horiz-adv-x="630" 
d="M34 0l130 655h93l-55 -271h277l55 271h93l-131 -655h-93l61 303h-277l-60 -303h-93zM118 -161l11 62h262l-11 -62h-262z" />
    <glyph glyph-name="Hbar" unicode="&#x126;" horiz-adv-x="670" 
d="M74 481l14 68l76 4h538l-14 -72h-614zM54 0l130 655h93l-55 -271h277l55 271h93l-131 -655h-93l61 303h-277l-60 -303h-93z" />
    <glyph glyph-name="Igrave" unicode="&#xcc;" horiz-adv-x="261" 
d="M34 0l130 655h93l-130 -655h-93zM215 705l-144 129l5 11h109l109 -140h-79z" />
    <glyph glyph-name="Iacute" unicode="&#xcd;" horiz-adv-x="261" 
d="M34 0l130 655h93l-130 -655h-93zM129 705l151 140h117l6 -11l-193 -129h-81z" />
    <glyph glyph-name="Icircumflex" unicode="&#xce;" horiz-adv-x="261" 
d="M34 0l130 655h93l-130 -655h-93zM50 706l155 140h83l105 -140h-78l-73 75h-4l-108 -75h-80z" />
    <glyph glyph-name="Itilde" unicode="&#x128;" horiz-adv-x="261" 
d="M34 0l130 655h93l-130 -655h-93zM295 705q-25 0 -43.5 10t-32 23.5t-26 24t-28.5 10.5q-18 0 -32.5 -15.5t-23.5 -47.5l-64 5q14 64 48.5 96.5t81.5 32.5q26 0 44 -10.5t31.5 -24t26 -24t28.5 -10.5q18 0 32.5 16t23.5 47l64 -5q-13 -63 -48 -95.5t-82 -32.5z" />
    <glyph glyph-name="Idieresis" unicode="&#xcf;" horiz-adv-x="261" 
d="M34 0l130 655h93l-130 -655h-93zM124 711q-19 0 -32 12t-13 34q0 24 17 41.5t40 17.5q20 0 33 -12t13 -34q0 -24 -17 -41.5t-41 -17.5zM327 711q-20 0 -33 12t-13 34q0 24 17 41.5t41 17.5q19 0 32 -12t13 -34q0 -24 -17 -41.5t-40 -17.5z" />
    <glyph glyph-name="Imacron" unicode="&#x12a;" horiz-adv-x="261" 
d="M34 0l130 655h93l-130 -655h-93zM95 732l12 63h264l-12 -63h-264z" />
    <glyph glyph-name="Ibreve" unicode="&#x12c;" horiz-adv-x="261" 
d="M34 0l130 655h93l-130 -655h-93zM221 703q-49 0 -76.5 19t-38.5 48.5t-11 63.5l59 10q1 -37 19.5 -58.5t59.5 -21.5q39 0 66 22.5t40 57.5l56 -10q-10 -37 -33 -66.5t-58.5 -47t-82.5 -17.5z" />
    <glyph glyph-name="Idotaccent" unicode="&#x130;" horiz-adv-x="261" 
d="M34 0l130 655h93l-130 -655h-93zM229 712q-21 0 -38 13.5t-17 37.5q0 26 19.5 45t45.5 19q22 0 38.5 -13.5t16.5 -37.5q0 -28 -19 -46t-46 -18z" />
    <glyph glyph-name="uni01CF" unicode="&#x1cf;" horiz-adv-x="261" 
d="M34 0l130 655h93l-130 -655h-93zM177 706l-102 140h78l71 -75h4l110 75h80l-155 -140h-86z" />
    <glyph glyph-name="uni0208" unicode="&#x208;" horiz-adv-x="261" 
d="M34 0l130 655h93l-130 -655h-93zM93 705l-108 129l6 11h91l77 -140h-66zM283 705l-108 129l5 11h92l77 -140h-66z" />
    <glyph glyph-name="Iogonek" unicode="&#x12e;" horiz-adv-x="261" 
d="M42 -221q-38 0 -64 20t-26 56q0 28 15.5 55t38.5 50.5t47 39.5h-20l131 655h93l-131 -655q-39 -23 -64 -53.5t-25 -60.5q0 -18 12 -28t29 -10q22 0 43 14l21 -49q-21 -16 -46.5 -25t-53.5 -9z" />
    <glyph glyph-name="uni1EC8" unicode="&#x1ec8;" horiz-adv-x="261" 
d="M34 0l130 655h93l-130 -655h-93zM175 701l-4 44q63 13 63 49q0 17 -18 26.5t-55 9.5l15 56q45 0 74.5 -9.5t44.5 -26t15 -38.5q0 -43 -35 -72t-100 -39z" />
    <glyph glyph-name="uni1ECA" unicode="&#x1eca;" horiz-adv-x="261" 
d="M34 0l130 655h93l-130 -655h-93zM41 -222q-21 0 -38 13t-17 37q0 27 19.5 45.5t45.5 18.5q22 0 38.5 -13.5t16.5 -37.5q0 -27 -19 -45t-46 -18z" />
    <glyph glyph-name="uni0197" unicode="&#x197;" horiz-adv-x="301" 
d="M38 307l14 66l77 6h166l-14 -72h-243zM54 0l130 655h93l-130 -655h-93z" />
    <glyph glyph-name="IJ" unicode="&#x132;" horiz-adv-x="521" 
d="M230 -168q-21 0 -40 4t-40 15l29 68q13 -6 23 -9t22 -3q27 0 44 22.5t25 65.5l132 660h93l-132 -660q-10 -48 -29 -85t-50 -57.5t-77 -20.5zM33 0l131 655h93l-131 -655h-93z" />
    <glyph glyph-name="Jcircumflex" unicode="&#x134;" horiz-adv-x="465" 
d="M164 -12q-59 0 -102 27t-64 78l56 45q16 -33 42.5 -51.5t66.5 -18.5q48 0 77.5 35.5t42.5 100.5l90 451h94l-94 -466q-10 -57 -36.5 -102.5t-69.5 -72t-103 -26.5zM264 705l155 140h83l105 -140h-78l-73 75h-4l-108 -75h-80z" />
    <glyph glyph-name="uni004A030C" horiz-adv-x="465" 
d="M164 -12q-59 0 -102 27t-64 78l56 45q16 -33 42.5 -51.5t66.5 -18.5q48 0 77.5 35.5t42.5 100.5l90 451h94l-94 -466q-10 -57 -36.5 -102.5t-69.5 -72t-103 -26.5zM391 705l-102 140h78l71 -75h4l110 75h80l-155 -140h-86z" />
    <glyph glyph-name="uni0248" unicode="&#x248;" horiz-adv-x="486" 
d="M186 322l14 66l115 5h171l-14 -71h-286zM164 -12q-59 0 -102 27t-64 78l56 45q16 -33 42.5 -51.5t66.5 -18.5q48 0 77.5 35.5t42.5 100.5l90 451h94l-94 -466q-10 -57 -36.5 -102.5t-69.5 -72t-103 -26.5z" />
    <glyph glyph-name="uni0136" unicode="&#x136;" horiz-adv-x="566" 
d="M33 0l131 655h93l-61 -310h3l307 310h104l-244 -255l149 -400h-98l-120 341l-127 -128l-44 -213h-93zM150 -226l-1 45q60 2 87.5 15.5t27.5 34.5q0 16 -14 26t-47 11l26 42q46 -4 70 -13t32.5 -22.5t8.5 -32.5q0 -34 -24 -57t-67 -35t-99 -14z" />
    <glyph glyph-name="uni1E32" unicode="&#x1e32;" horiz-adv-x="566" 
d="M33 0l131 655h93l-61 -310h3l307 310h104l-244 -255l149 -400h-98l-120 341l-127 -128l-44 -213h-93zM246 -218q-21 0 -38 13t-17 37q0 27 19.5 45.5t45.5 18.5q22 0 38.5 -13.5t16.5 -37.5q0 -27 -19 -45t-46 -18z" />
    <glyph glyph-name="uni1E34" unicode="&#x1e34;" horiz-adv-x="566" 
d="M33 0l131 655h93l-61 -310h3l307 310h104l-244 -255l149 -400h-98l-120 341l-127 -128l-44 -213h-93zM121 -161l11 62h262l-11 -62h-262z" />
    <glyph glyph-name="Lacute" unicode="&#x139;" horiz-adv-x="472" 
d="M34 0l130 655h93l-115 -576h269l-16 -79h-361zM137 705l151 140h117l6 -11l-193 -129h-81z" />
    <glyph glyph-name="Lcaron" unicode="&#x13d;" horiz-adv-x="472" 
d="M34 0l130 655h93l-115 -576h269l-16 -79h-361zM375 511l40 215h63l-12 -61l-46 -154h-45z" />
    <glyph glyph-name="uni013B" unicode="&#x13b;" horiz-adv-x="472" 
d="M34 0l130 655h93l-115 -576h269l-16 -79h-361zM89 -226l-1 45q60 2 87.5 15.5t27.5 34.5q0 16 -14 26t-47 11l26 42q46 -4 70 -13t32.5 -22.5t8.5 -32.5q0 -34 -24 -57t-67 -35t-99 -14z" />
    <glyph glyph-name="uni1E36" unicode="&#x1e36;" horiz-adv-x="472" 
d="M34 0l130 655h93l-115 -576h269l-16 -79h-361zM184 -218q-21 0 -38 13t-17 37q0 27 19.5 45.5t45.5 18.5q22 0 38.5 -13.5t16.5 -37.5q0 -27 -19 -45t-46 -18z" />
    <glyph glyph-name="uni1E38" unicode="&#x1e38;" horiz-adv-x="472" 
d="M34 0l130 655h93l-115 -576h269l-16 -79h-361zM103 732l12 63h264l-12 -63h-264zM184 -218q-21 0 -38 13t-17 37q0 27 19.5 45.5t45.5 18.5q22 0 38.5 -13.5t16.5 -37.5q0 -27 -19 -45t-46 -18z" />
    <glyph glyph-name="uni1E3A" unicode="&#x1e3a;" horiz-adv-x="472" 
d="M34 0l130 655h93l-115 -576h269l-16 -79h-361zM59 -161l11 62h262l-11 -62h-262z" />
    <glyph glyph-name="Lslash" unicode="&#x141;" horiz-adv-x="491" 
d="M18 207l-26 66l134 56l85 36l182 74l24 -67l-222 -88l-85 -37zM53 0l131 655h93l-115 -576h269l-16 -79h-362z" />
    <glyph glyph-name="uni023D" unicode="&#x23d;" horiz-adv-x="492" 
d="M42 322l14 66l78 5h256l-14 -71h-334zM54 0l130 655h93l-115 -576h269l-16 -79h-361z" />
    <glyph glyph-name="uni2C60" unicode="&#x2c60;" horiz-adv-x="492" 
d="M32 266l11 51l78 6h255l-12 -57h-332zM55 390l11 52l78 5h258l-13 -57h-334zM54 0l130 655h93l-115 -576h269l-16 -79h-361z" />
    <glyph glyph-name="uni2C62" unicode="&#x2c62;" horiz-adv-x="517" 
d="M338 285q-36 0 -65 12.5t-54.5 28t-50.5 27.5t-54 12q-21 0 -34.5 -19.5t-21.5 -52.5l-52 14q8 35 22 61.5t36 41.5t51 15q36 0 65 -12t54.5 -28t51 -28t53.5 -12q22 0 35 20t21 52l52 -14q-8 -34 -22 -60.5t-36 -42t-51 -15.5zM79 0l131 655h93l-115 -577h268l-15 -78
h-362z" />
    <glyph glyph-name="uniA7AD" unicode="&#xa7ad;" horiz-adv-x="515" 
d="M127 271q-57 0 -87 27.5t-30 70.5q0 23 10.5 44t29.5 34.5t45 13.5q36 0 55 -18.5t26 -43t7 -46.5l-36 -4q0 22 -9 41t-36 19q-16 0 -25 -8.5t-9 -23.5q0 -16 14.5 -25t42.5 -9h266l-14 -72h-250zM77 0l130 655h94l-115 -576h268l-15 -79h-362z" />
    <glyph glyph-name="Ldot" unicode="&#x13f;" horiz-adv-x="472" 
d="M34 0l130 655h93l-115 -576h269l-16 -79h-361zM375 261q-24 0 -38.5 16t-14.5 40q0 19 10 37t26.5 29.5t38.5 11.5q25 0 38.5 -16t13.5 -41q0 -19 -9.5 -36.5t-26 -29t-38.5 -11.5z" />
    <glyph glyph-name="uni1E3E" unicode="&#x1e3e;" horiz-adv-x="714" 
d="M34 0l130 655h113l50 -341q5 -32 8.5 -64.5t8.5 -66.5h4q15 34 30 66.5t33 64.5l184 341h115l-131 -655h-88l70 342q7 31 16 67.5t18.5 73t19.5 66.5h-4l-78 -158l-175 -325h-68l-52 325l-19 158h-4q-3 -31 -6.5 -67.5t-8.5 -73t-10 -66.5l-68 -342h-88zM346 705l151 140
h117l6 -11l-193 -129h-81z" />
    <glyph glyph-name="uni1E40" unicode="&#x1e40;" horiz-adv-x="714" 
d="M34 0l130 655h113l50 -341q5 -32 8.5 -64.5t8.5 -66.5h4q15 34 30 66.5t33 64.5l184 341h115l-131 -655h-88l70 342q7 31 16 67.5t18.5 73t19.5 66.5h-4l-78 -158l-175 -325h-68l-52 325l-19 158h-4q-3 -31 -6.5 -67.5t-8.5 -73t-10 -66.5l-68 -342h-88zM446 712
q-21 0 -38 13.5t-17 37.5q0 26 19.5 45t45.5 19q22 0 38.5 -13.5t16.5 -37.5q0 -28 -19 -46t-46 -18z" />
    <glyph glyph-name="uni1E42" unicode="&#x1e42;" horiz-adv-x="714" 
d="M34 0l130 655h113l50 -341q5 -32 8.5 -64.5t8.5 -66.5h4q15 34 30 66.5t33 64.5l184 341h115l-131 -655h-88l70 342q7 31 16 67.5t18.5 73t19.5 66.5h-4l-78 -158l-175 -325h-68l-52 325l-19 158h-4q-3 -31 -6.5 -67.5t-8.5 -73t-10 -66.5l-68 -342h-88zM274 -222
q-21 0 -38 13t-17 37q0 27 19.5 45.5t45.5 18.5q22 0 38.5 -13.5t16.5 -37.5q0 -27 -19 -45t-46 -18z" />
    <glyph glyph-name="uni01F8" unicode="&#x1f8;" horiz-adv-x="625" 
d="M34 0l130 655h97l136 -398q5 -14 12 -38t14 -51.5t11 -50.5h4q6 52 13.5 107.5t16.5 107.5l64 323h90l-131 -655h-96l-135 398q-7 21 -18.5 61.5t-19.5 81.5h-4q-5 -52 -13 -107.5t-18 -107.5l-64 -326h-89zM401 705l-144 129l5 11h109l109 -140h-79z" />
    <glyph glyph-name="Nacute" unicode="&#x143;" horiz-adv-x="625" 
d="M34 0l130 655h97l136 -398q5 -14 12 -38t14 -51.5t11 -50.5h4q6 52 13.5 107.5t16.5 107.5l64 323h90l-131 -655h-96l-135 398q-7 21 -18.5 61.5t-19.5 81.5h-4q-5 -52 -13 -107.5t-18 -107.5l-64 -326h-89zM315 705l151 140h117l6 -11l-193 -129h-81z" />
    <glyph glyph-name="Ncaron" unicode="&#x147;" horiz-adv-x="625" 
d="M34 0l130 655h97l136 -398q5 -14 12 -38t14 -51.5t11 -50.5h4q6 52 13.5 107.5t16.5 107.5l64 323h90l-131 -655h-96l-135 398q-7 21 -18.5 61.5t-19.5 81.5h-4q-5 -52 -13 -107.5t-18 -107.5l-64 -326h-89zM363 706l-102 140h78l71 -75h4l110 75h80l-155 -140h-86z" />
    <glyph glyph-name="Ntilde" unicode="&#xd1;" horiz-adv-x="625" 
d="M34 0l130 655h97l136 -398q5 -14 12 -38t14 -51.5t11 -50.5h4q6 52 13.5 107.5t16.5 107.5l64 323h90l-131 -655h-96l-135 398q-7 21 -18.5 61.5t-19.5 81.5h-4q-5 -52 -13 -107.5t-18 -107.5l-64 -326h-89zM481 705q-25 0 -43.5 10t-32 23.5t-26 24t-28.5 10.5
q-18 0 -32.5 -15.5t-23.5 -47.5l-64 5q14 64 48.5 96.5t81.5 32.5q26 0 44 -10.5t31.5 -24t26 -24t28.5 -10.5q18 0 32.5 16t23.5 47l64 -5q-13 -63 -48 -95.5t-82 -32.5z" />
    <glyph glyph-name="uni1E44" unicode="&#x1e44;" horiz-adv-x="625" 
d="M34 0l130 655h97l136 -398q5 -14 12 -38t14 -51.5t11 -50.5h4q6 52 13.5 107.5t16.5 107.5l64 323h90l-131 -655h-96l-135 398q-7 21 -18.5 61.5t-19.5 81.5h-4q-5 -52 -13 -107.5t-18 -107.5l-64 -326h-89zM415 712q-21 0 -38 13.5t-17 37.5q0 26 19.5 45t45.5 19
q22 0 38.5 -13.5t16.5 -37.5q0 -28 -19 -46t-46 -18z" />
    <glyph glyph-name="uni0145" unicode="&#x145;" horiz-adv-x="625" 
d="M34 0l130 655h97l136 -398q5 -14 12 -38t14 -51.5t11 -50.5h4q6 52 13.5 107.5t16.5 107.5l64 323h90l-131 -655h-96l-135 398q-7 21 -18.5 61.5t-19.5 81.5h-4q-5 -52 -13 -107.5t-18 -107.5l-64 -326h-89zM138 -230l-1 45q60 2 87.5 15.5t27.5 34.5q0 16 -14 26t-47 11
l26 42q46 -4 70 -13t32.5 -22.5t8.5 -32.5q0 -34 -24 -57t-67 -35t-99 -14z" />
    <glyph glyph-name="uni1E46" unicode="&#x1e46;" horiz-adv-x="625" 
d="M34 0l130 655h97l136 -398q5 -14 12 -38t14 -51.5t11 -50.5h4q6 52 13.5 107.5t16.5 107.5l64 323h90l-131 -655h-96l-135 398q-7 21 -18.5 61.5t-19.5 81.5h-4q-5 -52 -13 -107.5t-18 -107.5l-64 -326h-89zM233 -222q-21 0 -38 13t-17 37q0 27 19.5 45.5t45.5 18.5
q22 0 38.5 -13.5t16.5 -37.5q0 -27 -19 -45t-46 -18z" />
    <glyph glyph-name="uni1E48" unicode="&#x1e48;" horiz-adv-x="625" 
d="M34 0l130 655h97l136 -398q5 -14 12 -38t14 -51.5t11 -50.5h4q6 52 13.5 107.5t16.5 107.5l64 323h90l-131 -655h-96l-135 398q-7 21 -18.5 61.5t-19.5 81.5h-4q-5 -52 -13 -107.5t-18 -107.5l-64 -326h-89zM108 -165l11 62h262l-11 -62h-262z" />
    <glyph glyph-name="Eng" unicode="&#x14a;" horiz-adv-x="621" 
d="M349 -12q-21 0 -44.5 5t-37.5 15l28 71q10 -6 21.5 -8.5t24.5 -2.5q31 0 60 31.5t52 84t36.5 116.5t13.5 129q0 58 -14 92.5t-38 50t-57 15.5q-35 0 -80.5 -25t-90.5 -76l-97 -486h-93l131 655h88l-16 -80q29 29 60.5 49.5t63 31.5t62.5 11q51 0 91 -23t62.5 -74
t22.5 -133q0 -87 -18.5 -167.5t-51 -144t-78 -100.5t-101.5 -37z" />
    <glyph glyph-name="uni0220" unicode="&#x220;" horiz-adv-x="634" 
d="M372 -182l111 547q5 28 9.5 54.5t4.5 51.5q0 62 -28.5 89t-76.5 27q-34 0 -79.5 -23.5t-88.5 -77.5l-98 -486h-93l131 655h88l-14 -77q44 44 95 66.5t96 22.5q76 0 119.5 -41.5t43.5 -130.5q0 -26 -3 -56.5t-10 -64.5l-113 -556h-94z" />
    <glyph glyph-name="Ograve" unicode="&#xd2;" horiz-adv-x="640" 
d="M290 -12q-73 0 -124.5 34t-79 96t-27.5 145q0 63 15.5 122t44.5 110.5t69 89.5t89 60t105 22q73 0 125 -33.5t79 -95.5t27 -146q0 -62 -15.5 -121t-44.5 -110.5t-69 -90t-89 -60.5t-105 -22zM295 68q39 0 73 18t61.5 49.5t47.5 72t30.5 86t10.5 91.5q0 61 -15 106.5
t-47 70.5t-80 25q-38 0 -72 -18t-61.5 -49.5t-47 -72t-30.5 -86t-11 -91.5q0 -61 15.5 -106t46.5 -70.5t79 -25.5zM406 705l-144 129l5 11h109l109 -140h-79z" />
    <glyph glyph-name="Oacute" unicode="&#xd3;" horiz-adv-x="640" 
d="M290 -12q-73 0 -124.5 34t-79 96t-27.5 145q0 63 15.5 122t44.5 110.5t69 89.5t89 60t105 22q73 0 125 -33.5t79 -95.5t27 -146q0 -62 -15.5 -121t-44.5 -110.5t-69 -90t-89 -60.5t-105 -22zM295 68q39 0 73 18t61.5 49.5t47.5 72t30.5 86t10.5 91.5q0 61 -15 106.5
t-47 70.5t-80 25q-38 0 -72 -18t-61.5 -49.5t-47 -72t-30.5 -86t-11 -91.5q0 -61 15.5 -106t46.5 -70.5t79 -25.5zM320 705l151 140h117l6 -11l-193 -129h-81z" />
    <glyph glyph-name="Ocircumflex" unicode="&#xd4;" horiz-adv-x="640" 
d="M290 -12q-73 0 -124.5 34t-79 96t-27.5 145q0 63 15.5 122t44.5 110.5t69 89.5t89 60t105 22q73 0 125 -33.5t79 -95.5t27 -146q0 -62 -15.5 -121t-44.5 -110.5t-69 -90t-89 -60.5t-105 -22zM295 68q39 0 73 18t61.5 49.5t47.5 72t30.5 86t10.5 91.5q0 61 -15 106.5
t-47 70.5t-80 25q-38 0 -72 -18t-61.5 -49.5t-47 -72t-30.5 -86t-11 -91.5q0 -61 15.5 -106t46.5 -70.5t79 -25.5zM241 706l155 140h83l105 -140h-78l-73 75h-4l-108 -75h-80z" />
    <glyph glyph-name="Otilde" unicode="&#xd5;" horiz-adv-x="640" 
d="M290 -12q-73 0 -124.5 34t-79 96t-27.5 145q0 63 15.5 122t44.5 110.5t69 89.5t89 60t105 22q73 0 125 -33.5t79 -95.5t27 -146q0 -62 -15.5 -121t-44.5 -110.5t-69 -90t-89 -60.5t-105 -22zM295 68q39 0 73 18t61.5 49.5t47.5 72t30.5 86t10.5 91.5q0 61 -15 106.5
t-47 70.5t-80 25q-38 0 -72 -18t-61.5 -49.5t-47 -72t-30.5 -86t-11 -91.5q0 -61 15.5 -106t46.5 -70.5t79 -25.5zM486 705q-25 0 -43.5 10t-32 23.5t-26 24t-28.5 10.5q-18 0 -32.5 -15.5t-23.5 -47.5l-64 5q14 64 48.5 96.5t81.5 32.5q26 0 44 -10.5t31.5 -24t26 -24
t28.5 -10.5q18 0 32.5 16t23.5 47l64 -5q-13 -63 -48 -95.5t-82 -32.5z" />
    <glyph glyph-name="Odieresis" unicode="&#xd6;" horiz-adv-x="640" 
d="M290 -12q-73 0 -124.5 34t-79 96t-27.5 145q0 63 15.5 122t44.5 110.5t69 89.5t89 60t105 22q73 0 125 -33.5t79 -95.5t27 -146q0 -62 -15.5 -121t-44.5 -110.5t-69 -90t-89 -60.5t-105 -22zM295 68q39 0 73 18t61.5 49.5t47.5 72t30.5 86t10.5 91.5q0 61 -15 106.5
t-47 70.5t-80 25q-38 0 -72 -18t-61.5 -49.5t-47 -72t-30.5 -86t-11 -91.5q0 -61 15.5 -106t46.5 -70.5t79 -25.5zM315 711q-19 0 -32 12t-13 34q0 24 17 41.5t40 17.5q20 0 33 -12t13 -34q0 -24 -17 -41.5t-41 -17.5zM518 711q-20 0 -33 12t-13 34q0 24 17 41.5t41 17.5
q19 0 32 -12t13 -34q0 -24 -17 -41.5t-40 -17.5z" />
    <glyph glyph-name="Omacron" unicode="&#x14c;" horiz-adv-x="640" 
d="M290 -12q-73 0 -124.5 34t-79 96t-27.5 145q0 63 15.5 122t44.5 110.5t69 89.5t89 60t105 22q73 0 125 -33.5t79 -95.5t27 -146q0 -62 -15.5 -121t-44.5 -110.5t-69 -90t-89 -60.5t-105 -22zM295 68q39 0 73 18t61.5 49.5t47.5 72t30.5 86t10.5 91.5q0 61 -15 106.5
t-47 70.5t-80 25q-38 0 -72 -18t-61.5 -49.5t-47 -72t-30.5 -86t-11 -91.5q0 -61 15.5 -106t46.5 -70.5t79 -25.5zM286 732l12 63h264l-12 -63h-264z" />
    <glyph glyph-name="Obreve" unicode="&#x14e;" horiz-adv-x="640" 
d="M290 -12q-73 0 -124.5 34t-79 96t-27.5 145q0 63 15.5 122t44.5 110.5t69 89.5t89 60t105 22q73 0 125 -33.5t79 -95.5t27 -146q0 -62 -15.5 -121t-44.5 -110.5t-69 -90t-89 -60.5t-105 -22zM295 68q39 0 73 18t61.5 49.5t47.5 72t30.5 86t10.5 91.5q0 61 -15 106.5
t-47 70.5t-80 25q-38 0 -72 -18t-61.5 -49.5t-47 -72t-30.5 -86t-11 -91.5q0 -61 15.5 -106t46.5 -70.5t79 -25.5zM412 703q-49 0 -76.5 19t-38.5 48.5t-11 63.5l59 10q1 -37 19.5 -58.5t59.5 -21.5q39 0 66 22.5t40 57.5l56 -10q-10 -37 -33 -66.5t-58.5 -47t-82.5 -17.5z
" />
    <glyph glyph-name="Ohungarumlaut" unicode="&#x150;" horiz-adv-x="640" 
d="M290 -12q-73 0 -124.5 34t-79 96t-27.5 145q0 63 15.5 122t44.5 110.5t69 89.5t89 60t105 22q73 0 125 -33.5t79 -95.5t27 -146q0 -62 -15.5 -121t-44.5 -110.5t-69 -90t-89 -60.5t-105 -22zM295 68q39 0 73 18t61.5 49.5t47.5 72t30.5 86t10.5 91.5q0 61 -15 106.5
t-47 70.5t-80 25q-38 0 -72 -18t-61.5 -49.5t-47 -72t-30.5 -86t-11 -91.5q0 -61 15.5 -106t46.5 -70.5t79 -25.5zM276 705l126 140h92l6 -11l-158 -129h-66zM465 705l127 140h91l6 -11l-158 -129h-66z" />
    <glyph glyph-name="uni01D1" unicode="&#x1d1;" horiz-adv-x="640" 
d="M290 -12q-73 0 -124.5 34t-79 96t-27.5 145q0 63 15.5 122t44.5 110.5t69 89.5t89 60t105 22q73 0 125 -33.5t79 -95.5t27 -146q0 -62 -15.5 -121t-44.5 -110.5t-69 -90t-89 -60.5t-105 -22zM295 68q39 0 73 18t61.5 49.5t47.5 72t30.5 86t10.5 91.5q0 61 -15 106.5
t-47 70.5t-80 25q-38 0 -72 -18t-61.5 -49.5t-47 -72t-30.5 -86t-11 -91.5q0 -61 15.5 -106t46.5 -70.5t79 -25.5zM368 706l-102 140h78l71 -75h4l110 75h80l-155 -140h-86z" />
    <glyph glyph-name="uni020C" unicode="&#x20c;" horiz-adv-x="640" 
d="M290 -12q-73 0 -124.5 34t-79 96t-27.5 145q0 63 15.5 122t44.5 110.5t69 89.5t89 60t105 22q73 0 125 -33.5t79 -95.5t27 -146q0 -62 -15.5 -121t-44.5 -110.5t-69 -90t-89 -60.5t-105 -22zM295 68q39 0 73 18t61.5 49.5t47.5 72t30.5 86t10.5 91.5q0 61 -15 106.5
t-47 70.5t-80 25q-38 0 -72 -18t-61.5 -49.5t-47 -72t-30.5 -86t-11 -91.5q0 -61 15.5 -106t46.5 -70.5t79 -25.5zM284 705l-108 129l6 11h91l77 -140h-66zM474 705l-108 129l5 11h92l77 -140h-66z" />
    <glyph glyph-name="uni01EA" unicode="&#x1ea;" horiz-adv-x="640" 
d="M234 -221q-39 0 -65 19.5t-26 56.5q0 30 16.5 58t41 51t48.5 37l42 -13q-74 0 -125.5 34t-79 95.5t-27.5 145.5q0 63 15.5 122t44.5 110t69 89.5t89 60.5t105 22q73 0 125 -33.5t79 -95.5t27 -146q0 -66 -18.5 -132t-54.5 -122.5t-88 -95t-119 -50.5q-36 -6 -59 -25
t-34 -41t-11 -40t12 -28t29 -10q21 0 42 14l21 -49q-21 -16 -46.5 -25t-52.5 -9zM295 68q39 0 72.5 18t61.5 49.5t47.5 72t30.5 86t11 91.5q0 61 -15.5 106.5t-46.5 70.5t-79 25q-39 0 -72.5 -18t-61.5 -49.5t-47.5 -72t-30.5 -86t-11 -91.5q0 -61 15.5 -106.5t46.5 -70.5
t79 -25z" />
    <glyph glyph-name="uni1ECC" unicode="&#x1ecc;" horiz-adv-x="640" 
d="M290 -12q-73 0 -124.5 34t-79 96t-27.5 145q0 63 15.5 122t44.5 110.5t69 89.5t89 60t105 22q73 0 125 -33.5t79 -95.5t27 -146q0 -62 -15.5 -121t-44.5 -110.5t-69 -90t-89 -60.5t-105 -22zM295 68q39 0 73 18t61.5 49.5t47.5 72t30.5 86t10.5 91.5q0 61 -15 106.5
t-47 70.5t-80 25q-38 0 -72 -18t-61.5 -49.5t-47 -72t-30.5 -86t-11 -91.5q0 -61 15.5 -106t46.5 -70.5t79 -25.5zM245 -218q-21 0 -38 13t-17 37q0 27 19.5 45.5t45.5 18.5q22 0 38.5 -13.5t16.5 -37.5q0 -27 -19 -45t-46 -18z" />
    <glyph glyph-name="uni1ECE" unicode="&#x1ece;" horiz-adv-x="640" 
d="M290 -12q-73 0 -124.5 34t-79 96t-27.5 145q0 63 15.5 122t44.5 110.5t69 89.5t89 60t105 22q73 0 125 -33.5t79 -95.5t27 -146q0 -62 -15.5 -121t-44.5 -110.5t-69 -90t-89 -60.5t-105 -22zM295 68q39 0 73 18t61.5 49.5t47.5 72t30.5 86t10.5 91.5q0 61 -15 106.5
t-47 70.5t-80 25q-38 0 -72 -18t-61.5 -49.5t-47 -72t-30.5 -86t-11 -91.5q0 -61 15.5 -106t46.5 -70.5t79 -25.5zM366 701l-4 44q63 13 63 49q0 17 -18 26.5t-55 9.5l15 56q45 0 74.5 -9.5t44.5 -26t15 -38.5q0 -43 -35 -72t-100 -39z" />
    <glyph glyph-name="uni1ED0" unicode="&#x1ed0;" horiz-adv-x="640" 
d="M290 -12q-73 0 -124.5 34t-79 96t-27.5 145q0 63 15.5 122t44.5 110.5t69 89.5t89 60t105 22q73 0 125 -33.5t79 -95.5t27 -146q0 -62 -15.5 -121t-44.5 -110.5t-69 -90t-89 -60.5t-105 -22zM295 68q39 0 73 18t61.5 49.5t47.5 72t30.5 86t10.5 91.5q0 61 -15 106.5
t-47 70.5t-80 25q-38 0 -72 -18t-61.5 -49.5t-47 -72t-30.5 -86t-11 -91.5q0 -61 15.5 -106t46.5 -70.5t79 -25.5zM261 705l136 120h76l96 -120h-72l-64 65h-4l-94 -65h-74zM519 785l96 114h78l5 -10l-126 -104h-53z" />
    <glyph glyph-name="uni1ED2" unicode="&#x1ed2;" horiz-adv-x="640" 
d="M290 -12q-73 0 -124.5 34t-79 96t-27.5 145q0 63 15.5 122t44.5 110.5t69 89.5t89 60t105 22q73 0 125 -33.5t79 -95.5t27 -146q0 -62 -15.5 -121t-44.5 -110.5t-69 -90t-89 -60.5t-105 -22zM295 68q39 0 73 18t61.5 49.5t47.5 72t30.5 86t10.5 91.5q0 61 -15 106.5
t-47 70.5t-80 25q-38 0 -72 -18t-61.5 -49.5t-47 -72t-30.5 -86t-11 -91.5q0 -61 15.5 -106t46.5 -70.5t79 -25.5zM261 705l136 120h76l96 -120h-72l-64 65h-4l-94 -65h-74zM281 785l-84 104l6 10h74l54 -114h-50z" />
    <glyph glyph-name="uni1ED4" unicode="&#x1ed4;" horiz-adv-x="640" 
d="M290 -12q-73 0 -124.5 34t-79 96t-27.5 145q0 63 15.5 122t44.5 110.5t69 89.5t89 60t105 22q73 0 125 -33.5t79 -95.5t27 -146q0 -62 -15.5 -121t-44.5 -110.5t-69 -90t-89 -60.5t-105 -22zM295 68q39 0 73 18t61.5 49.5t47.5 72t30.5 86t10.5 91.5q0 61 -15 106.5
t-47 70.5t-80 25q-38 0 -72 -18t-61.5 -49.5t-47 -72t-30.5 -86t-11 -91.5q0 -61 15.5 -106t46.5 -70.5t79 -25.5zM261 705l136 120h76l96 -120h-72l-64 65h-3l-95 -65h-74zM550 774l-4 37q47 9 47 40q0 16 -15.5 22.5t-46.5 8.5l11 46q55 -1 86.5 -15t31.5 -45
q0 -37 -29.5 -61t-80.5 -33z" />
    <glyph glyph-name="uni1ED6" unicode="&#x1ed6;" horiz-adv-x="640" 
d="M290 -12q-73 0 -124.5 34t-79 96t-27.5 145q0 63 15.5 122t44.5 110.5t69 89.5t89 60t105 22q73 0 125 -33.5t79 -95.5t27 -146q0 -62 -15.5 -121t-44.5 -110.5t-69 -90t-89 -60.5t-105 -22zM295 68q39 0 73 18t61.5 49.5t47.5 72t30.5 86t10.5 91.5q0 61 -15 106.5
t-47 70.5t-80 25q-38 0 -72 -18t-61.5 -49.5t-47 -72t-30.5 -86t-11 -91.5q0 -61 15.5 -106t46.5 -70.5t79 -25.5zM318 705l15 52l74 63l117 -52l30 -63l-98 36l-26 24l-59 -36zM507 844q-29 0 -48.5 12t-36 24t-34.5 12q-17 0 -27 -11.5t-17 -32.5l-51 7q7 29 19.5 50
t31.5 33t44 12q29 0 48.5 -12t36 -24t34.5 -12q17 0 27.5 11.5t17.5 32.5l50 -7q-7 -28 -19.5 -49.5t-31.5 -33.5t-44 -12z" />
    <glyph glyph-name="uni1ED8" unicode="&#x1ed8;" horiz-adv-x="640" 
d="M290 -12q-73 0 -124.5 34t-79 96t-27.5 145q0 63 15.5 122t44.5 110.5t69 89.5t89 60t105 22q73 0 125 -33.5t79 -95.5t27 -146q0 -62 -15.5 -121t-44.5 -110.5t-69 -90t-89 -60.5t-105 -22zM295 68q39 0 73 18t61.5 49.5t47.5 72t30.5 86t10.5 91.5q0 61 -15 106.5
t-47 70.5t-80 25q-38 0 -72 -18t-61.5 -49.5t-47 -72t-30.5 -86t-11 -91.5q0 -61 15.5 -106t46.5 -70.5t79 -25.5zM241 705l155 140h83l105 -140h-78l-73 75h-4l-108 -75h-80zM245 -218q-21 0 -38 13t-17 37q0 27 19.5 45.5t45.5 18.5q22 0 38.5 -13.5t16.5 -37.5
q0 -27 -19 -45t-46 -18z" />
    <glyph glyph-name="uni1E52" unicode="&#x1e52;" horiz-adv-x="640" 
d="M290 -12q-73 0 -124.5 34t-79 96t-27.5 145q0 63 15.5 122t44.5 110.5t69 89.5t89 60t105 22q73 0 125 -33.5t79 -95.5t27 -146q0 -62 -15.5 -121t-44.5 -110.5t-69 -90t-89 -60.5t-105 -22zM295 68q39 0 73 18t61.5 49.5t47.5 72t30.5 86t10.5 91.5q0 61 -15 106.5
t-47 70.5t-80 25q-38 0 -72 -18t-61.5 -49.5t-47 -72t-30.5 -86t-11 -91.5q0 -61 15.5 -106t46.5 -70.5t79 -25.5zM285 734l12 63h264l-12 -63h-264zM380 839l105 120h88l6 -11l-137 -109h-62z" />
    <glyph glyph-name="Oslash" unicode="&#xd8;" horiz-adv-x="641" 
d="M45 -37l-53 49l644 682l51 -49zM290 -12q-73 0 -124.5 34t-79 96t-27.5 145q0 63 15.5 122t44.5 110.5t69 89.5t89 60t105 22q73 0 125 -33.5t79 -95.5t27 -146q0 -62 -15.5 -121t-44.5 -110.5t-69 -90t-89 -60.5t-105 -22zM295 68q39 0 73 18t61.5 49.5t47.5 72t30.5 86
t10.5 91.5q0 61 -15 106.5t-47 70.5t-80 25q-38 0 -72 -18t-61.5 -49.5t-47 -72t-30.5 -86t-11 -91.5q0 -61 15.5 -106t46.5 -70.5t79 -25.5z" />
    <glyph glyph-name="Oslashacute" unicode="&#x1fe;" horiz-adv-x="640" 
d="M45 -37l-53 49l644 682l51 -49zM290 -12q-73 0 -124.5 34t-79 96t-27.5 145q0 63 15.5 122t44.5 110.5t69 89.5t89 60t105 22q73 0 125 -33.5t79 -95.5t27 -146q0 -62 -15.5 -121t-44.5 -110.5t-69 -90t-89 -60.5t-105 -22zM295 68q39 0 73 18t61.5 49.5t47.5 72t30.5 86
t10.5 91.5q0 61 -15 106.5t-47 70.5t-80 25q-38 0 -72 -18t-61.5 -49.5t-47 -72t-30.5 -86t-11 -91.5q0 -61 15.5 -106t46.5 -70.5t79 -25.5zM320 705l151 140h117l6 -11l-193 -129h-81z" />
    <glyph glyph-name="OE" unicode="&#x152;" horiz-adv-x="820" 
d="M340 0q-91 0 -154 30t-95 87t-32 139q0 91 25 165t71 126t112 80t148 28h429l-16 -78h-259l-38 -195h216l-15 -78h-216l-47 -226h268l-15 -78h-382zM343 76h34l101 504h-62q-59 0 -107.5 -22t-83 -64.5t-53 -100.5t-18.5 -131q0 -60 22 -101.5t64 -63t103 -21.5z" />
    <glyph glyph-name="uni0245" unicode="&#x245;" horiz-adv-x="496" 
d="M-56 0l341 655h112l58 -655h-96l-24 353q-4 53 -7.5 107t-5.5 108h-4q-25 -53 -50 -107.5t-51 -107.5l-172 -353h-101z" />
    <glyph glyph-name="uni0186" unicode="&#x186;" horiz-adv-x="548" 
d="M201 -12q-59 0 -107.5 23t-79.5 67l47 57q27 -32 62.5 -50t82.5 -18q48 0 89.5 25t72 69t47.5 102.5t17 124.5q0 94 -35 147t-104 53q-38 0 -75 -15t-71 -43l-34 64q34 32 85 52.5t107 20.5q67 0 117 -32t77.5 -93t27.5 -150q0 -87 -24.5 -160.5t-68 -128.5t-103.5 -85
t-130 -30z" />
    <glyph glyph-name="uniA74E" unicode="&#xa74e;" horiz-adv-x="1018" 
d="M249 -12q-85 0 -137.5 62.5t-52.5 173.5q0 100 27.5 181.5t73.5 140t103 90t116 31.5q46 0 86 -20t65.5 -65.5t32.5 -121.5h-24q39 76 81.5 121.5t87.5 65.5t93 20q86 0 138 -62t52 -174q0 -100 -27.5 -181.5t-73 -140t-102.5 -90t-116 -31.5q-47 0 -86.5 20t-65.5 65.5
t-32 121.5h23q-39 -76 -81 -121.5t-87.5 -65.5t-93.5 -20zM273 68q40 0 78.5 27.5t70.5 75.5t51.5 113t19.5 139q0 77 -31 120.5t-88 43.5q-40 0 -79 -27t-71 -74.5t-51 -111t-19 -137.5q0 -79 31 -124t88 -45zM676 68q40 0 79 27t71 74.5t51 111t19 137.5q0 79 -30.5 124
t-88.5 45q-39 0 -78 -27.5t-71 -75.5t-51.5 -112.5t-19.5 -139.5q0 -76 31 -120t88 -44z" />
    <glyph glyph-name="uni0222" unicode="&#x222;" horiz-adv-x="653" 
d="M292 -12q-72 0 -127 21.5t-86 63.5t-31 104q0 48 20 86t54 66.5t76.5 45.5t86.5 24l-4 -25q-64 18 -93 58.5t-29 98.5q0 20 1 42.5t8 46.5l9 35h93l-10 -45q-5 -20 -6.5 -37.5t-1.5 -35.5q0 -61 31 -89.5t96 -28.5q37 0 66 14t51 49.5t36 102.5l15 70h91l-17 -74
q-15 -65 -37 -106.5t-54.5 -66t-78.5 -36.5l4 26q71 -19 111 -63t40 -111q0 -68 -37.5 -121t-107.5 -84t-169 -31zM301 68q62 0 109 20.5t73.5 54.5t26.5 77q0 41 -20 69.5t-55 44t-81 15.5q-62 0 -109.5 -21.5t-74.5 -57.5t-27 -82q0 -37 20 -64t56 -41.5t82 -14.5z" />
    <glyph glyph-name="Ohorn" unicode="&#x1a0;" horiz-adv-x="640" 
d="M539 600l-47 39q49 3 74.5 29.5t25.5 63.5q0 10 -2 21t-7 23l73 24q13 -31 13 -61q0 -38 -16.5 -67t-46 -46.5t-67.5 -25.5zM291 -12q-74 0 -125.5 34t-79 95.5t-27.5 145.5q0 63 15.5 122t44.5 110t69 89.5t89 60.5t105 22q73 0 125 -33.5t79 -95.5t27 -146
q0 -63 -15.5 -122t-44.5 -110t-69 -89.5t-89 -60.5t-104 -22zM295 68q39 0 72.5 18t61.5 49.5t47.5 72t30.5 86t11 91.5q0 61 -15.5 106.5t-46.5 70.5t-79 25q-39 0 -72.5 -18t-61.5 -49.5t-47.5 -72t-30.5 -86t-11 -91.5q0 -61 15.5 -106.5t46.5 -70.5t79 -25z" />
    <glyph glyph-name="uni1EDA" unicode="&#x1eda;" horiz-adv-x="640" 
d="M539 600l-47 39q49 3 74.5 29.5t25.5 63.5q0 10 -2 21t-7 23l73 24q13 -31 13 -61q0 -38 -16.5 -67t-46 -46.5t-67.5 -25.5zM291 -12q-74 0 -125.5 34t-79 95.5t-27.5 145.5q0 63 15.5 122t44.5 110t69 89.5t89 60.5t105 22q73 0 125 -33.5t79 -95.5t27 -146
q0 -63 -15.5 -122t-44.5 -110t-69 -89.5t-89 -60.5t-104 -22zM295 68q39 0 72.5 18t61.5 49.5t47.5 72t30.5 86t11 91.5q0 61 -15.5 106.5t-46.5 70.5t-79 25q-39 0 -72.5 -18t-61.5 -49.5t-47.5 -72t-30.5 -86t-11 -91.5q0 -61 15.5 -106.5t46.5 -70.5t79 -25zM319 705
l151 140h117l6 -11l-193 -129h-81z" />
    <glyph glyph-name="uni1EDC" unicode="&#x1edc;" horiz-adv-x="640" 
d="M539 600l-47 39q49 3 74.5 29.5t25.5 63.5q0 10 -2 21t-7 23l73 24q13 -31 13 -61q0 -38 -16.5 -67t-46 -46.5t-67.5 -25.5zM291 -12q-74 0 -125.5 34t-79 95.5t-27.5 145.5q0 63 15.5 122t44.5 110t69 89.5t89 60.5t105 22q73 0 125 -33.5t79 -95.5t27 -146
q0 -63 -15.5 -122t-44.5 -110t-69 -89.5t-89 -60.5t-104 -22zM295 68q39 0 72.5 18t61.5 49.5t47.5 72t30.5 86t11 91.5q0 61 -15.5 106.5t-46.5 70.5t-79 25q-39 0 -72.5 -18t-61.5 -49.5t-47.5 -72t-30.5 -86t-11 -91.5q0 -61 15.5 -106.5t46.5 -70.5t79 -25zM405 705
l-144 129l5 11h109l109 -140h-79z" />
    <glyph glyph-name="uni1EDE" unicode="&#x1ede;" horiz-adv-x="640" 
d="M539 600l-47 39q49 3 74.5 29.5t25.5 63.5q0 10 -2 21t-7 23l73 24q13 -31 13 -61q0 -38 -16.5 -67t-46 -46.5t-67.5 -25.5zM291 -12q-74 0 -125.5 34t-79 95.5t-27.5 145.5q0 63 15.5 122t44.5 110t69 89.5t89 60.5t105 22q73 0 125 -33.5t79 -95.5t27 -146
q0 -63 -15.5 -122t-44.5 -110t-69 -89.5t-89 -60.5t-104 -22zM295 68q39 0 72.5 18t61.5 49.5t47.5 72t30.5 86t11 91.5q0 61 -15.5 106.5t-46.5 70.5t-79 25q-39 0 -72.5 -18t-61.5 -49.5t-47.5 -72t-30.5 -86t-11 -91.5q0 -61 15.5 -106.5t46.5 -70.5t79 -25zM365 701
l-4 44q63 13 63 49q0 17 -18 26.5t-55 9.5l15 56q45 0 74.5 -9.5t44.5 -26t15 -38.5q0 -43 -35 -72t-100 -39z" />
    <glyph glyph-name="uni1EE0" unicode="&#x1ee0;" horiz-adv-x="640" 
d="M539 600l-47 39q49 3 74.5 29.5t25.5 63.5q0 10 -2 21t-7 23l73 24q13 -31 13 -61q0 -38 -16.5 -67t-46 -46.5t-67.5 -25.5zM291 -12q-74 0 -125.5 34t-79 95.5t-27.5 145.5q0 63 15.5 122t44.5 110t69 89.5t89 60.5t105 22q73 0 125 -33.5t79 -95.5t27 -146
q0 -63 -15.5 -122t-44.5 -110t-69 -89.5t-89 -60.5t-104 -22zM295 68q39 0 72.5 18t61.5 49.5t47.5 72t30.5 86t11 91.5q0 61 -15.5 106.5t-46.5 70.5t-79 25q-39 0 -72.5 -18t-61.5 -49.5t-47.5 -72t-30.5 -86t-11 -91.5q0 -61 15.5 -106.5t46.5 -70.5t79 -25zM448 705
q-25 0 -43.5 10t-32 23.5t-26 24t-28.5 10.5q-18 0 -32.5 -15.5t-23.5 -47.5l-64 5q14 64 48.5 96.5t81.5 32.5q26 0 44 -10.5t31.5 -24t26 -24t28.5 -10.5q18 0 32.5 16t23.5 47l64 -5q-13 -63 -48 -95.5t-82 -32.5z" />
    <glyph glyph-name="uni1EE2" unicode="&#x1ee2;" horiz-adv-x="640" 
d="M539 600l-47 39q49 3 74.5 29.5t25.5 63.5q0 10 -2 21t-7 23l73 24q13 -31 13 -61q0 -38 -16.5 -67t-46 -46.5t-67.5 -25.5zM291 -12q-74 0 -125.5 34t-79 95.5t-27.5 145.5q0 63 15.5 122t44.5 110t69 89.5t89 60.5t105 22q73 0 125 -33.5t79 -95.5t27 -146
q0 -63 -15.5 -122t-44.5 -110t-69 -89.5t-89 -60.5t-104 -22zM295 68q39 0 72.5 18t61.5 49.5t47.5 72t30.5 86t11 91.5q0 61 -15.5 106.5t-46.5 70.5t-79 25q-39 0 -72.5 -18t-61.5 -49.5t-47.5 -72t-30.5 -86t-11 -91.5q0 -61 15.5 -106.5t46.5 -70.5t79 -25zM243 -218
q-21 0 -38 13t-17 37q0 27 19.5 45.5t45.5 18.5q22 0 38.5 -13.5t16.5 -37.5q0 -27 -19 -45t-46 -18z" />
    <glyph glyph-name="uni1E56" unicode="&#x1e56;" horiz-adv-x="559" 
d="M33 0l131 655h191q62 0 109.5 -16.5t74 -52.5t26.5 -94q0 -63 -21.5 -108t-61 -73.5t-92.5 -42.5t-116 -14h-97l-51 -254h-93zM192 329h89q94 0 143 38t49 112q0 54 -35.5 78t-102.5 24h-93zM394 712q-21 0 -38 13.5t-17 37.5q0 26 19.5 45t45.5 19q22 0 38.5 -13.5
t16.5 -37.5q0 -28 -19 -46t-46 -18z" />
    <glyph glyph-name="Racute" unicode="&#x154;" horiz-adv-x="566" 
d="M33 0l131 655h186q62 0 109.5 -15.5t74 -50t26.5 -90.5q0 -58 -21.5 -101t-59.5 -72t-87.5 -43.5t-104.5 -14.5h-107l-54 -268h-93zM195 343h91q89 0 135.5 38.5t46.5 104.5q0 51 -35 73t-102 22h-89zM386 0l-108 288l70 56l138 -344h-100zM288 705l151 140h117l6 -11
l-193 -129h-81z" />
    <glyph glyph-name="Rcaron" unicode="&#x158;" horiz-adv-x="566" 
d="M33 0l131 655h186q62 0 109.5 -15.5t74 -50t26.5 -90.5q0 -58 -21.5 -101t-59.5 -72t-87.5 -43.5t-104.5 -14.5h-107l-54 -268h-93zM195 343h91q89 0 135.5 38.5t46.5 104.5q0 51 -35 73t-102 22h-89zM386 0l-108 288l70 56l138 -344h-100zM336 706l-102 140h78l71 -75h4
l110 75h80l-155 -140h-86z" />
    <glyph glyph-name="uni1E58" unicode="&#x1e58;" horiz-adv-x="566" 
d="M33 0l131 655h186q62 0 109.5 -15.5t74 -50t26.5 -90.5q0 -58 -21.5 -101t-59.5 -72t-87.5 -43.5t-104.5 -14.5h-107l-54 -268h-93zM195 343h91q89 0 135.5 38.5t46.5 104.5q0 51 -35 73t-102 22h-89zM386 0l-108 288l70 56l138 -344h-100zM389 712q-21 0 -38 13.5
t-17 37.5q0 26 19.5 45t45.5 19q22 0 38.5 -13.5t16.5 -37.5q0 -28 -19 -46t-46 -18z" />
    <glyph glyph-name="uni0156" unicode="&#x156;" horiz-adv-x="566" 
d="M33 0l131 655h186q62 0 109.5 -15.5t74 -50t26.5 -90.5q0 -58 -21.5 -101t-59.5 -72t-87.5 -43.5t-104.5 -14.5h-107l-54 -268h-93zM195 343h91q89 0 135.5 38.5t46.5 104.5q0 51 -35 73t-102 22h-89zM386 0l-108 288l70 56l138 -344h-100zM134 -230l-1 45
q60 2 87.5 15.5t27.5 34.5q0 16 -14 26t-47 11l26 42q46 -4 70 -13t32.5 -22.5t8.5 -32.5q0 -34 -24 -57t-67 -35t-99 -14z" />
    <glyph glyph-name="uni1E5A" unicode="&#x1e5a;" horiz-adv-x="566" 
d="M33 0l131 655h186q62 0 109.5 -15.5t74 -50t26.5 -90.5q0 -58 -21.5 -101t-59.5 -72t-87.5 -43.5t-104.5 -14.5h-107l-54 -268h-93zM195 343h91q89 0 135.5 38.5t46.5 104.5q0 51 -35 73t-102 22h-89zM386 0l-108 288l70 56l138 -344h-100zM229 -222q-21 0 -38 13t-17 37
q0 27 19.5 45.5t45.5 18.5q22 0 38.5 -13.5t16.5 -37.5q0 -27 -19 -45t-46 -18z" />
    <glyph glyph-name="uni1E5C" unicode="&#x1e5c;" horiz-adv-x="566" 
d="M33 0l131 655h186q62 0 109.5 -15.5t74 -50t26.5 -90.5q0 -58 -21.5 -101t-59.5 -72t-87.5 -43.5t-104.5 -14.5h-107l-54 -268h-93zM195 343h91q89 0 135.5 38.5t46.5 104.5q0 51 -35 73t-102 22h-89zM386 0l-108 288l70 56l138 -344h-100zM254 732l12 63h264l-12 -63
h-264zM229 -222q-21 0 -38 13t-17 37q0 27 19.5 45.5t45.5 18.5q22 0 38.5 -13.5t16.5 -37.5q0 -27 -19 -45t-46 -18z" />
    <glyph glyph-name="uni1E5E" unicode="&#x1e5e;" horiz-adv-x="566" 
d="M33 0l131 655h186q62 0 109.5 -15.5t74 -50t26.5 -90.5q0 -58 -21.5 -101t-59.5 -72t-87.5 -43.5t-104.5 -14.5h-107l-54 -268h-93zM195 343h91q89 0 135.5 38.5t46.5 104.5q0 51 -35 73t-102 22h-89zM386 0l-108 288l70 56l138 -344h-100zM104 -165l11 62h262l-11 -62
h-262z" />
    <glyph glyph-name="Sacute" unicode="&#x15a;" horiz-adv-x="512" 
d="M233 -12q-64 0 -121.5 29t-97.5 88l58 52q30 -41 73.5 -65t97.5 -24q36 0 64.5 13.5t45 37.5t16.5 57q0 36 -21.5 59.5t-58.5 45.5l-71 42q-42 26 -72 63.5t-30 93.5q0 51 27.5 93.5t75 68t106.5 25.5q58 0 107.5 -26.5t79.5 -68.5l-55 -54q-25 30 -59 49.5t-77 19.5
q-35 0 -59 -14t-37 -36t-13 -46q0 -36 23.5 -57.5t60.5 -44.5l72 -43q48 -29 72.5 -64t24.5 -90q0 -59 -29.5 -105t-81.5 -72.5t-121 -26.5zM262 704l151 140h117l6 -11l-193 -129h-81z" />
    <glyph glyph-name="Scircumflex" unicode="&#x15c;" horiz-adv-x="512" 
d="M233 -12q-64 0 -121.5 29t-97.5 88l58 52q30 -41 73.5 -65t97.5 -24q36 0 64.5 13.5t45 37.5t16.5 57q0 36 -21.5 59.5t-58.5 45.5l-71 42q-42 26 -72 63.5t-30 93.5q0 51 27.5 93.5t75 68t106.5 25.5q58 0 107.5 -26.5t79.5 -68.5l-55 -54q-25 30 -59 49.5t-77 19.5
q-35 0 -59 -14t-37 -36t-13 -46q0 -36 23.5 -57.5t60.5 -44.5l72 -43q48 -29 72.5 -64t24.5 -90q0 -59 -29.5 -105t-81.5 -72.5t-121 -26.5zM183 705l155 140h83l105 -140h-78l-73 75h-4l-108 -75h-80z" />
    <glyph glyph-name="uni1E60" unicode="&#x1e60;" horiz-adv-x="512" 
d="M233 -12q-64 0 -121.5 29t-97.5 88l58 52q30 -41 73.5 -65t97.5 -24q36 0 64.5 13.5t45 37.5t16.5 57q0 36 -21.5 59.5t-58.5 45.5l-71 42q-42 26 -72 63.5t-30 93.5q0 51 27.5 93.5t75 68t106.5 25.5q58 0 107.5 -26.5t79.5 -68.5l-55 -54q-25 30 -59 49.5t-77 19.5
q-35 0 -59 -14t-37 -36t-13 -46q0 -36 23.5 -57.5t60.5 -44.5l72 -43q48 -29 72.5 -64t24.5 -90q0 -59 -29.5 -105t-81.5 -72.5t-121 -26.5zM362 711q-21 0 -38 13.5t-17 37.5q0 26 19.5 45t45.5 19q22 0 38.5 -13.5t16.5 -37.5q0 -28 -19 -46t-46 -18z" />
    <glyph glyph-name="Scaron" unicode="&#x160;" horiz-adv-x="512" 
d="M233 -12q-64 0 -121.5 29t-97.5 88l58 52q30 -41 73.5 -65t97.5 -24q36 0 64.5 13.5t45 37.5t16.5 57q0 36 -21.5 59.5t-58.5 45.5l-71 42q-42 26 -72 63.5t-30 93.5q0 51 27.5 93.5t75 68t106.5 25.5q58 0 107.5 -26.5t79.5 -68.5l-55 -54q-25 30 -59 49.5t-77 19.5
q-35 0 -59 -14t-37 -36t-13 -46q0 -36 23.5 -57.5t60.5 -44.5l72 -43q48 -29 72.5 -64t24.5 -90q0 -59 -29.5 -105t-81.5 -72.5t-121 -26.5zM310 705l-102 140h78l71 -75h4l110 75h80l-155 -140h-86z" />
    <glyph glyph-name="uni015E" unicode="&#x15e;" horiz-adv-x="512" 
d="M233 -12q-64 0 -121.5 29t-97.5 88l58 52q30 -41 73.5 -65t97.5 -24q36 0 64.5 13.5t45 37.5t16.5 57q0 36 -21.5 59.5t-58.5 45.5l-71 42q-42 26 -72 63.5t-30 93.5q0 51 27.5 93.5t75 68t106.5 25.5q58 0 107.5 -26.5t79.5 -68.5l-55 -54q-25 30 -59 49.5t-77 19.5
q-35 0 -59 -14t-37 -36t-13 -46q0 -36 23.5 -57.5t60.5 -44.5l72 -43q48 -29 72.5 -64t24.5 -90q0 -59 -29.5 -105t-81.5 -72.5t-121 -26.5zM92 -230l-1 45q60 2 87.5 15t29.5 36q1 19 -14.5 29t-54.5 14l61 94h62l-41 -67q37 -9 50.5 -24t10.5 -42q-5 -48 -55.5 -72.5
t-134.5 -27.5z" />
    <glyph glyph-name="uni0218" unicode="&#x218;" horiz-adv-x="512" 
d="M233 -12q-64 0 -121.5 29t-97.5 88l58 52q30 -41 73.5 -65t97.5 -24q36 0 64.5 13.5t45 37.5t16.5 57q0 36 -21.5 59.5t-58.5 45.5l-71 42q-42 26 -72 63.5t-30 93.5q0 51 27.5 93.5t75 68t106.5 25.5q58 0 107.5 -26.5t79.5 -68.5l-55 -54q-25 30 -59 49.5t-77 19.5
q-35 0 -59 -14t-37 -36t-13 -46q0 -36 23.5 -57.5t60.5 -44.5l72 -43q48 -29 72.5 -64t24.5 -90q0 -59 -29.5 -105t-81.5 -72.5t-121 -26.5zM90 -230l-1 45q60 2 87.5 15.5t27.5 34.5q0 16 -14 26t-47 11l26 42q46 -4 70 -13t32.5 -22.5t8.5 -32.5q0 -34 -24 -57t-67 -35
t-99 -14z" />
    <glyph glyph-name="uni1E62" unicode="&#x1e62;" horiz-adv-x="512" 
d="M233 -12q-64 0 -121.5 29t-97.5 88l58 52q30 -41 73.5 -65t97.5 -24q36 0 64.5 13.5t45 37.5t16.5 57q0 36 -21.5 59.5t-58.5 45.5l-71 42q-42 26 -72 63.5t-30 93.5q0 51 27.5 93.5t75 68t106.5 25.5q58 0 107.5 -26.5t79.5 -68.5l-55 -54q-25 30 -59 49.5t-77 19.5
q-35 0 -59 -14t-37 -36t-13 -46q0 -36 23.5 -57.5t60.5 -44.5l72 -43q48 -29 72.5 -64t24.5 -90q0 -59 -29.5 -105t-81.5 -72.5t-121 -26.5zM185 -222q-21 0 -38 13t-17 37q0 27 19.5 45.5t45.5 18.5q22 0 38.5 -13.5t16.5 -37.5q0 -27 -19 -45t-46 -18z" />
    <glyph glyph-name="uni1E66" unicode="&#x1e66;" horiz-adv-x="512" 
d="M233 -12q-64 0 -121.5 29t-97.5 88l58 52q30 -41 73.5 -65t97.5 -24q36 0 64.5 13.5t45 37.5t16.5 57q0 36 -21.5 59.5t-58.5 45.5l-71 42q-42 26 -72 63.5t-30 93.5q0 51 27.5 93.5t75 68t106.5 25.5q58 0 107.5 -26.5t79.5 -68.5l-55 -54q-25 30 -59 49.5t-77 19.5
q-35 0 -59 -14t-37 -36t-13 -46q0 -36 23.5 -57.5t60.5 -44.5l72 -43q48 -29 72.5 -64t24.5 -90q0 -59 -29.5 -105t-81.5 -72.5t-121 -26.5zM378 836q-20 0 -35 12t-15 34q0 25 18 43t42 18q20 0 35 -12.5t15 -35.5q0 -26 -17.5 -42.5t-42.5 -16.5zM310 705l-96 120h68
l73 -69h4l114 69h69l-146 -120h-86z" />
    <glyph glyph-name="uni1E9E" unicode="&#x1e9e;" horiz-adv-x="643" 
d="M400 -12q-52 0 -97.5 20.5t-77.5 64.5l48 52q21 -29 50.5 -45t69.5 -16q31 0 56 15t40 40.5t15 56.5q0 26 -15 51t-49.5 46.5t-91.5 36.5l6 57l157 140q-15 46 -48 67.5t-81 21.5q-64 0 -110 -46.5t-65 -138.5l-81 -411h-93l87 434q14 68 47.5 121.5t88 85t132.5 31.5
q56 0 101 -18.5t74.5 -57.5t39.5 -102l-157 -137q73 -25 113 -70.5t40 -101.5q0 -55 -25 -100t-70 -71t-104 -26z" />
    <glyph glyph-name="Tcaron" unicode="&#x164;" horiz-adv-x="515" 
d="M161 0l115 576h-186l16 79h465l-16 -79h-186l-114 -576h-94zM303 706l-102 140h78l71 -75h4l110 75h80l-155 -140h-86z" />
    <glyph glyph-name="uni1E6A" unicode="&#x1e6a;" horiz-adv-x="515" 
d="M161 0l115 576h-186l16 79h465l-16 -79h-186l-114 -576h-94zM356 712q-21 0 -38 13.5t-17 37.5q0 26 19.5 45t45.5 19q22 0 38.5 -13.5t16.5 -37.5q0 -28 -19 -46t-46 -18z" />
    <glyph glyph-name="uni0162" unicode="&#x162;" horiz-adv-x="515" 
d="M161 0l115 576h-186l16 79h465l-16 -79h-186l-114 -576h-94zM74 -230l-1 45q60 2 87.5 15t29.5 36q1 19 -14.5 29t-54.5 14l61 94h62l-41 -67q37 -9 50.5 -24t10.5 -42q-5 -48 -55.5 -72.5t-134.5 -27.5z" />
    <glyph glyph-name="uni021A" unicode="&#x21a;" horiz-adv-x="515" 
d="M161 0l115 576h-186l16 79h465l-16 -79h-186l-114 -576h-94zM80 -226l-1 45q60 2 87.5 15.5t27.5 34.5q0 16 -14 26t-47 11l26 42q46 -4 70 -13t32.5 -22.5t8.5 -32.5q0 -34 -24 -57t-67 -35t-99 -14z" />
    <glyph glyph-name="uni1E6C" unicode="&#x1e6c;" horiz-adv-x="515" 
d="M161 0l115 576h-186l16 79h465l-16 -79h-186l-114 -576h-94zM175 -218q-21 0 -38 13t-17 37q0 27 19.5 45.5t45.5 18.5q22 0 38.5 -13.5t16.5 -37.5q0 -27 -19 -45t-46 -18z" />
    <glyph glyph-name="uni1E6E" unicode="&#x1e6e;" horiz-adv-x="515" 
d="M161 0l115 576h-186l16 79h465l-16 -79h-186l-114 -576h-94zM50 -161l11 62h262l-11 -62h-262z" />
    <glyph glyph-name="uni1E97.c" horiz-adv-x="515" 
d="M161 0l115 576h-186l16 79h465l-16 -79h-186l-114 -576h-94zM250 711q-19 0 -32 12t-13 34q0 24 17 41.5t40 17.5q20 0 33 -12t13 -34q0 -24 -17 -41.5t-41 -17.5zM453 711q-20 0 -33 12t-13 34q0 24 17 41.5t41 17.5q19 0 32 -12t13 -34q0 -24 -17 -41.5t-40 -17.5z" />
    <glyph glyph-name="Tbar" unicode="&#x166;" horiz-adv-x="515" 
d="M97 293l14 66l92 5h246l-14 -71h-338zM161 0l115 576h-186l16 79h465l-16 -79h-186l-114 -576h-94z" />
    <glyph glyph-name="uni023E" unicode="&#x23e;" horiz-adv-x="515" 
d="M5 -35l-28 25l614 710l28 -24zM161 0l115 576h-186l16 79h465l-16 -79h-186l-114 -576h-94z" />
    <glyph glyph-name="Ugrave" unicode="&#xd9;" horiz-adv-x="623" 
d="M291 -12q-104 0 -158.5 53.5t-54.5 158.5q0 22 3.5 46.5t7.5 49.5l72 359h93l-74 -370q-4 -22 -6.5 -41t-2.5 -37q0 -67 30 -103t94 -36q37 0 67.5 17t53 58.5t37.5 115.5l79 396h91l-80 -397q-20 -101 -55.5 -160t-84.5 -84.5t-112 -25.5zM396 705l-144 129l5 11h109
l109 -140h-79z" />
    <glyph glyph-name="Uacute" unicode="&#xda;" horiz-adv-x="623" 
d="M291 -12q-104 0 -158.5 53.5t-54.5 158.5q0 22 3.5 46.5t7.5 49.5l72 359h93l-74 -370q-4 -22 -6.5 -41t-2.5 -37q0 -67 30 -103t94 -36q37 0 67.5 17t53 58.5t37.5 115.5l79 396h91l-80 -397q-20 -101 -55.5 -160t-84.5 -84.5t-112 -25.5zM310 705l151 140h117l6 -11
l-193 -129h-81z" />
    <glyph glyph-name="Ucircumflex" unicode="&#xdb;" horiz-adv-x="623" 
d="M291 -12q-104 0 -158.5 53.5t-54.5 158.5q0 22 3.5 46.5t7.5 49.5l72 359h93l-74 -370q-4 -22 -6.5 -41t-2.5 -37q0 -67 30 -103t94 -36q37 0 67.5 17t53 58.5t37.5 115.5l79 396h91l-80 -397q-20 -101 -55.5 -160t-84.5 -84.5t-112 -25.5zM231 706l155 140h83l105 -140
h-78l-73 75h-4l-108 -75h-80z" />
    <glyph glyph-name="Utilde" unicode="&#x168;" horiz-adv-x="623" 
d="M291 -12q-104 0 -158.5 53.5t-54.5 158.5q0 22 3.5 46.5t7.5 49.5l72 359h93l-74 -370q-4 -22 -6.5 -41t-2.5 -37q0 -67 30 -103t94 -36q37 0 67.5 17t53 58.5t37.5 115.5l79 396h91l-80 -397q-20 -101 -55.5 -160t-84.5 -84.5t-112 -25.5zM476 705q-25 0 -43.5 10
t-32 23.5t-26 24t-28.5 10.5q-18 0 -32.5 -15.5t-23.5 -47.5l-64 5q14 64 48.5 96.5t81.5 32.5q26 0 44 -10.5t31.5 -24t26 -24t28.5 -10.5q18 0 32.5 16t23.5 47l64 -5q-13 -63 -48 -95.5t-82 -32.5z" />
    <glyph glyph-name="Udieresis" unicode="&#xdc;" horiz-adv-x="623" 
d="M291 -12q-104 0 -158.5 53.5t-54.5 158.5q0 22 3.5 46.5t7.5 49.5l72 359h93l-74 -370q-4 -22 -6.5 -41t-2.5 -37q0 -67 30 -103t94 -36q37 0 67.5 17t53 58.5t37.5 115.5l79 396h91l-80 -397q-20 -101 -55.5 -160t-84.5 -84.5t-112 -25.5zM305 711q-19 0 -32 12t-13 34
q0 24 17 41.5t40 17.5q20 0 33 -12t13 -34q0 -24 -17 -41.5t-41 -17.5zM508 711q-20 0 -33 12t-13 34q0 24 17 41.5t41 17.5q19 0 32 -12t13 -34q0 -24 -17 -41.5t-40 -17.5z" />
    <glyph glyph-name="Umacron" unicode="&#x16a;" horiz-adv-x="623" 
d="M291 -12q-104 0 -158.5 53.5t-54.5 158.5q0 22 3.5 46.5t7.5 49.5l72 359h93l-74 -370q-4 -22 -6.5 -41t-2.5 -37q0 -67 30 -103t94 -36q37 0 67.5 17t53 58.5t37.5 115.5l79 396h91l-80 -397q-20 -101 -55.5 -160t-84.5 -84.5t-112 -25.5zM276 732l12 63h264l-12 -63
h-264z" />
    <glyph glyph-name="Ubreve" unicode="&#x16c;" horiz-adv-x="623" 
d="M291 -12q-104 0 -158.5 53.5t-54.5 158.5q0 22 3.5 46.5t7.5 49.5l72 359h93l-74 -370q-4 -22 -6.5 -41t-2.5 -37q0 -67 30 -103t94 -36q37 0 67.5 17t53 58.5t37.5 115.5l79 396h91l-80 -397q-20 -101 -55.5 -160t-84.5 -84.5t-112 -25.5zM402 703q-49 0 -76.5 19
t-38.5 48.5t-11 63.5l59 10q1 -37 19.5 -58.5t59.5 -21.5q39 0 66 22.5t40 57.5l56 -10q-10 -37 -33 -66.5t-58.5 -47t-82.5 -17.5z" />
    <glyph glyph-name="Uring" unicode="&#x16e;" horiz-adv-x="623" 
d="M291 -12q-104 0 -158.5 53.5t-54.5 158.5q0 22 3.5 46.5t7.5 49.5l72 359h93l-74 -370q-4 -22 -6.5 -41t-2.5 -37q0 -67 30 -103t94 -36q37 0 67.5 17t53 58.5t37.5 115.5l79 396h91l-80 -397q-20 -101 -55.5 -160t-84.5 -84.5t-112 -25.5zM409 699q-43 0 -73 19.5
t-30 62.5q0 42 35.5 71.5t86.5 29.5q43 0 73 -19.5t30 -62.5q0 -42 -35 -71.5t-87 -29.5zM411 739q24 0 41 17.5t17 41.5q0 21 -11.5 32.5t-31.5 11.5q-23 0 -40.5 -17.5t-17.5 -41.5q0 -21 11.5 -32.5t31.5 -11.5z" />
    <glyph glyph-name="Uhungarumlaut" unicode="&#x170;" horiz-adv-x="623" 
d="M291 -12q-104 0 -158.5 53.5t-54.5 158.5q0 22 3.5 46.5t7.5 49.5l72 359h93l-74 -370q-4 -22 -6.5 -41t-2.5 -37q0 -67 30 -103t94 -36q37 0 67.5 17t53 58.5t37.5 115.5l79 396h91l-80 -397q-20 -101 -55.5 -160t-84.5 -84.5t-112 -25.5zM266 705l126 140h92l6 -11
l-158 -129h-66zM455 705l127 140h91l6 -11l-158 -129h-66z" />
    <glyph glyph-name="uni01D3" unicode="&#x1d3;" horiz-adv-x="623" 
d="M291 -12q-104 0 -158.5 53.5t-54.5 158.5q0 22 3.5 46.5t7.5 49.5l72 359h93l-74 -370q-4 -22 -6.5 -41t-2.5 -37q0 -67 30 -103t94 -36q37 0 67.5 17t53 58.5t37.5 115.5l79 396h91l-80 -397q-20 -101 -55.5 -160t-84.5 -84.5t-112 -25.5zM358 706l-102 140h78l71 -75h4
l110 75h80l-155 -140h-86z" />
    <glyph glyph-name="Uogonek" unicode="&#x172;" horiz-adv-x="623" 
d="M226 -221q-39 0 -65 20t-26 56q0 30 17 58t43.5 51t54.5 36l41 -12q-103 0 -158 53.5t-55 158.5q0 22 3.5 47t7.5 49l72 359h93l-74 -370q-4 -22 -6.5 -41.5t-2.5 -37.5q0 -65 30 -101.5t94 -36.5q37 0 67.5 17t53 59t37.5 115l79 396h91l-80 -398q-25 -124 -73 -186
t-131 -80q-41 -9 -67 -26.5t-39 -38.5t-13 -40q0 -18 12.5 -28t29.5 -10q10 0 20 3t22 11l21 -49q-21 -16 -46.5 -25t-52.5 -9z" />
    <glyph glyph-name="uni01D5" unicode="&#x1d5;" horiz-adv-x="623" 
d="M291 -12q-104 0 -158.5 53.5t-54.5 158.5q0 22 3.5 46.5t7.5 49.5l72 359h93l-74 -370q-4 -22 -6.5 -41t-2.5 -37q0 -67 30 -103t94 -36q37 0 67.5 17t53 58.5t37.5 115.5l79 396h91l-80 -397q-20 -101 -55.5 -160t-84.5 -84.5t-112 -25.5zM303 711q-18 0 -30 11.5
t-12 30.5q0 23 15.5 40.5t37.5 17.5q19 0 31 -11.5t12 -31.5q0 -21 -15.5 -39t-38.5 -18zM511 711q-19 0 -31 11.5t-12 30.5q0 23 15.5 40.5t38.5 17.5q18 0 30 -11.5t12 -31.5q0 -21 -15.5 -39t-37.5 -18zM302 868l10 49h265l-11 -49h-264z" />
    <glyph glyph-name="uni01D7" unicode="&#x1d7;" horiz-adv-x="623" 
d="M291 -12q-104 0 -158.5 53.5t-54.5 158.5q0 22 3.5 46.5t7.5 49.5l72 359h93l-74 -370q-4 -22 -6.5 -41t-2.5 -37q0 -67 30 -103t94 -36q37 0 67.5 17t53 58.5t37.5 115.5l79 396h91l-80 -397q-20 -101 -55.5 -160t-84.5 -84.5t-112 -25.5zM303 711q-18 0 -30 11.5
t-12 30.5q0 23 15.5 40.5t37.5 17.5q19 0 31 -11.5t12 -31.5q0 -21 -15.5 -39t-38.5 -18zM511 711q-19 0 -31 11.5t-12 30.5q0 23 15.5 40.5t38.5 17.5q18 0 30 -11.5t12 -31.5q0 -21 -15.5 -39t-37.5 -18zM370 839l105 120h88l6 -11l-137 -109h-62z" />
    <glyph glyph-name="uni01D9" unicode="&#x1d9;" horiz-adv-x="623" 
d="M291 -12q-104 0 -158.5 53.5t-54.5 158.5q0 22 3.5 46.5t7.5 49.5l72 359h93l-74 -370q-4 -22 -6.5 -41t-2.5 -37q0 -67 30 -103t94 -36q37 0 67.5 17t53 58.5t37.5 115.5l79 396h91l-80 -397q-20 -101 -55.5 -160t-84.5 -84.5t-112 -25.5zM304 711q-18 0 -30 11.5
t-12 30.5q0 23 15.5 40.5t37.5 17.5q19 0 31 -11.5t12 -31.5q0 -21 -15.5 -39t-38.5 -18zM512 711q-19 0 -31 11.5t-12 30.5q0 23 15.5 40.5t38.5 17.5q18 0 30 -11.5t12 -31.5q0 -21 -15.5 -39t-37.5 -18zM390 843l-97 106h72l65 -52h4l93 52h74l-135 -106h-76z" />
    <glyph glyph-name="uni01DB" unicode="&#x1db;" horiz-adv-x="623" 
d="M291 -12q-104 0 -158.5 53.5t-54.5 158.5q0 22 3.5 46.5t7.5 49.5l72 359h93l-74 -370q-4 -22 -6.5 -41t-2.5 -37q0 -67 30 -103t94 -36q37 0 67.5 17t53 58.5t37.5 115.5l79 396h91l-80 -397q-20 -101 -55.5 -160t-84.5 -84.5t-112 -25.5zM303 711q-18 0 -30 11.5
t-12 30.5q0 23 15.5 40.5t37.5 17.5q19 0 31 -11.5t12 -31.5q0 -21 -15.5 -39t-38.5 -18zM511 711q-19 0 -31 11.5t-12 30.5q0 23 15.5 40.5t38.5 17.5q18 0 30 -11.5t12 -31.5q0 -21 -15.5 -39t-37.5 -18zM419 839l-98 109l6 11h84l68 -120h-60z" />
    <glyph glyph-name="uni1E72" unicode="&#x1e72;" horiz-adv-x="623" 
d="M291 -12q-104 0 -158.5 53.5t-54.5 158.5q0 22 3.5 46.5t7.5 49.5l72 359h93l-74 -370q-4 -22 -6.5 -41t-2.5 -37q0 -67 30 -103t94 -36q37 0 67.5 17t53 58.5t37.5 115.5l79 396h91l-80 -397q-20 -101 -55.5 -160t-84.5 -84.5t-112 -25.5zM131 -204q-19 0 -32 11.5
t-13 33.5q0 24 17 41.5t40 17.5q20 0 33 -12t13 -34q0 -24 -17 -41t-41 -17zM324 -204q-20 0 -33 11.5t-13 33.5q0 24 17 41.5t41 17.5q19 0 32 -12t13 -34q0 -24 -17 -41t-40 -17z" />
    <glyph glyph-name="uni1EE4" unicode="&#x1ee4;" horiz-adv-x="623" 
d="M291 -12q-104 0 -158.5 53.5t-54.5 158.5q0 22 3.5 46.5t7.5 49.5l72 359h93l-74 -370q-4 -22 -6.5 -41t-2.5 -37q0 -67 30 -103t94 -36q37 0 67.5 17t53 58.5t37.5 115.5l79 396h91l-80 -397q-20 -101 -55.5 -160t-84.5 -84.5t-112 -25.5zM226 -222q-21 0 -38 13t-17 37
q0 27 19.5 45.5t45.5 18.5q22 0 38.5 -13.5t16.5 -37.5q0 -27 -19 -45t-46 -18z" />
    <glyph glyph-name="uni0244" unicode="&#x244;" horiz-adv-x="663" 
d="M38 322l14 66l85 5h529l-12 -71h-616zM311 -12q-104 0 -158.5 53.5t-54.5 158.5q0 22 3.5 46.5t7.5 49.5l72 359h93l-74 -370q-4 -22 -6.5 -41t-2.5 -37q0 -67 30 -103t94 -36q37 0 67.5 17t53 58.5t37.5 115.5l79 396h91l-80 -397q-20 -101 -55.5 -160t-84.5 -84.5
t-112 -25.5z" />
    <glyph glyph-name="uni1EE6" unicode="&#x1ee6;" horiz-adv-x="623" 
d="M291 -12q-104 0 -158.5 53.5t-54.5 158.5q0 22 3.5 46.5t7.5 49.5l72 359h93l-74 -370q-4 -22 -6.5 -41t-2.5 -37q0 -67 30 -103t94 -36q37 0 67.5 17t53 58.5t37.5 115.5l79 396h91l-80 -397q-20 -101 -55.5 -160t-84.5 -84.5t-112 -25.5zM356 701l-4 44q63 13 63 49
q0 17 -18 26.5t-55 9.5l15 56q45 0 74.5 -9.5t44.5 -26t15 -38.5q0 -43 -35 -72t-100 -39z" />
    <glyph glyph-name="Uhorn" unicode="&#x1af;" horiz-adv-x="639" 
d="M610 615l-37 40q48 3 74.5 25.5t26.5 60.5q0 9 -2 20t-7 23l73 24q13 -31 13 -61q0 -38 -17.5 -65t-49.5 -43.5t-74 -23.5zM291 -12q-103 0 -158 53.5t-55 158.5q0 22 3.5 47t7.5 49l72 359h93l-74 -370q-4 -22 -6.5 -41.5t-2.5 -37.5q0 -65 30 -101.5t94 -36.5
q37 0 67.5 17t53 59t37.5 115l79 396h91l-80 -398q-20 -100 -55.5 -159t-84.5 -84.5t-112 -25.5z" />
    <glyph glyph-name="uni1EE8" unicode="&#x1ee8;" horiz-adv-x="639" 
d="M610 615l-37 40q48 3 74.5 25.5t26.5 60.5q0 9 -2 20t-7 23l73 24q13 -31 13 -61q0 -38 -17.5 -65t-49.5 -43.5t-74 -23.5zM291 -12q-103 0 -158 53.5t-55 158.5q0 22 3.5 47t7.5 49l72 359h93l-74 -370q-4 -22 -6.5 -41.5t-2.5 -37.5q0 -65 30 -101.5t94 -36.5
q37 0 67.5 17t53 59t37.5 115l79 396h91l-80 -398q-20 -100 -55.5 -159t-84.5 -84.5t-112 -25.5zM310 705l151 140h117l6 -11l-193 -129h-81z" />
    <glyph glyph-name="uni1EEA" unicode="&#x1eea;" horiz-adv-x="639" 
d="M610 615l-37 40q48 3 74.5 25.5t26.5 60.5q0 9 -2 20t-7 23l73 24q13 -31 13 -61q0 -38 -17.5 -65t-49.5 -43.5t-74 -23.5zM291 -12q-103 0 -158 53.5t-55 158.5q0 22 3.5 47t7.5 49l72 359h93l-74 -370q-4 -22 -6.5 -41.5t-2.5 -37.5q0 -65 30 -101.5t94 -36.5
q37 0 67.5 17t53 59t37.5 115l79 396h91l-80 -398q-20 -100 -55.5 -159t-84.5 -84.5t-112 -25.5zM396 705l-144 129l5 11h109l109 -140h-79z" />
    <glyph glyph-name="uni1EEC" unicode="&#x1eec;" horiz-adv-x="639" 
d="M610 615l-37 40q48 3 74.5 25.5t26.5 60.5q0 9 -2 20t-7 23l73 24q13 -31 13 -61q0 -38 -17.5 -65t-49.5 -43.5t-74 -23.5zM291 -12q-103 0 -158 53.5t-55 158.5q0 22 3.5 47t7.5 49l72 359h93l-74 -370q-4 -22 -6.5 -41.5t-2.5 -37.5q0 -65 30 -101.5t94 -36.5
q37 0 67.5 17t53 59t37.5 115l79 396h91l-80 -398q-20 -100 -55.5 -159t-84.5 -84.5t-112 -25.5zM356 701l-4 44q63 13 63 49q0 17 -18 26.5t-55 9.5l15 56q45 0 74.5 -9.5t44.5 -26t15 -38.5q0 -43 -35 -72t-100 -39z" />
    <glyph glyph-name="uni1EEE" unicode="&#x1eee;" horiz-adv-x="639" 
d="M610 615l-37 40q48 3 74.5 25.5t26.5 60.5q0 9 -2 20t-7 23l73 24q13 -31 13 -61q0 -38 -17.5 -65t-49.5 -43.5t-74 -23.5zM291 -12q-103 0 -158 53.5t-55 158.5q0 22 3.5 47t7.5 49l72 359h93l-74 -370q-4 -22 -6.5 -41.5t-2.5 -37.5q0 -65 30 -101.5t94 -36.5
q37 0 67.5 17t53 59t37.5 115l79 396h91l-80 -398q-20 -100 -55.5 -159t-84.5 -84.5t-112 -25.5zM476 705q-25 0 -43.5 10t-32 23.5t-26 24t-28.5 10.5q-18 0 -32.5 -15.5t-23.5 -47.5l-64 5q14 64 48.5 96.5t81.5 32.5q26 0 44 -10.5t31.5 -24t26 -24t28.5 -10.5
q18 0 32.5 16t23.5 47l64 -5q-13 -63 -48 -95.5t-82 -32.5z" />
    <glyph glyph-name="uni1EF0" unicode="&#x1ef0;" horiz-adv-x="639" 
d="M610 615l-37 40q48 3 74.5 25.5t26.5 60.5q0 9 -2 20t-7 23l73 24q13 -31 13 -61q0 -38 -17.5 -65t-49.5 -43.5t-74 -23.5zM291 -12q-103 0 -158 53.5t-55 158.5q0 22 3.5 47t7.5 49l72 359h93l-74 -370q-4 -22 -6.5 -41.5t-2.5 -37.5q0 -65 30 -101.5t94 -36.5
q37 0 67.5 17t53 59t37.5 115l79 396h91l-80 -398q-20 -100 -55.5 -159t-84.5 -84.5t-112 -25.5zM226 -218q-21 0 -38 13t-17 37q0 27 19.5 45.5t45.5 18.5q22 0 38.5 -13.5t16.5 -37.5q0 -27 -19 -45t-46 -18z" />
    <glyph glyph-name="uni1E7E" unicode="&#x1e7e;" horiz-adv-x="511" 
d="M139 0l-58 655h96l24 -353q5 -53 8.5 -106.5t5.5 -107.5h4q24 53 49.5 107.5t50.5 106.5l172 353h101l-341 -655h-112zM151 -222q-21 0 -38 13t-17 37q0 27 19.5 45.5t45.5 18.5q22 0 38.5 -13.5t16.5 -37.5q0 -27 -19 -45t-46 -18z" />
    <glyph glyph-name="Wgrave" unicode="&#x1e80;" horiz-adv-x="766" 
d="M92 0l11 655h97l-12 -348q-2 -52 -6 -106t-9 -108h4q23 54 45 108t44 106l152 348h93l6 -348q1 -52 -0.5 -106t-3.5 -108h4q20 54 39.5 108t39.5 106l133 348h93l-264 -655h-119l-5 378q0 35 1.5 75t2.5 79h-4q-13 -38 -26.5 -76.5t-29.5 -77.5l-164 -378h-122zM470 705
l-144 129l5 11h109l109 -140h-79z" />
    <glyph glyph-name="Wacute" unicode="&#x1e82;" horiz-adv-x="766" 
d="M92 0l11 655h97l-12 -348q-2 -52 -6 -106t-9 -108h4q23 54 45 108t44 106l152 348h93l6 -348q1 -52 -0.5 -106t-3.5 -108h4q20 54 39.5 108t39.5 106l133 348h93l-264 -655h-119l-5 378q0 35 1.5 75t2.5 79h-4q-13 -38 -26.5 -76.5t-29.5 -77.5l-164 -378h-122zM384 705
l151 140h117l6 -11l-193 -129h-81z" />
    <glyph glyph-name="Wcircumflex" unicode="&#x174;" horiz-adv-x="766" 
d="M92 0l11 655h97l-12 -348q-2 -52 -6 -106t-9 -108h4q23 54 45 108t44 106l152 348h93l6 -348q1 -52 -0.5 -106t-3.5 -108h4q20 54 39.5 108t39.5 106l133 348h93l-264 -655h-119l-5 378q0 35 1.5 75t2.5 79h-4q-13 -38 -26.5 -76.5t-29.5 -77.5l-164 -378h-122zM305 706
l155 140h83l105 -140h-78l-73 75h-4l-108 -75h-80z" />
    <glyph glyph-name="Wdieresis" unicode="&#x1e84;" horiz-adv-x="766" 
d="M92 0l11 655h97l-12 -348q-2 -52 -6 -106t-9 -108h4q23 54 45 108t44 106l152 348h93l6 -348q1 -52 -0.5 -106t-3.5 -108h4q20 54 39.5 108t39.5 106l133 348h93l-264 -655h-119l-5 378q0 35 1.5 75t2.5 79h-4q-13 -38 -26.5 -76.5t-29.5 -77.5l-164 -378h-122zM379 711
q-19 0 -32 12t-13 34q0 24 17 41.5t40 17.5q20 0 33 -12t13 -34q0 -24 -17 -41.5t-41 -17.5zM582 711q-20 0 -33 12t-13 34q0 24 17 41.5t41 17.5q19 0 32 -12t13 -34q0 -24 -17 -41.5t-40 -17.5z" />
    <glyph glyph-name="Ygrave" unicode="&#x1ef2;" horiz-adv-x="474" 
d="M138 0l51 251l-106 404h95l42 -180q8 -37 15 -71.5t15 -72.5h3q22 38 43.5 73t44.5 72l115 179h100l-274 -404l-50 -251h-94zM322 705l-144 129l5 11h109l109 -140h-79z" />
    <glyph glyph-name="Yacute" unicode="&#xdd;" horiz-adv-x="474" 
d="M138 0l51 251l-106 404h95l42 -180q8 -37 15 -71.5t15 -72.5h3q22 38 43.5 73t44.5 72l115 179h100l-274 -404l-50 -251h-94zM236 705l151 140h117l6 -11l-193 -129h-81z" />
    <glyph glyph-name="Ycircumflex" unicode="&#x176;" horiz-adv-x="474" 
d="M138 0l51 251l-106 404h95l42 -180q8 -37 15 -71.5t15 -72.5h3q22 38 43.5 73t44.5 72l115 179h100l-274 -404l-50 -251h-94zM157 706l155 140h83l105 -140h-78l-73 75h-4l-108 -75h-80z" />
    <glyph glyph-name="uni1EF8" unicode="&#x1ef8;" horiz-adv-x="474" 
d="M138 0l51 251l-106 404h95l42 -180q8 -37 15 -71.5t15 -72.5h3q22 38 43.5 73t44.5 72l115 179h100l-274 -404l-50 -251h-94zM402 705q-25 0 -43.5 10t-32 23.5t-26 24t-28.5 10.5q-18 0 -32.5 -15.5t-23.5 -47.5l-64 5q14 64 48.5 96.5t81.5 32.5q26 0 44 -10.5
t31.5 -24t26 -24t28.5 -10.5q18 0 32.5 16t23.5 47l64 -5q-13 -63 -48 -95.5t-82 -32.5z" />
    <glyph glyph-name="Ydieresis" unicode="&#x178;" horiz-adv-x="474" 
d="M138 0l51 251l-106 404h95l42 -180q8 -37 15 -71.5t15 -72.5h3q22 38 43.5 73t44.5 72l115 179h100l-274 -404l-50 -251h-94zM229 711q-19 0 -32 12t-13 34q0 24 17 41.5t40 17.5q20 0 33 -12t13 -34q0 -24 -17 -41.5t-41 -17.5zM432 711q-20 0 -33 12t-13 34
q0 24 17 41.5t41 17.5q19 0 32 -12t13 -34q0 -24 -17 -41.5t-40 -17.5z" />
    <glyph glyph-name="uni1E8E" unicode="&#x1e8e;" horiz-adv-x="474" 
d="M138 0l51 251l-106 404h95l42 -180q8 -37 15 -71.5t15 -72.5h3q22 38 43.5 73t44.5 72l115 179h100l-274 -404l-50 -251h-94zM336 712q-21 0 -38 13.5t-17 37.5q0 26 19.5 45t45.5 19q22 0 38.5 -13.5t16.5 -37.5q0 -28 -19 -46t-46 -18z" />
    <glyph glyph-name="uni1EF4" unicode="&#x1ef4;" horiz-adv-x="474" 
d="M138 0l51 251l-106 404h95l42 -180q8 -37 15 -71.5t15 -72.5h3q22 38 43.5 73t44.5 72l115 179h100l-274 -404l-50 -251h-94zM157 -222q-21 0 -38 13t-17 37q0 27 19.5 45.5t45.5 18.5q22 0 38.5 -13.5t16.5 -37.5q0 -27 -19 -45t-46 -18z" />
    <glyph glyph-name="uni1EF6" unicode="&#x1ef6;" horiz-adv-x="474" 
d="M138 0l51 251l-106 404h95l42 -180q8 -37 15 -71.5t15 -72.5h3q22 38 43.5 73t44.5 72l115 179h100l-274 -404l-50 -251h-94zM282 701l-4 44q63 13 63 49q0 17 -18 26.5t-55 9.5l15 56q45 0 74.5 -9.5t44.5 -26t15 -38.5q0 -43 -35 -72t-100 -39z" />
    <glyph glyph-name="Zacute" unicode="&#x179;" horiz-adv-x="516" 
d="M-2 0l12 56l407 521h-288l15 78h401l-12 -56l-404 -521h318l-17 -78h-432zM263 705l151 140h117l6 -11l-193 -129h-81z" />
    <glyph glyph-name="uni1E90" unicode="&#x1e90;" horiz-adv-x="516" 
d="M-2 0l12 56l407 521h-288l15 78h401l-12 -56l-404 -521h318l-17 -78h-432zM184 706l155 140h83l105 -140h-78l-73 75h-4l-108 -75h-80z" />
    <glyph glyph-name="Zdotaccent" unicode="&#x17b;" horiz-adv-x="516" 
d="M-2 0l12 56l407 521h-288l15 78h401l-12 -56l-404 -521h318l-17 -78h-432zM363 712q-21 0 -38 13.5t-17 37.5q0 26 19.5 45t45.5 19q22 0 38.5 -13.5t16.5 -37.5q0 -28 -19 -46t-46 -18z" />
    <glyph glyph-name="Zcaron" unicode="&#x17d;" horiz-adv-x="516" 
d="M-2 0l12 56l407 521h-288l15 78h401l-12 -56l-404 -521h318l-17 -78h-432zM311 706l-102 140h78l71 -75h4l110 75h80l-155 -140h-86z" />
    <glyph glyph-name="uni1E92" unicode="&#x1e92;" horiz-adv-x="516" 
d="M-2 0l12 56l407 521h-288l15 78h401l-12 -56l-404 -521h318l-17 -78h-432zM183 -222q-21 0 -38 13t-17 37q0 27 19.5 45.5t45.5 18.5q22 0 38.5 -13.5t16.5 -37.5q0 -27 -19 -45t-46 -18z" />
    <glyph glyph-name="uni1E94" unicode="&#x1e94;" horiz-adv-x="516" 
d="M-2 0l12 56l407 521h-288l15 78h401l-12 -56l-404 -521h318l-17 -78h-432zM59 -165l11 62h262l-11 -62h-262z" />
    <glyph glyph-name="Eth" unicode="&#xd0;" horiz-adv-x="621" 
d="M41 307l16 68l72 4h239l-14 -72h-313zM54 0l130 655h131q88 0 151 -30t96 -88t33 -142q0 -89 -25.5 -161.5t-72.5 -124.5t-112.5 -80.5t-145.5 -28.5h-185zM161 75h78q57 0 105 22.5t83 64t54 99.5t19 128q0 62 -22.5 104.5t-65 64.5t-100.5 22h-51z" />
    <glyph glyph-name="Thorn" unicode="&#xde;" horiz-adv-x="571" 
d="M33 0l131 660h93l-23 -115h108q60 0 105.5 -17t71 -53t25.5 -94q0 -62 -22 -107t-61.5 -74t-92.5 -42.5t-116 -13.5h-98l-29 -144h-92zM169 218h89q95 0 144.5 38t49.5 112q0 54 -34.5 78t-100.5 24h-98z" />
    <glyph glyph-name="uni01F7" unicode="&#x1f7;" horiz-adv-x="559" 
d="M2 -157l162 812h89l-15 -77q46 39 94 64t99 25q62 0 98 -34.5t36 -111.5q0 -62 -23.5 -130t-75.5 -136.5t-135.5 -133.5t-204.5 -123l-32 -155h-92zM143 87q120 66 192.5 138t105 141t32.5 126q0 51 -22 73t-55 22q-22 0 -50.5 -11.5t-60 -34t-61.5 -55.5z" />
    <glyph glyph-name="uni021C" unicode="&#x21c;" horiz-adv-x="482" 
d="M17 -168l-24 66q100 37 165.5 74.5t104 75.5t54.5 73t16 65q0 36 -22 55.5t-60 19.5q-25 0 -50 -7.5t-61 -26.5l-28 57q81 42 130.5 74t76 58t36 50t9.5 48q0 33 -18.5 53t-50.5 20q-45 0 -84.5 -19.5t-91.5 -60.5l-40 53q44 37 82.5 60.5t78 35t86.5 11.5q63 0 97 -33
t34 -86q0 -65 -42.5 -123t-125.5 -109q64 5 100.5 -27.5t36.5 -89.5q0 -73 -41.5 -138t-131.5 -122.5t-236 -106.5z" />
    <glyph glyph-name="uni01B7" unicode="&#x1b7;" horiz-adv-x="534" 
d="M224 -12q-60 0 -116.5 22t-95.5 71l46 60q36 -39 80 -56t91 -17q45 0 82 16.5t59 46.5t22 71q0 54 -29.5 81.5t-77.5 27.5q-27 0 -43 -3t-37 -10l-29 55l235 224h-277l15 78h400l-11 -56l-227 -225q56 1 95.5 -18t60 -55t20.5 -87q0 -69 -33.5 -119.5t-92.5 -78.5
t-137 -28z" />
    <glyph glyph-name="uni01EE" unicode="&#x1ee;" horiz-adv-x="534" 
d="M224 -12q-60 0 -116.5 22t-95.5 71l46 60q36 -39 80 -56t91 -17q45 0 82 16.5t59 46.5t22 71q0 54 -29.5 81.5t-77.5 27.5q-27 0 -43 -3t-37 -10l-29 55l235 224h-277l15 78h400l-11 -56l-227 -225q56 1 95.5 -18t60 -55t20.5 -87q0 -69 -33.5 -119.5t-92.5 -78.5
t-137 -28zM303 706l-102 140h78l71 -75h4l110 75h80l-155 -140h-86z" />
    <glyph glyph-name="uni018F" unicode="&#x18f;" horiz-adv-x="644" 
d="M285 -12q-69 0 -118.5 31t-76 86t-26.5 128q0 34 4 59.5t13 55.5h466l-14 -69h-380q-13 -100 26.5 -156.5t112.5 -56.5q52 0 94.5 23.5t74.5 66.5t49.5 101t17.5 127q0 63 -14.5 109t-47.5 71.5t-88 25.5q-49 0 -93 -21t-77 -51l-44 61q45 39 101 63.5t124 24.5
q74 0 125.5 -33t78.5 -95t27 -147q0 -87 -25 -161t-70 -128.5t-106 -84.5t-134 -30z" />
    <glyph glyph-name="uniA779" unicode="&#xa779;" horiz-adv-x="643" 
d="M296 -12q-71 0 -122.5 31t-80 90t-28.5 143q0 74 25.5 138.5t66 113t83.5 72.5v4h-149l15 75h238q131 0 200 -66.5t69 -201.5q0 -64 -15 -123t-43 -109t-67.5 -87.5t-88 -58.5t-103.5 -21zM305 68q38 0 70.5 17t58.5 47.5t45 70t29 85t10 92.5q0 94 -36.5 145.5
t-104.5 51.5q-43 0 -81.5 -28t-69 -73.5t-47.5 -100t-17 -108.5q0 -95 37.5 -147t105.5 -52z" />
    <glyph glyph-name="uniA77B" unicode="&#xa77b;" horiz-adv-x="557" 
d="M2 -157l162 812h88l-14 -77q28 26 60 46t65.5 31.5t64.5 11.5q64 0 101 -34t37 -111q0 -19 -2 -41.5t-8 -48.5l-12 -60l-95 -12l12 60q5 25 7.5 42.5t2.5 32.5q0 50 -23 71t-63 21q-22 0 -50.5 -13.5t-57.5 -36.5t-53 -51l-83 -408h259l-16 -78h-258l-31 -157h-93z" />
    <glyph glyph-name="uniA77D" unicode="&#xa77d;" horiz-adv-x="594" 
d="M224 -168q-62 -1 -111.5 15t-78 51t-28.5 90q0 47 26.5 88t70.5 73.5t97 54.5v4q-38 26 -63 63t-25 93q0 47 20 88.5t53.5 73.5t75.5 49v4h-160l16 76h507l-16 -79h-161q-62 0 -107 -17t-74 -45t-43.5 -61.5t-14.5 -67.5q0 -57 35 -92.5t115 -67.5q84 -34 123.5 -69.5
t39.5 -95.5q0 -41 -18.5 -81.5t-56 -73.5t-93 -53t-129.5 -20zM236 -93q59 0 101.5 20.5t65.5 51t23 60.5q0 26 -14 43t-38.5 31t-56 27t-66.5 29q-50 -21 -85 -46.5t-53.5 -55t-18.5 -62.5q0 -49 38.5 -73.5t103.5 -24.5z" />
    <glyph glyph-name="uniA77E" unicode="&#xa77e;" horiz-adv-x="594" 
d="M377 666q62 1 111.5 -15t78 -51t28.5 -90q0 -47 -26.5 -88t-70.5 -73.5t-97 -54.5v-4q38 -26 63 -63t25 -93q0 -47 -20 -88.5t-53.5 -73.5t-75.5 -49v-4h160l-16 -76h-507l16 79h161q62 0 107 17t74 45t43.5 61.5t14.5 67.5q0 57 -35 92.5t-115 67.5q-84 34 -123.5 69.5
t-39.5 95.5q0 41 18.5 81.5t56 73.5t93 53t129.5 20zM365 591q-59 0 -101.5 -20.5t-65.5 -51t-23 -60.5q0 -26 14 -43t38.5 -31t56 -27t66.5 -29q50 21 85 46.5t53.5 55t18.5 62.5q0 49 -38.5 73.5t-103.5 24.5z" />
    <glyph glyph-name="uniA780" unicode="&#xa780;" horiz-adv-x="472" 
d="M468 655l-130 -655h-93l115 576h-269l16 79h361z" />
    <glyph glyph-name="uniA782" unicode="&#xa782;" horiz-adv-x="561" 
d="M2 -157l162 812h88l-14 -78q46 47 93 68.5t96 21.5q62 0 97 -32.5t35 -97.5q0 -68 -34.5 -132.5t-106.5 -126.5t-183 -124q15 -46 59 -67.5t111 -21.5q19 0 36 3.5t29 6.5l16 -70q-15 -7 -38.5 -12t-51.5 -5q-111 0 -176 48.5t-73 148.5q118 62 188 118.5t101 108.5
t31 98q0 39 -20 58t-55 19q-36 0 -80.5 -24t-87.5 -77l-129 -643h-93z" />
    <glyph glyph-name="uniA75A" unicode="&#xa75a;" horiz-adv-x="482" 
d="M312 -12q-114 0 -181.5 48.5t-76.5 148.5q121 62 194.5 117.5t106.5 106.5t33 96q0 41 -21 61.5t-59 20.5q-37 0 -73 -18t-73 -51l-41 49q51 49 102.5 74.5t107.5 25.5q70 0 109.5 -34t39.5 -100q0 -68 -37 -131.5t-112 -124.5t-190 -123q20 -46 65 -67.5t115 -21.5
q20 0 39 3t31 7l16 -70q-16 -7 -40.5 -12t-54.5 -5z" />
    <glyph glyph-name="uniA784" unicode="&#xa784;" horiz-adv-x="557" 
d="M2 -157l162 812h88l-14 -77q28 26 60 46t65.5 31.5t64.5 11.5q64 0 101 -34t37 -111q0 -19 -2 -41.5t-8 -48.5l-12 -60l-95 -12l12 60q5 25 7.5 42.5t2.5 32.5q0 50 -23 71t-63 21q-22 0 -50.5 -13.5t-57.5 -36.5t-53 -51l-129 -643h-93z" />
    <glyph glyph-name="uniA786" unicode="&#xa786;" horiz-adv-x="515" 
d="M266 -12q-65 0 -111.5 27t-72 77.5t-25.5 119.5q0 62 21.5 118.5t56.5 104.5t76 84t79 56v4h-200l16 76h464l-15 -79h-91q-51 0 -98 -22.5t-85.5 -60.5t-67.5 -84.5t-45 -95.5t-16 -93q0 -69 31 -110.5t99 -41.5q38 0 70.5 15.5t59.5 39.5l40 -57q-36 -33 -80 -55.5
t-106 -22.5z" />
    <glyph glyph-name="uni0194" unicode="&#x194;" horiz-adv-x="490" 
d="M151 -220q-44 0 -70.5 25t-26.5 68q0 47 29.5 97.5t82.5 116.5l-11 -48l-74 616h96l28 -339q4 -53 8 -104.5t6 -105.5h4q24 54 49.5 106t50.5 104l168 339h101l-330 -617l2 48q18 -59 23.5 -92t5.5 -58q0 -44 -17 -79t-49 -56t-76 -21zM163 -156q28 0 40.5 23t12.5 60
q0 42 -11 92h-4q-30 -39 -50 -74.5t-20 -63.5q0 -17 9 -27t23 -10z" />
    <glyph glyph-name="uni0196" unicode="&#x196;" horiz-adv-x="261" 
d="M129 -10q-42 0 -61 19t-19 53q0 10 1.5 21.5t4.5 24.5l109 547h93l-109 -546q-1 -8 -1.5 -12.5t-0.5 -9.5q0 -17 16 -17q3 0 6 0.5l9 1.5l6 -71q-11 -5 -24.5 -8t-29.5 -3z" />
    <glyph glyph-name="uni039B.l" horiz-adv-x="474" 
d="M366 655l-51 -251l106 -404h-95l-42 180q-8 37 -15 71.5t-15 72.5h-3q-22 -38 -43.5 -73t-44.5 -72l-115 -179h-100l274 404l50 251h94z" />
    <glyph glyph-name="uni01B1" unicode="&#x1b1;" horiz-adv-x="667" 
d="M709 655l-14 -76h-126v-4q15 -20 30.5 -52.5t26 -72.5t10.5 -80q0 -83 -25.5 -153t-72 -121t-108 -79.5t-133.5 -28.5q-73 0 -124.5 30t-79 84.5t-27.5 128.5q0 82 26.5 147.5t66 115t78.5 81.5v4h-125l13 76h242l-13 -61q-39 -28 -74 -64.5t-61 -81t-41 -95.5t-15 -108
q0 -53 17.5 -92.5t50 -62t80.5 -22.5q50 0 92.5 23.5t74 65.5t49 98.5t17.5 124.5q0 43 -11 83.5t-29.5 74.5t-41.5 56l12 61h235z" />
    <glyph glyph-name="uniA7B3" unicode="&#xa7b3;" horiz-adv-x="497" 
d="M-74 -182l269 434l-90 403h101l39 -201q5 -29 10.5 -59t13.5 -70h3q22 40 38.5 69.5t32.5 59.5l116 201h101l-254 -413l97 -424h-101l-41 213q-6 33 -12.5 66.5t-13.5 73.5h-4q-21 -40 -40.5 -73.5t-38.5 -66.5l-126 -213h-100z" />
    <glyph glyph-name="uni0241" unicode="&#x241;" horiz-adv-x="494" 
d="M131 0l56 272q116 39 167 92t51 113q0 54 -29 82t-79 28q-49 0 -95 -22.5t-83 -51.5l-40 61q45 39 106 66t130 27q52 0 94 -19.5t66.5 -58t24.5 -95.5q0 -59 -30 -111t-82 -92.5t-118 -64.5l-45 -226h-94z" />
    <glyph glyph-name="uniA722" unicode="&#xa722;" horiz-adv-x="290" 
d="M29 -12l5 55q55 9 83.5 36t33.5 61q1 23 -14 28h22q-9 -14 -26.5 -24.5t-36.5 -10.5q-22 0 -37 14t-15 40q0 19 12 38t34 32t53 13q43 0 67.5 -27t24.5 -72q0 -44 -23 -85t-69 -67.5t-114 -30.5zM108 384l5 55q55 9 84 36t33 61q1 23 -13 29h21q-9 -15 -26.5 -25.5
t-35.5 -10.5q-23 0 -38 14.5t-15 39.5q0 19 12 38t34.5 32t52.5 13q43 0 68 -27t25 -71q0 -45 -23.5 -85.5t-69.5 -67.5t-114 -31z" />
    <glyph glyph-name="uniA724" unicode="&#xa724;" horiz-adv-x="290" 
d="M242 382q-67 5 -103 41.5t-36 90.5q0 43 19 77.5t50 54.5t68 20q36 0 55.5 -17.5t19.5 -45.5q0 -31 -21 -53.5t-54 -22.5q-19 0 -33.5 9.5t-19.5 26.5h23q-13 -5 -22 -17.5t-9 -32.5q0 -30 23.5 -50t62.5 -26z" />
    <glyph glyph-name="uni004C00B7004C" horiz-adv-x="944" 
d="M34 0l130 655h93l-115 -576h269l-16 -79h-361zM375 261q-24 0 -38.5 16t-14.5 40q0 19 10 37t26.5 29.5t38.5 11.5q25 0 38.5 -16t13.5 -41q0 -19 -9.5 -36.5t-26 -29t-38.5 -11.5zM506 0l130 655h93l-115 -576h269l-16 -79h-361z" />
    <glyph glyph-name="uni01320301" horiz-adv-x="521" 
d="M230 -168q-21 0 -40 4t-40 15l29 68q13 -6 23 -9t22 -3q27 0 44 22.5t25 65.5l132 660h93l-132 -660q-10 -48 -29 -85t-50 -57.5t-77 -20.5zM33 0l131 655h93l-131 -655h-93zM132 705l151 140h117l6 -11l-193 -129h-81zM393 705l151 140h117l6 -11l-193 -129h-81z" />
    <glyph glyph-name="uni01040301" horiz-adv-x="520" 
d="M201 -221q-38 0 -64 20t-26 56q0 27 16 56t43 56t62 48l27 -32q-29 -20 -46 -46.5t-17 -50.5q0 -18 12 -28t30 -10q21 0 42 14l21 -49q-21 -16 -46.5 -25t-53.5 -9zM-54 0l352 655h108l74 -655h-97l-30 371q-3 51 -7.5 102.5t-7.5 105.5h-4q-25 -54 -49 -104.5
t-51 -103.5l-187 -371h-101zM107 194l18 72h290l-16 -72h-292zM264 705l151 140h117l6 -11l-193 -129h-81z" />
    <glyph glyph-name="uni01180301" horiz-adv-x="508" 
d="M209 -221q-38 0 -64.5 19.5t-26.5 56.5q0 28 15.5 55t39 50.5t46.5 39.5h-186l131 655h368l-15 -78h-276l-39 -195h234l-16 -78h-232l-47 -226h285l-16 -78h-98q-17 0 -36 -11t-35.5 -28.5t-26.5 -37t-10 -37.5t12 -28t29 -10q21 0 42 14l21 -49q-21 -16 -47 -25t-52 -9z
M262 705l151 140h117l6 -11l-193 -129h-81z" />
    <glyph glyph-name="uni012E0301" horiz-adv-x="261" 
d="M42 -221q-38 0 -64 20t-26 56q0 28 15.5 55t38.5 50.5t47 39.5h-20l131 655h93l-131 -655q-39 -23 -64 -53.5t-25 -60.5q0 -18 12 -28t29 -10q22 0 43 14l21 -49q-21 -16 -46.5 -25t-53.5 -9zM132 705l151 140h117l6 -11l-193 -129h-81z" />
    <glyph glyph-name="uni01EA0301" horiz-adv-x="640" 
d="M234 -221q-39 0 -65 19.5t-26 56.5q0 30 16.5 58t41 51t48.5 37l42 -13q-74 0 -125.5 34t-79 95.5t-27.5 145.5q0 63 15.5 122t44.5 110t69 89.5t89 60.5t105 22q73 0 125 -33.5t79 -95.5t27 -146q0 -66 -18.5 -132t-54.5 -122.5t-88 -95t-119 -50.5q-36 -6 -59 -25
t-34 -41t-11 -40t12 -28t29 -10q21 0 42 14l21 -49q-21 -16 -46.5 -25t-52.5 -9zM295 68q39 0 72.5 18t61.5 49.5t47.5 72t30.5 86t11 91.5q0 61 -15.5 106.5t-46.5 70.5t-79 25q-39 0 -72.5 -18t-61.5 -49.5t-47.5 -72t-30.5 -86t-11 -91.5q0 -61 15.5 -106.5t46.5 -70.5
t79 -25zM310 705l151 140h117l6 -11l-193 -129h-81z" />
    <glyph glyph-name="uni01720301" horiz-adv-x="623" 
d="M226 -221q-39 0 -65 20t-26 56q0 30 17 58t43.5 51t54.5 36l41 -12q-103 0 -158 53.5t-55 158.5q0 22 3.5 47t7.5 49l72 359h93l-74 -370q-4 -22 -6.5 -41.5t-2.5 -37.5q0 -65 30 -101.5t94 -36.5q37 0 67.5 17t53 59t37.5 115l79 396h91l-80 -398q-25 -124 -73 -186
t-131 -80q-41 -9 -67 -26.5t-39 -38.5t-13 -40q0 -18 12.5 -28t29.5 -10q10 0 20 3t22 11l21 -49q-21 -16 -46.5 -25t-52.5 -9zM315 705l151 140h117l6 -11l-193 -129h-81z" />
    <glyph glyph-name="uni01900328" horiz-adv-x="534" 
d="M198 -221q-38 0 -64 19.5t-26 56.5q0 32 16.5 60.5t41.5 50.5t51 35l21 -13q-98 0 -154.5 43t-56.5 116q0 39 16 72t42.5 58t59.5 42.5t67 25.5v4q-24 10 -43.5 28.5t-31.5 44t-12 56.5q0 53 30.5 95.5t83 68t118.5 25.5q60 0 109 -26t72 -69l-53 -49q-21 32 -53.5 48.5
t-75.5 16.5q-37 0 -69 -14.5t-51.5 -41t-19.5 -60.5q0 -40 29.5 -67t99.5 -27h53l-12 -69h-72q-54 0 -96 -19.5t-66.5 -51t-24.5 -69.5q0 -48 33.5 -75t91.5 -27q54 0 98.5 19t82.5 50l39 -57q-25 -22 -49 -38t-53.5 -28t-69.5 -20q-38 -8 -61.5 -26.5t-34.5 -40.5t-11 -40
t12 -28t29 -10q22 0 43 14l21 -49q-21 -16 -46.5 -25t-53.5 -9z" />
    <glyph glyph-name="uni019B.c" horiz-adv-x="474" 
d="M73 488l14 66l88 5h339l-14 -71h-427zM366 655l-51 -251l106 -404h-95l-42 180q-7 38 -14 72t-16 72h-3q-22 -37 -43.5 -72.5t-44.5 -72.5l-115 -179h-100l274 404l50 251h94z" />
    <glyph glyph-name="agrave" unicode="&#xe0;" horiz-adv-x="541" 
d="M177 -12q-64 0 -102 46t-38 132q0 70 22 131t59 106.5t84.5 71.5t97.5 26q38 0 68.5 -19.5t47.5 -52.5h2l21 60h74l-98 -489h-76l7 70h-3q-35 -37 -78.5 -59.5t-87.5 -22.5zM213 64q36 0 72 21.5t69 66.5l42 206q-18 36 -42 51t-49 15q-34 0 -65 -19.5t-55 -54
t-38.5 -78.5t-14.5 -93q0 -58 22 -86.5t59 -28.5zM333 570l-127 159l6 10h99l94 -169h-72z" />
    <glyph glyph-name="aacute" unicode="&#xe1;" horiz-adv-x="541" 
d="M177 -12q-64 0 -102 46t-38 132q0 70 22 131t59 106.5t84.5 71.5t97.5 26q38 0 68.5 -19.5t47.5 -52.5h2l21 60h74l-98 -489h-76l7 70h-3q-35 -37 -78.5 -59.5t-87.5 -22.5zM213 64q36 0 72 21.5t69 66.5l42 206q-18 36 -42 51t-49 15q-34 0 -65 -19.5t-55 -54
t-38.5 -78.5t-14.5 -93q0 -58 22 -86.5t59 -28.5zM240 570l156 169h107l5 -10l-189 -159h-79z" />
    <glyph glyph-name="acircumflex" unicode="&#xe2;" horiz-adv-x="541" 
d="M177 -12q-64 0 -102 46t-38 132q0 70 22 131t59 106.5t84.5 71.5t97.5 26q38 0 68.5 -19.5t47.5 -52.5h2l21 60h74l-98 -489h-76l7 70h-3q-35 -37 -78.5 -59.5t-87.5 -22.5zM213 64q36 0 72 21.5t69 66.5l42 206q-18 36 -42 51t-49 15q-34 0 -65 -19.5t-55 -54
t-38.5 -78.5t-14.5 -93q0 -58 22 -86.5t59 -28.5zM156 570l160 176h88l90 -176h-72l-69 104h-4l-115 -104h-78z" />
    <glyph glyph-name="atilde" unicode="&#xe3;" horiz-adv-x="541" 
d="M177 -12q-64 0 -102 46t-38 132q0 70 22 131t59 106.5t84.5 71.5t97.5 26q38 0 68.5 -19.5t47.5 -52.5h2l21 60h74l-98 -489h-76l7 70h-3q-35 -37 -78.5 -59.5t-87.5 -22.5zM213 64q36 0 72 21.5t69 66.5l42 206q-18 36 -42 51t-49 15q-34 0 -65 -19.5t-55 -54
t-38.5 -78.5t-14.5 -93q0 -58 22 -86.5t59 -28.5zM412 576q-27 0 -44.5 12t-30.5 28t-26.5 28t-31.5 12q-20 0 -34 -20t-21 -54l-64 4q8 42 23.5 73.5t40 48.5t56.5 17q27 0 44.5 -12t30.5 -27.5t26.5 -27.5t31.5 -12q21 0 35 20t21 54l63 -4q-7 -42 -23 -73.5t-40 -49
t-57 -17.5z" />
    <glyph glyph-name="adieresis" unicode="&#xe4;" horiz-adv-x="541" 
d="M177 -12q-64 0 -102 46t-38 132q0 70 22 131t59 106.5t84.5 71.5t97.5 26q38 0 68.5 -19.5t47.5 -52.5h2l21 60h74l-98 -489h-76l7 70h-3q-35 -37 -78.5 -59.5t-87.5 -22.5zM213 64q36 0 72 21.5t69 66.5l42 206q-18 36 -42 51t-49 15q-34 0 -65 -19.5t-55 -54
t-38.5 -78.5t-14.5 -93q0 -58 22 -86.5t59 -28.5zM238 585q-19 0 -32 11.5t-13 33.5q0 24 17 41.5t40 17.5q20 0 33 -12t13 -34q0 -24 -17 -41t-41 -17zM431 585q-20 0 -33 11.5t-13 33.5q0 24 17 41.5t41 17.5q19 0 32 -12t13 -34q0 -24 -17 -41t-40 -17z" />
    <glyph glyph-name="aring" unicode="&#xe5;" horiz-adv-x="541" 
d="M177 -12q-64 0 -102 46t-38 132q0 70 22 131t59 106.5t84.5 71.5t97.5 26q38 0 68.5 -19.5t47.5 -52.5h2l21 60h74l-98 -489h-76l7 70h-3q-35 -37 -78.5 -59.5t-87.5 -22.5zM213 64q36 0 72 21.5t69 66.5l42 206q-18 36 -42 51t-49 15q-34 0 -65 -19.5t-55 -54
t-38.5 -78.5t-14.5 -93q0 -58 22 -86.5t59 -28.5zM331 559q-42 0 -71 22.5t-29 63.5q0 45 35.5 77t91.5 32q42 0 71 -22t29 -63q0 -46 -35.5 -78t-91.5 -32zM337 599q24 0 41.5 19.5t17.5 47.5q0 20 -11.5 34t-32.5 14q-24 0 -41.5 -19.5t-17.5 -47.5q0 -21 12 -34.5
t32 -13.5z" />
    <glyph glyph-name="amacron" unicode="&#x101;" horiz-adv-x="541" 
d="M177 -12q-64 0 -102 46t-38 132q0 70 22 131t59 106.5t84.5 71.5t97.5 26q38 0 68.5 -19.5t47.5 -52.5h2l21 60h74l-98 -489h-76l7 70h-3q-35 -37 -78.5 -59.5t-87.5 -22.5zM213 64q36 0 72 21.5t69 66.5l42 206q-18 36 -42 51t-49 15q-34 0 -65 -19.5t-55 -54
t-38.5 -78.5t-14.5 -93q0 -58 22 -86.5t59 -28.5zM202 600l11 62h262l-11 -62h-262z" />
    <glyph glyph-name="abreve" unicode="&#x103;" horiz-adv-x="541" 
d="M177 -12q-64 0 -102 46t-38 132q0 70 22 131t59 106.5t84.5 71.5t97.5 26q38 0 68.5 -19.5t47.5 -52.5h2l21 60h74l-98 -489h-76l7 70h-3q-35 -37 -78.5 -59.5t-87.5 -22.5zM213 64q36 0 72 21.5t69 66.5l42 206q-18 36 -42 51t-49 15q-34 0 -65 -19.5t-55 -54
t-38.5 -78.5t-14.5 -93q0 -58 22 -86.5t59 -28.5zM326 571q-47 0 -76 19.5t-43 54.5t-14 79l62 9q0 -27 8.5 -49t26.5 -35t49 -13q30 0 53.5 14t39 36.5t24.5 47.5l58 -10q-9 -39 -32 -74t-61.5 -57t-94.5 -22z" />
    <glyph glyph-name="uni0227" unicode="&#x227;" horiz-adv-x="541" 
d="M177 -12q-64 0 -102 46t-38 132q0 70 22 131t59 106.5t84.5 71.5t97.5 26q38 0 68.5 -19.5t47.5 -52.5h2l21 60h74l-98 -489h-76l7 70h-3q-35 -37 -78.5 -59.5t-87.5 -22.5zM213 64q36 0 72 21.5t69 66.5l42 206q-18 36 -42 51t-49 15q-34 0 -65 -19.5t-55 -54
t-38.5 -78.5t-14.5 -93q0 -58 22 -86.5t59 -28.5zM335 583q-21 0 -38 13t-17 37q0 27 19.5 45.5t45.5 18.5q22 0 38.5 -13.5t16.5 -37.5q0 -27 -19 -45t-46 -18z" />
    <glyph glyph-name="uni01CE" unicode="&#x1ce;" horiz-adv-x="541" 
d="M177 -12q-64 0 -102 46t-38 132q0 70 22 131t59 106.5t84.5 71.5t97.5 26q38 0 68.5 -19.5t47.5 -52.5h2l21 60h74l-98 -489h-76l7 70h-3q-35 -37 -78.5 -59.5t-87.5 -22.5zM213 64q36 0 72 21.5t69 66.5l42 206q-18 36 -42 51t-49 15q-34 0 -65 -19.5t-55 -54
t-38.5 -78.5t-14.5 -93q0 -58 22 -86.5t59 -28.5zM286 570l-90 176h71l70 -104h4l114 104h79l-160 -176h-88z" />
    <glyph glyph-name="uni0201" unicode="&#x201;" horiz-adv-x="541" 
d="M177 -12q-64 0 -102 46t-38 132q0 70 22 131t59 106.5t84.5 71.5t97.5 26q38 0 68.5 -19.5t47.5 -52.5h2l21 60h74l-98 -489h-76l7 70h-3q-35 -37 -78.5 -59.5t-87.5 -22.5zM213 64q36 0 72 21.5t69 66.5l42 206q-18 36 -42 51t-49 15q-34 0 -65 -19.5t-55 -54
t-38.5 -78.5t-14.5 -93q0 -58 22 -86.5t59 -28.5zM218 570l-87 159l6 10h80l58 -169h-57zM383 570l-87 159l6 10h79l59 -169h-57z" />
    <glyph glyph-name="aogonek" unicode="&#x105;" horiz-adv-x="541" 
d="M330 -216q-36 0 -59.5 19.5t-23.5 56.5q0 29 14 57t36 51t44 37l5 65h-3q-35 -36 -78.5 -59t-87.5 -23q-64 0 -102 46t-38 132q0 70 22 131t59.5 106.5t84.5 71.5t97 26q38 0 68.5 -19.5t46.5 -52.5h4l19 60h75l-98 -489q-39 -18 -64.5 -49.5t-25.5 -65.5q0 -17 11 -27.5
t27 -10.5q13 0 22.5 4t20.5 11l21 -43q-21 -16 -44.5 -25.5t-52.5 -9.5zM213 65q36 0 72 20.5t69 66.5l42 206q-19 36 -42.5 51t-48.5 15q-34 0 -65 -20t-55 -54t-38.5 -78t-14.5 -93q0 -58 22 -86t59 -28z" />
    <glyph glyph-name="aogonek.d" horiz-adv-x="541" 
d="M189 -216q-36 0 -59.5 19.5t-23.5 56.5q0 27 14.5 54t37.5 50t49 38l14 -8q-9 -2 -20.5 -4t-23.5 -2q-64 0 -102 46t-38 132q0 70 22 131t59.5 106.5t84.5 71.5t97 26q38 0 68.5 -19.5t46.5 -52.5h4l19 60h75l-98 -489h-75l6 70h-3q-23 -23 -46 -41t-46 -35
q-31 -22 -49 -50.5t-18 -55.5q0 -19 11 -30t27 -11q22 0 44 15l20 -43q-21 -16 -45 -25.5t-52 -9.5zM213 65q36 0 72 20.5t69 66.5l42 206q-19 36 -42.5 51t-48.5 15q-34 0 -65 -20t-55 -54t-38.5 -78t-14.5 -93q0 -58 22 -86t59 -28z" />
    <glyph glyph-name="uni1EA1" unicode="&#x1ea1;" horiz-adv-x="541" 
d="M177 -12q-64 0 -102 46t-38 132q0 70 22 131t59 106.5t84.5 71.5t97.5 26q38 0 68.5 -19.5t47.5 -52.5h2l21 60h74l-98 -489h-76l7 70h-3q-35 -37 -78.5 -59.5t-87.5 -22.5zM213 64q36 0 72 21.5t69 66.5l42 206q-18 36 -42 51t-49 15q-34 0 -65 -19.5t-55 -54
t-38.5 -78.5t-14.5 -93q0 -58 22 -86.5t59 -28.5zM197 -218q-21 0 -38 13t-17 37q0 27 19.5 45.5t45.5 18.5q22 0 38.5 -13.5t16.5 -37.5q0 -27 -19 -45t-46 -18z" />
    <glyph glyph-name="uni1EA3" unicode="&#x1ea3;" horiz-adv-x="541" 
d="M177 -12q-64 0 -102 46t-38 132q0 70 22 131t59 106.5t84.5 71.5t97.5 26q38 0 68.5 -19.5t47.5 -52.5h2l21 60h74l-98 -489h-76l7 70h-3q-35 -37 -78.5 -59.5t-87.5 -22.5zM213 64q36 0 72 21.5t69 66.5l42 206q-18 36 -42 51t-49 15q-34 0 -65 -19.5t-55 -54
t-38.5 -78.5t-14.5 -93q0 -58 22 -86.5t59 -28.5zM283 562l-5 43q33 8 48.5 23t15.5 35q0 21 -18 31.5t-53 12.5l17 58q65 -1 98 -21t33 -62q0 -46 -35 -78.5t-101 -41.5z" />
    <glyph glyph-name="uni1EA5" unicode="&#x1ea5;" horiz-adv-x="541" 
d="M177 -12q-64 0 -102 46t-38 132q0 70 22 131t59 106.5t84.5 71.5t97.5 26q38 0 68.5 -19.5t47.5 -52.5h2l21 60h74l-98 -489h-76l7 70h-3q-35 -37 -78.5 -59.5t-87.5 -22.5zM213 64q36 0 72 21.5t69 66.5l42 206q-18 36 -42 51t-49 15q-34 0 -65 -19.5t-55 -54
t-38.5 -78.5t-14.5 -93q0 -58 22 -86.5t59 -28.5zM166 570l147 141h80l91 -141h-65l-73 78h-3l-105 -78h-72zM444 665l92 119h77l6 -11l-120 -108h-55z" />
    <glyph glyph-name="uni1EA7" unicode="&#x1ea7;" horiz-adv-x="541" 
d="M177 -12q-64 0 -102 46t-38 132q0 70 22 131t59 106.5t84.5 71.5t97.5 26q38 0 68.5 -19.5t47.5 -52.5h2l21 60h74l-98 -489h-76l7 70h-3q-35 -37 -78.5 -59.5t-87.5 -22.5zM213 64q36 0 72 21.5t69 66.5l42 206q-18 36 -42 51t-49 15q-34 0 -65 -19.5t-55 -54
t-38.5 -78.5t-14.5 -93q0 -58 22 -86.5t59 -28.5zM166 570l147 141h80l91 -141h-65l-73 78h-3l-105 -78h-72zM199 665l-78 108l6 11h70l49 -119h-47z" />
    <glyph glyph-name="uni1EA9" unicode="&#x1ea9;" horiz-adv-x="541" 
d="M177 -12q-64 0 -102 46t-38 132q0 70 22 131t59 106.5t84.5 71.5t97.5 26q38 0 68.5 -19.5t47.5 -52.5h2l21 60h74l-98 -489h-76l7 70h-3q-35 -37 -78.5 -59.5t-87.5 -22.5zM213 64q36 0 72 21.5t69 66.5l42 206q-18 36 -42 51t-49 15q-34 0 -65 -19.5t-55 -54
t-38.5 -78.5t-14.5 -93q0 -58 22 -86.5t59 -28.5zM466 649l-4 38q23 6 34.5 16.5t11.5 26.5q0 15 -14.5 22.5t-47.5 9.5l13 57q56 0 87 -18t31 -53q0 -38 -30.5 -64.5t-80.5 -34.5zM166 570l147 141h80l91 -141h-65l-73 78h-3l-105 -78h-72z" />
    <glyph glyph-name="uni1EAB" unicode="&#x1eab;" horiz-adv-x="541" 
d="M177 -12q-64 0 -102 46t-38 132q0 70 22 131t59 106.5t84.5 71.5t97.5 26q38 0 68.5 -19.5t47.5 -52.5h2l21 60h74l-98 -489h-76l7 70h-3q-35 -37 -78.5 -59.5t-87.5 -22.5zM213 64q36 0 72 21.5t69 66.5l42 206q-18 36 -42 51t-49 15q-34 0 -65 -19.5t-55 -54
t-38.5 -78.5t-14.5 -93q0 -58 22 -86.5t59 -28.5zM427 726q-30 0 -50 10.5t-37 21t-37 10.5q-17 0 -26.5 -9.5t-16.5 -31.5l-49 5q10 44 33 69t58 25q29 0 49 -10.5t37 -21t37 -10.5q17 0 27 10.5t16 31.5l48 -5q-9 -44 -32 -69.5t-57 -25.5zM166 571l146 130h80l92 -130
h-65l-74 67h-3l-104 -67h-72z" />
    <glyph glyph-name="uni1EAD" unicode="&#x1ead;" horiz-adv-x="541" 
d="M177 -12q-64 0 -102 46t-38 132q0 70 22 131t59 106.5t84.5 71.5t97.5 26q38 0 68.5 -19.5t47.5 -52.5h2l21 60h74l-98 -489h-76l7 70h-3q-35 -37 -78.5 -59.5t-87.5 -22.5zM213 64q36 0 72 21.5t69 66.5l42 206q-18 36 -42 51t-49 15q-34 0 -65 -19.5t-55 -54
t-38.5 -78.5t-14.5 -93q0 -58 22 -86.5t59 -28.5zM156 570l160 176h88l90 -176h-72l-69 104h-4l-115 -104h-78zM197 -218q-21 0 -38 13t-17 37q0 27 19.5 45.5t45.5 18.5q22 0 38.5 -13.5t16.5 -37.5q0 -27 -19 -45t-46 -18z" />
    <glyph glyph-name="uni1EAF" unicode="&#x1eaf;" horiz-adv-x="541" 
d="M177 -12q-64 0 -102 46t-38 132q0 70 22 131t59 106.5t84.5 71.5t97.5 26q38 0 68.5 -19.5t47.5 -52.5h2l21 60h74l-98 -489h-76l7 70h-3q-35 -37 -78.5 -59.5t-87.5 -22.5zM213 64q36 0 72 21.5t69 66.5l42 206q-18 36 -42 51t-49 15q-34 0 -65 -19.5t-55 -54
t-38.5 -78.5t-14.5 -93q0 -58 22 -86.5t59 -28.5zM348 571q-47 0 -76 20t-43 55t-14 78l57 9q0 -29 8.5 -52t28 -36.5t51.5 -13.5t56.5 15t41 38.5t24.5 49.5l54 -10q-9 -39 -32 -74t-61.5 -57t-94.5 -22zM327 719l92 120h76l6 -11l-120 -109h-54z" />
    <glyph glyph-name="uni1EB1" unicode="&#x1eb1;" horiz-adv-x="541" 
d="M177 -12q-64 0 -102 46t-38 132q0 70 22 131t59 106.5t84.5 71.5t97.5 26q38 0 68.5 -19.5t47.5 -52.5h2l21 60h74l-98 -489h-76l7 70h-3q-35 -37 -78.5 -59.5t-87.5 -22.5zM213 64q36 0 72 21.5t69 66.5l42 206q-18 36 -42 51t-49 15q-34 0 -65 -19.5t-55 -54
t-38.5 -78.5t-14.5 -93q0 -58 22 -86.5t59 -28.5zM348 571q-47 0 -76 20t-43 55t-14 78l57 9q0 -29 8.5 -52t28 -36.5t51.5 -13.5t56.5 15t41 38.5t24.5 49.5l54 -10q-9 -39 -32 -74t-61.5 -57t-94.5 -22zM376 719l-79 109l6 11h70l49 -120h-46z" />
    <glyph glyph-name="uni1EB3" unicode="&#x1eb3;" horiz-adv-x="541" 
d="M177 -12q-64 0 -102 46t-38 132q0 70 22 131t59 106.5t84.5 71.5t97.5 26q38 0 68.5 -19.5t47.5 -52.5h2l21 60h74l-98 -489h-76l7 70h-3q-35 -37 -78.5 -59.5t-87.5 -22.5zM213 64q36 0 72 21.5t69 66.5l42 206q-18 36 -42 51t-49 15q-34 0 -65 -19.5t-55 -54
t-38.5 -78.5t-14.5 -93q0 -58 22 -86.5t59 -28.5zM348 571q-47 0 -76 20t-43 55t-14 78l57 9q0 -29 8.5 -52t28 -36.5t51.5 -13.5t56.5 15t41 38.5t24.5 49.5l54 -10q-9 -39 -32 -74t-61.5 -57t-94.5 -22zM343 691l-4 39q25 5 39.5 16t14.5 27q0 17 -15.5 24.5t-51.5 9.5
l14 57q58 -1 90 -19t32 -53q0 -40 -34.5 -66.5t-84.5 -34.5z" />
    <glyph glyph-name="uni1EB5" unicode="&#x1eb5;" horiz-adv-x="541" 
d="M177 -12q-64 0 -102 46t-38 132q0 70 22 131t59 106.5t84.5 71.5t97.5 26q38 0 68.5 -19.5t47.5 -52.5h2l21 60h74l-98 -489h-76l7 70h-3q-35 -37 -78.5 -59.5t-87.5 -22.5zM213 64q36 0 72 21.5t69 66.5l42 206q-18 36 -42 51t-49 15q-34 0 -65 -19.5t-55 -54
t-38.5 -78.5t-14.5 -93q0 -58 22 -86.5t59 -28.5zM347 571q-46 0 -74 16.5t-41 42.5t-13 55l54 8q1 -23 20 -43t63 -20q46 0 72.5 20t34.5 43l53 -8q-8 -28 -29 -54.5t-55.5 -43t-84.5 -16.5zM448 723q-23 0 -39.5 7.5t-29.5 17t-25.5 16.5t-28.5 7q-37 0 -50 -44l-48 5
q11 46 35 72t60 26q23 0 39 -7.5t29 -17t26 -17t29 -7.5q36 0 49 45l48 -5q-10 -45 -34 -71.5t-60 -26.5z" />
    <glyph glyph-name="uni1EB7" unicode="&#x1eb7;" horiz-adv-x="541" 
d="M177 -12q-64 0 -102 46t-38 132q0 70 22 131t59 106.5t84.5 71.5t97.5 26q38 0 68.5 -19.5t47.5 -52.5h2l21 60h74l-98 -489h-76l7 70h-3q-35 -37 -78.5 -59.5t-87.5 -22.5zM213 64q36 0 72 21.5t69 66.5l42 206q-18 36 -42 51t-49 15q-34 0 -65 -19.5t-55 -54
t-38.5 -78.5t-14.5 -93q0 -58 22 -86.5t59 -28.5zM326 571q-47 0 -76 19.5t-43 54.5t-14 79l62 9q0 -27 8.5 -49t26.5 -35t49 -13q30 0 53.5 14t39 36.5t24.5 47.5l58 -10q-9 -39 -32 -74t-61.5 -57t-94.5 -22zM197 -218q-21 0 -38 13t-17 37q0 27 19.5 45.5t45.5 18.5
q22 0 38.5 -13.5t16.5 -37.5q0 -27 -19 -45t-46 -18z" />
    <glyph glyph-name="aringacute" unicode="&#x1fb;" horiz-adv-x="541" 
d="M177 -12q-64 0 -102 46t-38 132q0 70 22 131t59 106.5t84.5 71.5t97.5 26q38 0 68.5 -19.5t47.5 -52.5h2l21 60h74l-98 -489h-76l7 70h-3q-35 -37 -78.5 -59.5t-87.5 -22.5zM213 64q36 0 72 21.5t69 66.5l42 206q-18 36 -42 51t-49 15q-34 0 -65 -19.5t-55 -54
t-38.5 -78.5t-14.5 -93q0 -58 22 -86.5t59 -28.5zM331 559q-42 0 -71 21.5t-29 60.5q0 24 8 40.5t23.5 32t39.5 34.5l114 96h87l6 -11l-144 -97l-7 8q43 0 71.5 -20t28.5 -59q0 -43 -35.5 -74.5t-91.5 -31.5zM337 599q24 0 41.5 19t17.5 44q0 21 -11.5 34t-32.5 13
q-24 0 -41.5 -19t-17.5 -46q0 -19 11.5 -32t32.5 -13z" />
    <glyph glyph-name="ae" unicode="&#xe6;" horiz-adv-x="760" 
d="M156 -12q-52 0 -89.5 31t-37.5 89q0 70 41 112t112 62t162 23q3 11 4 19.5t1 16.5q0 43 -19 64.5t-61 21.5q-28 0 -62 -11t-67 -30l-31 65q37 20 84 35t86 15q51 0 86.5 -21.5t46.5 -66.5q33 41 75.5 64.5t85.5 23.5q56 0 90 -24t49 -64t15 -91q0 -21 -3 -40t-7 -35
t-9 -28h-295q-8 -50 5.5 -85t42 -53t66.5 -18q30 0 57 10t49 26l33 -57q-29 -23 -68.5 -38.5t-88.5 -15.5q-52 0 -94 26.5t-61 65.5q-46 -44 -95 -68t-103 -24zM192 63q28 0 64.5 18t74.5 59q-4 28 -4 49.5t5 50.5q-67 -2 -114 -15t-72 -37.5t-25 -60.5q0 -32 19.5 -48
t51.5 -16zM424 289h222q2 9 3 19.5t1 20.5q0 26 -8 48t-27 36t-52 14q-27 0 -55 -16.5t-50 -47.5t-34 -74z" />
    <glyph glyph-name="aeacute" unicode="&#x1fd;" horiz-adv-x="759" 
d="M156 -12q-52 0 -89.5 31t-37.5 89q0 70 41 112t112 62t162 23q3 11 4 19.5t1 16.5q0 43 -19 64.5t-61 21.5q-28 0 -62 -11t-67 -30l-31 65q37 20 84 35t86 15q51 0 86.5 -21.5t46.5 -66.5q33 41 75.5 64.5t85.5 23.5q56 0 90 -24t49 -64t15 -91q0 -21 -3 -40t-7 -35
t-9 -28h-295q-8 -50 5.5 -85t42 -53t66.5 -18q30 0 57 10t49 26l33 -57q-29 -23 -68.5 -38.5t-88.5 -15.5q-52 0 -94 26.5t-61 65.5q-46 -44 -95 -68t-103 -24zM192 63q28 0 64.5 18t74.5 59q-4 28 -4 49.5t5 50.5q-67 -2 -114 -15t-72 -37.5t-25 -60.5q0 -32 19.5 -48
t51.5 -16zM424 289h222q2 9 3 19.5t1 20.5q0 26 -8 48t-27 36t-52 14q-27 0 -55 -16.5t-50 -47.5t-34 -74zM363 580l156 169h107l5 -10l-189 -159h-79z" />
    <glyph glyph-name="uni01E3" unicode="&#x1e3;" horiz-adv-x="759" 
d="M156 -12q-52 0 -89.5 31t-37.5 89q0 70 41 112t112 62t162 23q3 11 4 19.5t1 16.5q0 43 -19 64.5t-61 21.5q-28 0 -62 -11t-67 -30l-31 65q37 20 84 35t86 15q51 0 86.5 -21.5t46.5 -66.5q33 41 75.5 64.5t85.5 23.5q56 0 90 -24t49 -64t15 -91q0 -21 -3 -40t-7 -35
t-9 -28h-295q-8 -50 5.5 -85t42 -53t66.5 -18q30 0 57 10t49 26l33 -57q-29 -23 -68.5 -38.5t-88.5 -15.5q-52 0 -94 26.5t-61 65.5q-46 -44 -95 -68t-103 -24zM192 63q28 0 64.5 18t74.5 59q-4 28 -4 49.5t5 50.5q-67 -2 -114 -15t-72 -37.5t-25 -60.5q0 -32 19.5 -48
t51.5 -16zM424 289h222q2 9 3 19.5t1 20.5q0 26 -8 48t-27 36t-52 14q-27 0 -55 -16.5t-50 -47.5t-34 -74zM325 610l11 62h262l-11 -62h-262z" />
    <glyph glyph-name="uni2C65" unicode="&#x2c65;" horiz-adv-x="540" 
d="M134 -55l-35 16l296 588l35 -15zM177 -12q-64 0 -102 46t-38 132q0 70 22 131t59 106.5t84.5 71.5t97.5 26q38 0 68.5 -19.5t47.5 -52.5h2l21 60h74l-98 -489h-76l7 70h-3q-35 -37 -78.5 -59.5t-87.5 -22.5zM213 64q36 0 72 21.5t69 66.5l42 206q-18 36 -42 51t-49 15
q-34 0 -65 -19.5t-55 -54t-38.5 -78.5t-14.5 -93q0 -58 22 -86.5t59 -28.5z" />
    <glyph glyph-name="uni0180" unicode="&#x180;" horiz-adv-x="548" 
d="M254 -12q-39 0 -70 19.5t-48 51.5h-2l-21 -59h-77l143 709h92l-43 -217l-23 -95h2q36 29 76.5 48.5t83.5 19.5q64 0 102 -44.5t38 -127.5q0 -64 -21 -119t-57 -97t-81 -65.5t-94 -23.5zM249 64q32 0 61 17.5t52 48t36 69t13 80.5q0 56 -21.5 83t-58.5 27
q-31 0 -68.5 -19.5t-69.5 -55.5l-38 -184q18 -34 42 -50t52 -16zM67 550l12 64l83 6h264l-14 -70h-345z" />
    <glyph glyph-name="uni0253" unicode="&#x253;" horiz-adv-x="540" 
d="M239 -12q-37 0 -66.5 19.5t-46.5 51.5h-3l-20 -59h-76l111 555q10 52 32.5 89.5t57.5 57t85 19.5q30 0 55 -6.5t47 -20.5l-32 -63q-13 7 -28.5 11.5t-35.5 4.5q-35 0 -56.5 -21.5t-31.5 -62.5l-9 -45l-23 -95h2q35 29 76 48.5t83 19.5q65 0 102.5 -44.5t37.5 -128.5
q0 -69 -21 -129t-58.5 -105t-84 -70.5t-97.5 -25.5zM235 65q33 0 64 19t54.5 52.5t37.5 77t14 91.5q0 56 -21.5 82.5t-59.5 26.5q-31 0 -68.5 -19t-68.5 -55l-43 -210q19 -34 42 -49.5t49 -15.5z" />
    <glyph glyph-name="uni1E03" unicode="&#x1e03;" horiz-adv-x="540" 
d="M239 -12q-37 0 -66.5 19.5t-46.5 51.5h-3l-20 -59h-76l142 709h92l-37 -182l-23 -95h2q35 29 76 49t83 20q65 0 102.5 -46t37.5 -132q0 -70 -21.5 -131t-59 -107t-84.5 -71.5t-98 -25.5zM235 65q33 0 64 19.5t55.5 53.5t38.5 78.5t14 93.5q0 58 -21.5 86t-59.5 28
q-31 0 -68.5 -19t-68.5 -55l-45 -220q19 -34 42 -49.5t49 -15.5zM394 583q-21 0 -38 13t-17 37q0 27 19.5 45.5t45.5 18.5q22 0 38.5 -13.5t16.5 -37.5q0 -27 -19 -45t-46 -18z" />
    <glyph glyph-name="uni1E07" unicode="&#x1e07;" horiz-adv-x="540" 
d="M239 -12q-37 0 -66.5 19.5t-46.5 51.5h-3l-20 -59h-76l142 709h92l-37 -182l-23 -95h2q35 29 76 49t83 20q65 0 102.5 -46t37.5 -132q0 -70 -21.5 -131t-59 -107t-84.5 -71.5t-98 -25.5zM235 65q33 0 64 19.5t55.5 53.5t38.5 78.5t14 93.5q0 58 -21.5 86t-59.5 28
q-31 0 -68.5 -19t-68.5 -55l-45 -220q19 -34 42 -49.5t49 -15.5zM67 -161l11 62h262l-11 -62h-262z" />
    <glyph glyph-name="ccedilla" unicode="&#xe7;" horiz-adv-x="437" 
d="M218 -12q-53 0 -94.5 23t-65 67t-23.5 108q0 67 22.5 124t60.5 100t88 67t105 24q46 0 78 -18t50 -42l-50 -52q-17 18 -36 27t-47 9q-35 0 -66.5 -19t-56 -51.5t-39 -75t-14.5 -89.5q0 -60 26.5 -93.5t79.5 -33.5q29 0 55.5 12.5t46.5 27.5l39 -53q-28 -25 -67.5 -43.5
t-91.5 -18.5zM71 -230l-1 45q60 2 87.5 15t29.5 36q1 19 -14.5 29t-54.5 14l61 94h62l-41 -67q37 -9 50.5 -24t10.5 -42q-5 -48 -55.5 -72.5t-134.5 -27.5z" />
    <glyph glyph-name="cacute" unicode="&#x107;" horiz-adv-x="437" 
d="M218 -12q-53 0 -94.5 23t-65 67t-23.5 108q0 67 22.5 124t60.5 100t88 67t105 24q46 0 78 -18t50 -42l-50 -52q-17 18 -36 27t-47 9q-35 0 -66.5 -19t-56 -51.5t-39 -75t-14.5 -89.5q0 -60 26.5 -93.5t79.5 -33.5q29 0 55.5 12.5t46.5 27.5l39 -53q-28 -25 -67.5 -43.5
t-91.5 -18.5zM224 570l156 169h107l5 -10l-189 -159h-79z" />
    <glyph glyph-name="ccircumflex" unicode="&#x109;" horiz-adv-x="437" 
d="M218 -12q-53 0 -94.5 23t-65 67t-23.5 108q0 67 22.5 124t60.5 100t88 67t105 24q46 0 78 -18t50 -42l-50 -52q-17 18 -36 27t-47 9q-35 0 -66.5 -19t-56 -51.5t-39 -75t-14.5 -89.5q0 -60 26.5 -93.5t79.5 -33.5q29 0 55.5 12.5t46.5 27.5l39 -53q-28 -25 -67.5 -43.5
t-91.5 -18.5zM140 570l160 176h88l90 -176h-72l-69 104h-4l-115 -104h-78z" />
    <glyph glyph-name="cdotaccent" unicode="&#x10b;" horiz-adv-x="437" 
d="M218 -12q-53 0 -94.5 23t-65 67t-23.5 108q0 67 22.5 124t60.5 100t88 67t105 24q46 0 78 -18t50 -42l-50 -52q-17 18 -36 27t-47 9q-35 0 -66.5 -19t-56 -51.5t-39 -75t-14.5 -89.5q0 -60 26.5 -93.5t79.5 -33.5q29 0 55.5 12.5t46.5 27.5l39 -53q-28 -25 -67.5 -43.5
t-91.5 -18.5zM319 583q-21 0 -38 13t-17 37q0 27 19.5 45.5t45.5 18.5q22 0 38.5 -13.5t16.5 -37.5q0 -27 -19 -45t-46 -18z" />
    <glyph glyph-name="ccaron" unicode="&#x10d;" horiz-adv-x="437" 
d="M218 -12q-53 0 -94.5 23t-65 67t-23.5 108q0 67 22.5 124t60.5 100t88 67t105 24q46 0 78 -18t50 -42l-50 -52q-17 18 -36 27t-47 9q-35 0 -66.5 -19t-56 -51.5t-39 -75t-14.5 -89.5q0 -60 26.5 -93.5t79.5 -33.5q29 0 55.5 12.5t46.5 27.5l39 -53q-28 -25 -67.5 -43.5
t-91.5 -18.5zM270 570l-90 176h71l70 -104h4l114 104h79l-160 -176h-88z" />
    <glyph glyph-name="uni023C" unicode="&#x23c;" horiz-adv-x="437" 
d="M143 -55l-35 16l275 588l35 -15zM218 -12q-53 0 -94.5 23t-65 67t-23.5 108q0 67 22.5 124t60.5 100t88 67t105 24q46 0 78 -18t50 -42l-50 -52q-17 18 -36 27t-47 9q-35 0 -66.5 -19t-56 -51.5t-39 -75t-14.5 -89.5q0 -60 26.5 -93.5t79.5 -33.5q29 0 55.5 12.5
t46.5 27.5l39 -53q-28 -25 -67.5 -43.5t-91.5 -18.5z" />
    <glyph glyph-name="uni1E0B" unicode="&#x1e0b;" horiz-adv-x="538" 
d="M177 -12q-64 0 -102 46t-38 132q0 70 22 131t59.5 106.5t84.5 71.5t97 26q38 0 67 -19t45 -50h3l15 95l36 182h92l-143 -709h-75l6 70h-3q-35 -36 -78.5 -59t-87.5 -23zM213 65q36 0 71.5 20.5t69.5 66.5l42 206q-19 36 -42.5 51t-48.5 15q-34 0 -65 -20t-55 -54
t-38.5 -78t-14.5 -93q0 -58 22 -86t59 -28zM290 583q-21 0 -38 13t-17 37q0 27 19.5 45.5t45.5 18.5q22 0 38.5 -13.5t16.5 -37.5q0 -27 -19 -45t-46 -18z" />
    <glyph glyph-name="dcaron" unicode="&#x10f;" horiz-adv-x="549" 
d="M177 -12q-64 0 -102 46t-38 132q0 70 22 131t59.5 106.5t84.5 71.5t97 26q38 0 67 -19t45 -50h3l15 95l36 182h92l-143 -709h-75l6 70h-3q-35 -36 -78.5 -59t-87.5 -23zM213 65q36 0 71.5 20.5t69.5 66.5l42 206q-19 36 -42.5 51t-48.5 15q-34 0 -65 -20t-55 -54
t-38.5 -78t-14.5 -93q0 -58 22 -86t59 -28zM571 548l40 215h63l-12 -61l-46 -154h-45z" />
    <glyph glyph-name="uni1E0D" unicode="&#x1e0d;" horiz-adv-x="538" 
d="M177 -12q-64 0 -102 46t-38 132q0 70 22 131t59.5 106.5t84.5 71.5t97 26q38 0 67 -19t45 -50h3l15 95l36 182h92l-143 -709h-75l6 70h-3q-35 -36 -78.5 -59t-87.5 -23zM213 65q36 0 71.5 20.5t69.5 66.5l42 206q-19 36 -42.5 51t-48.5 15q-34 0 -65 -20t-55 -54
t-38.5 -78t-14.5 -93q0 -58 22 -86t59 -28zM177 -218q-21 0 -38 13t-17 37q0 27 19.5 45.5t45.5 18.5q22 0 38.5 -13.5t16.5 -37.5q0 -27 -19 -45t-46 -18z" />
    <glyph glyph-name="uni1E0F" unicode="&#x1e0f;" horiz-adv-x="538" 
d="M177 -12q-64 0 -102 46t-38 132q0 70 22 131t59.5 106.5t84.5 71.5t97 26q38 0 67 -19t45 -50h3l15 95l36 182h92l-143 -709h-75l6 70h-3q-35 -36 -78.5 -59t-87.5 -23zM213 65q36 0 71.5 20.5t69.5 66.5l42 206q-19 36 -42.5 51t-48.5 15q-34 0 -65 -20t-55 -54
t-38.5 -78t-14.5 -93q0 -58 22 -86t59 -28zM52 -161l11 62h262l-11 -62h-262z" />
    <glyph glyph-name="uni1E11" unicode="&#x1e11;" horiz-adv-x="538" 
d="M177 -12q-64 0 -102 46t-38 132q0 70 22 131t59.5 106.5t84.5 71.5t97 26q38 0 67 -19t45 -50h3l15 95l36 182h92l-143 -709h-75l6 70h-3q-35 -36 -78.5 -59t-87.5 -23zM213 65q36 0 71.5 20.5t69.5 66.5l42 206q-19 36 -42.5 51t-48.5 15q-34 0 -65 -20t-55 -54
t-38.5 -78t-14.5 -93q0 -58 22 -86t59 -28zM49 -230l-1 45q60 2 87.5 15t29.5 36q1 19 -14.5 29t-54.5 14l61 94h62l-41 -67q37 -9 50.5 -24t10.5 -42q-5 -48 -55.5 -72.5t-134.5 -27.5z" />
    <glyph glyph-name="dcroat" unicode="&#x111;" horiz-adv-x="541" 
d="M177 -12q-64 0 -102 46t-38 132q0 61 21 115t57 95.5t81.5 65t93.5 23.5q39 0 69 -18.5t46 -50.5h3l15 96l43 217h92l-143 -709h-76l7 70h-3q-35 -37 -78.5 -59.5t-87.5 -22.5zM213 64q36 0 71.5 21.5t69.5 66.5l35 171q-18 34 -41.5 50t-51.5 16q-32 0 -61.5 -17.5
t-52 -47.5t-36.5 -67.5t-14 -77.5q0 -58 22 -86.5t59 -28.5zM272 550l14 70h326l-14 -65l-74 -5h-252z" />
    <glyph glyph-name="egrave" unicode="&#xe8;" horiz-adv-x="485" 
d="M234 -12q-91 0 -145 53.5t-54 152.5q0 69 23 125t61 96.5t84.5 63t94.5 22.5q57 0 91 -24t49 -64t15 -91q0 -21 -2.5 -39.5t-7 -34.5t-8.5 -29h-332l8 70h259q3 12 4 20t1 19q0 26 -8 48.5t-27.5 36.5t-51.5 14q-25 0 -53.5 -14.5t-52.5 -42.5t-39.5 -69t-15.5 -92
q0 -58 16 -89.5t44 -44t65 -12.5q31 0 57.5 10t48.5 26l34 -57q-30 -24 -69.5 -39t-88.5 -15zM323 570l-127 159l6 10h99l94 -169h-72z" />
    <glyph glyph-name="eacute" unicode="&#xe9;" horiz-adv-x="485" 
d="M234 -12q-91 0 -145 53.5t-54 152.5q0 69 23 125t61 96.5t84.5 63t94.5 22.5q57 0 91 -24t49 -64t15 -91q0 -21 -2.5 -39.5t-7 -34.5t-8.5 -29h-332l8 70h259q3 12 4 20t1 19q0 26 -8 48.5t-27.5 36.5t-51.5 14q-25 0 -53.5 -14.5t-52.5 -42.5t-39.5 -69t-15.5 -92
q0 -58 16 -89.5t44 -44t65 -12.5q31 0 57.5 10t48.5 26l34 -57q-30 -24 -69.5 -39t-88.5 -15zM230 570l156 169h107l5 -10l-189 -159h-79z" />
    <glyph glyph-name="ecircumflex" unicode="&#xea;" horiz-adv-x="485" 
d="M234 -12q-91 0 -145 53.5t-54 152.5q0 69 23 125t61 96.5t84.5 63t94.5 22.5q57 0 91 -24t49 -64t15 -91q0 -21 -2.5 -39.5t-7 -34.5t-8.5 -29h-332l8 70h259q3 12 4 20t1 19q0 26 -8 48.5t-27.5 36.5t-51.5 14q-25 0 -53.5 -14.5t-52.5 -42.5t-39.5 -69t-15.5 -92
q0 -58 16 -89.5t44 -44t65 -12.5q31 0 57.5 10t48.5 26l34 -57q-30 -24 -69.5 -39t-88.5 -15zM146 570l160 176h88l90 -176h-72l-69 104h-4l-115 -104h-78z" />
    <glyph glyph-name="uni1EBD" unicode="&#x1ebd;" horiz-adv-x="485" 
d="M234 -12q-91 0 -145 53.5t-54 152.5q0 69 23 125t61 96.5t84.5 63t94.5 22.5q57 0 91 -24t49 -64t15 -91q0 -21 -2.5 -39.5t-7 -34.5t-8.5 -29h-332l8 70h259q3 12 4 20t1 19q0 26 -8 48.5t-27.5 36.5t-51.5 14q-25 0 -53.5 -14.5t-52.5 -42.5t-39.5 -69t-15.5 -92
q0 -58 16 -89.5t44 -44t65 -12.5q31 0 57.5 10t48.5 26l34 -57q-30 -24 -69.5 -39t-88.5 -15zM402 576q-27 0 -44.5 12t-30.5 28t-26.5 28t-31.5 12q-20 0 -34 -20t-21 -54l-64 4q8 42 23.5 73.5t40 48.5t56.5 17q27 0 44.5 -12t30.5 -27.5t26.5 -27.5t31.5 -12q21 0 35 20
t21 54l63 -4q-7 -42 -23 -73.5t-40 -49t-57 -17.5z" />
    <glyph glyph-name="edieresis" unicode="&#xeb;" horiz-adv-x="485" 
d="M234 -12q-91 0 -145 53.5t-54 152.5q0 69 23 125t61 96.5t84.5 63t94.5 22.5q57 0 91 -24t49 -64t15 -91q0 -21 -2.5 -39.5t-7 -34.5t-8.5 -29h-332l8 70h259q3 12 4 20t1 19q0 26 -8 48.5t-27.5 36.5t-51.5 14q-25 0 -53.5 -14.5t-52.5 -42.5t-39.5 -69t-15.5 -92
q0 -58 16 -89.5t44 -44t65 -12.5q31 0 57.5 10t48.5 26l34 -57q-30 -24 -69.5 -39t-88.5 -15zM228 585q-19 0 -32 11.5t-13 33.5q0 24 17 41.5t40 17.5q20 0 33 -12t13 -34q0 -24 -17 -41t-41 -17zM421 585q-20 0 -33 11.5t-13 33.5q0 24 17 41.5t41 17.5q19 0 32 -12
t13 -34q0 -24 -17 -41t-40 -17z" />
    <glyph glyph-name="emacron" unicode="&#x113;" horiz-adv-x="485" 
d="M234 -12q-91 0 -145 53.5t-54 152.5q0 69 23 125t61 96.5t84.5 63t94.5 22.5q57 0 91 -24t49 -64t15 -91q0 -21 -2.5 -39.5t-7 -34.5t-8.5 -29h-332l8 70h259q3 12 4 20t1 19q0 26 -8 48.5t-27.5 36.5t-51.5 14q-25 0 -53.5 -14.5t-52.5 -42.5t-39.5 -69t-15.5 -92
q0 -58 16 -89.5t44 -44t65 -12.5q31 0 57.5 10t48.5 26l34 -57q-30 -24 -69.5 -39t-88.5 -15zM192 600l11 62h262l-11 -62h-262z" />
    <glyph glyph-name="ebreve" unicode="&#x115;" horiz-adv-x="485" 
d="M234 -12q-91 0 -145 53.5t-54 152.5q0 69 23 125t61 96.5t84.5 63t94.5 22.5q57 0 91 -24t49 -64t15 -91q0 -21 -2.5 -39.5t-7 -34.5t-8.5 -29h-332l8 70h259q3 12 4 20t1 19q0 26 -8 48.5t-27.5 36.5t-51.5 14q-25 0 -53.5 -14.5t-52.5 -42.5t-39.5 -69t-15.5 -92
q0 -58 16 -89.5t44 -44t65 -12.5q31 0 57.5 10t48.5 26l34 -57q-30 -24 -69.5 -39t-88.5 -15zM316 571q-47 0 -76 19.5t-43 54.5t-14 79l62 9q0 -27 8.5 -49t26.5 -35t49 -13q30 0 53.5 14t39 36.5t24.5 47.5l58 -10q-9 -39 -32 -74t-61.5 -57t-94.5 -22z" />
    <glyph glyph-name="edotaccent" unicode="&#x117;" horiz-adv-x="485" 
d="M234 -12q-91 0 -145 53.5t-54 152.5q0 69 23 125t61 96.5t84.5 63t94.5 22.5q57 0 91 -24t49 -64t15 -91q0 -21 -2.5 -39.5t-7 -34.5t-8.5 -29h-332l8 70h259q3 12 4 20t1 19q0 26 -8 48.5t-27.5 36.5t-51.5 14q-25 0 -53.5 -14.5t-52.5 -42.5t-39.5 -69t-15.5 -92
q0 -58 16 -89.5t44 -44t65 -12.5q31 0 57.5 10t48.5 26l34 -57q-30 -24 -69.5 -39t-88.5 -15zM325 583q-21 0 -38 13t-17 37q0 27 19.5 45.5t45.5 18.5q22 0 38.5 -13.5t16.5 -37.5q0 -27 -19 -45t-46 -18z" />
    <glyph glyph-name="ecaron" unicode="&#x11b;" horiz-adv-x="485" 
d="M234 -12q-91 0 -145 53.5t-54 152.5q0 69 23 125t61 96.5t84.5 63t94.5 22.5q57 0 91 -24t49 -64t15 -91q0 -21 -2.5 -39.5t-7 -34.5t-8.5 -29h-332l8 70h259q3 12 4 20t1 19q0 26 -8 48.5t-27.5 36.5t-51.5 14q-25 0 -53.5 -14.5t-52.5 -42.5t-39.5 -69t-15.5 -92
q0 -58 16 -89.5t44 -44t65 -12.5q31 0 57.5 10t48.5 26l34 -57q-30 -24 -69.5 -39t-88.5 -15zM276 570l-90 176h71l70 -104h4l114 104h79l-160 -176h-88z" />
    <glyph glyph-name="uni0205" unicode="&#x205;" horiz-adv-x="485" 
d="M234 -12q-91 0 -145 53.5t-54 152.5q0 69 23 125t61 96.5t84.5 63t94.5 22.5q57 0 91 -24t49 -64t15 -91q0 -21 -2.5 -39.5t-7 -34.5t-8.5 -29h-332l8 70h259q3 12 4 20t1 19q0 26 -8 48.5t-27.5 36.5t-51.5 14q-25 0 -53.5 -14.5t-52.5 -42.5t-39.5 -69t-15.5 -92
q0 -58 16 -89.5t44 -44t65 -12.5q31 0 57.5 10t48.5 26l34 -57q-30 -24 -69.5 -39t-88.5 -15zM208 570l-87 159l6 10h80l58 -169h-57zM373 570l-87 159l6 10h79l59 -169h-57z" />
    <glyph glyph-name="eogonek" unicode="&#x119;" horiz-adv-x="484" 
d="M256 -216q-36 0 -59.5 19.5t-23.5 56.5q0 40 26.5 76t68.5 66l7 -8q-9 -2 -20.5 -4t-20.5 -2q-91 0 -145 53.5t-54 152.5q0 69 23 125t61 96.5t84.5 63t94.5 22.5q57 0 91 -24t49 -64t15 -91q0 -21 -2.5 -39.5t-7 -34.5t-8.5 -29h-332l8 70h259q3 12 4 20t1 19
q0 26 -8 48.5t-27.5 36.5t-51.5 14q-25 0 -53.5 -14.5t-52.5 -42.5t-39.5 -69t-15.5 -92q0 -58 16 -89.5t44 -44t65 -12.5q31 0 57.5 10t48.5 26l34 -57q-78 -48 -109.5 -85.5t-31.5 -71.5q0 -17 11 -27.5t27 -10.5q13 0 22.5 4t20.5 11l21 -43q-21 -16 -45 -25.5t-52 -9.5z
" />
    <glyph glyph-name="eogonek.d" horiz-adv-x="484" 
d="M190 -216q-36 0 -59 19.5t-23 56.5q0 28 15 55.5t40 49.5t56 36l15 -13q-91 0 -145 53.5t-54 152.5q0 69 23 125t61 96.5t84.5 63t94.5 22.5q57 0 91 -24t49 -64t15 -91q0 -21 -2.5 -39.5t-7 -34.5t-8.5 -29h-332l8 70h259q3 12 4 20t1 19q0 26 -8 48.5t-27.5 36.5
t-51.5 14q-25 0 -53.5 -14.5t-52.5 -42.5t-39.5 -69t-15.5 -92q0 -58 16 -89.5t44 -44t65 -12.5q31 0 57.5 10t48.5 26l34 -57q-26 -19 -47 -29t-51 -19q-60 -19 -84.5 -48.5t-24.5 -60.5q0 -17 10.5 -27.5t27.5 -10.5q13 0 23 4t21 11l20 -43q-21 -16 -44.5 -25.5
t-52.5 -9.5z" />
    <glyph glyph-name="uni1EB9" unicode="&#x1eb9;" horiz-adv-x="485" 
d="M234 -12q-91 0 -145 53.5t-54 152.5q0 69 23 125t61 96.5t84.5 63t94.5 22.5q57 0 91 -24t49 -64t15 -91q0 -21 -2.5 -39.5t-7 -34.5t-8.5 -29h-332l8 70h259q3 12 4 20t1 19q0 26 -8 48.5t-27.5 36.5t-51.5 14q-25 0 -53.5 -14.5t-52.5 -42.5t-39.5 -69t-15.5 -92
q0 -58 16 -89.5t44 -44t65 -12.5q31 0 57.5 10t48.5 26l34 -57q-30 -24 -69.5 -39t-88.5 -15zM181 -218q-21 0 -38 13t-17 37q0 27 19.5 45.5t45.5 18.5q22 0 38.5 -13.5t16.5 -37.5q0 -27 -19 -45t-46 -18z" />
    <glyph glyph-name="uni1EBB" unicode="&#x1ebb;" horiz-adv-x="485" 
d="M234 -12q-91 0 -145 53.5t-54 152.5q0 69 23 125t61 96.5t84.5 63t94.5 22.5q57 0 91 -24t49 -64t15 -91q0 -21 -2.5 -39.5t-7 -34.5t-8.5 -29h-332l8 70h259q3 12 4 20t1 19q0 26 -8 48.5t-27.5 36.5t-51.5 14q-25 0 -53.5 -14.5t-52.5 -42.5t-39.5 -69t-15.5 -92
q0 -58 16 -89.5t44 -44t65 -12.5q31 0 57.5 10t48.5 26l34 -57q-30 -24 -69.5 -39t-88.5 -15zM273 562l-5 43q33 8 48.5 23t15.5 35q0 21 -18 31.5t-53 12.5l17 58q65 -1 98 -21t33 -62q0 -46 -35 -78.5t-101 -41.5z" />
    <glyph glyph-name="uni1EBF" unicode="&#x1ebf;" horiz-adv-x="485" 
d="M234 -12q-91 0 -145 53.5t-54 152.5q0 69 23 125t61 96.5t84.5 63t94.5 22.5q57 0 91 -24t49 -64t15 -91q0 -21 -2.5 -39.5t-7 -34.5t-8.5 -29h-332l8 70h259q3 12 4 20t1 19q0 26 -8 48.5t-27.5 36.5t-51.5 14q-25 0 -53.5 -14.5t-52.5 -42.5t-39.5 -69t-15.5 -92
q0 -58 16 -89.5t44 -44t65 -12.5q31 0 57.5 10t48.5 26l34 -57q-30 -24 -69.5 -39t-88.5 -15zM156 570l147 141h80l91 -141h-65l-73 78h-3l-105 -78h-72zM434 665l92 119h77l6 -11l-120 -108h-55z" />
    <glyph glyph-name="uni1EC1" unicode="&#x1ec1;" horiz-adv-x="485" 
d="M234 -12q-91 0 -145 53.5t-54 152.5q0 69 23 125t61 96.5t84.5 63t94.5 22.5q57 0 91 -24t49 -64t15 -91q0 -21 -2.5 -39.5t-7 -34.5t-8.5 -29h-332l8 70h259q3 12 4 20t1 19q0 26 -8 48.5t-27.5 36.5t-51.5 14q-25 0 -53.5 -14.5t-52.5 -42.5t-39.5 -69t-15.5 -92
q0 -58 16 -89.5t44 -44t65 -12.5q31 0 57.5 10t48.5 26l34 -57q-30 -24 -69.5 -39t-88.5 -15zM156 570l147 141h80l91 -141h-65l-73 78h-3l-105 -78h-72zM189 665l-78 108l6 11h70l49 -119h-47z" />
    <glyph glyph-name="uni1EC3" unicode="&#x1ec3;" horiz-adv-x="485" 
d="M234 -12q-91 0 -145 53.5t-54 152.5q0 69 23 125t61 96.5t84.5 63t94.5 22.5q57 0 91 -24t49 -64t15 -91q0 -21 -2.5 -39.5t-7 -34.5t-8.5 -29h-332l8 70h259q3 12 4 20t1 19q0 26 -8 48.5t-27.5 36.5t-51.5 14q-25 0 -53.5 -14.5t-52.5 -42.5t-39.5 -69t-15.5 -92
q0 -58 16 -89.5t44 -44t65 -12.5q31 0 57.5 10t48.5 26l34 -57q-30 -24 -69.5 -39t-88.5 -15zM456 649l-4 38q23 6 34.5 16.5t11.5 26.5q0 15 -14.5 22.5t-47.5 9.5l13 57q56 0 87 -18t31 -53q0 -38 -30.5 -64.5t-80.5 -34.5zM156 570l147 141h80l91 -141h-65l-73 78h-3
l-105 -78h-72z" />
    <glyph glyph-name="uni1EC5" unicode="&#x1ec5;" horiz-adv-x="485" 
d="M234 -12q-91 0 -145 53.5t-54 152.5q0 69 23 125t61 96.5t84.5 63t94.5 22.5q57 0 91 -24t49 -64t15 -91q0 -21 -2.5 -39.5t-7 -34.5t-8.5 -29h-332l8 70h259q3 12 4 20t1 19q0 26 -8 48.5t-27.5 36.5t-51.5 14q-25 0 -53.5 -14.5t-52.5 -42.5t-39.5 -69t-15.5 -92
q0 -58 16 -89.5t44 -44t65 -12.5q31 0 57.5 10t48.5 26l34 -57q-30 -24 -69.5 -39t-88.5 -15zM417 726q-30 0 -50 10.5t-37 21t-37 10.5q-17 0 -26.5 -9.5t-16.5 -31.5l-49 5q10 44 33 69t58 25q29 0 49 -10.5t37 -21t37 -10.5q17 0 27 10.5t16 31.5l48 -5q-9 -44 -32 -69.5
t-57 -25.5zM156 571l146 130h80l92 -130h-65l-74 67h-3l-104 -67h-72z" />
    <glyph glyph-name="uni1EC7" unicode="&#x1ec7;" horiz-adv-x="485" 
d="M234 -12q-91 0 -145 53.5t-54 152.5q0 69 23 125t61 96.5t84.5 63t94.5 22.5q57 0 91 -24t49 -64t15 -91q0 -21 -2.5 -39.5t-7 -34.5t-8.5 -29h-332l8 70h259q3 12 4 20t1 19q0 26 -8 48.5t-27.5 36.5t-51.5 14q-25 0 -53.5 -14.5t-52.5 -42.5t-39.5 -69t-15.5 -92
q0 -58 16 -89.5t44 -44t65 -12.5q31 0 57.5 10t48.5 26l34 -57q-30 -24 -69.5 -39t-88.5 -15zM146 570l160 176h88l90 -176h-72l-69 104h-4l-115 -104h-78zM181 -218q-21 0 -38 13t-17 37q0 27 19.5 45.5t45.5 18.5q22 0 38.5 -13.5t16.5 -37.5q0 -27 -19 -45t-46 -18z" />
    <glyph glyph-name="uni1E17" unicode="&#x1e17;" horiz-adv-x="485" 
d="M234 -12q-91 0 -145 53.5t-54 152.5q0 69 23 125t61 96.5t84.5 63t94.5 22.5q57 0 91 -24t49 -64t15 -91q0 -21 -2.5 -39.5t-7 -34.5t-8.5 -29h-332l8 70h259q3 12 4 20t1 19q0 26 -8 48.5t-27.5 36.5t-51.5 14q-25 0 -53.5 -14.5t-52.5 -42.5t-39.5 -69t-15.5 -92
q0 -58 16 -89.5t44 -44t65 -12.5q31 0 57.5 10t48.5 26l34 -57q-30 -24 -69.5 -39t-88.5 -15zM192 602l11 62h262l-11 -62h-262zM285 719l111 120h87l6 -11l-140 -109h-64z" />
    <glyph glyph-name="uni01DD" unicode="&#x1dd;" horiz-adv-x="485" 
d="M193 -12q-59 0 -95.5 23.5t-53 64t-16.5 91.5q0 22 3 41.5t7 37t9 30.5h332l-8 -70h-260q-4 -13 -4 -22.5v-22.5q0 -26 9 -48.5t30.5 -36.5t56.5 -14q26 0 52.5 14.5t49 42t36 68.5t13.5 93q0 58 -13 90t-36.5 44.5t-56.5 12.5q-29 0 -55.5 -10t-50.5 -25l-33 55
q29 23 69.5 38.5t88.5 15.5q84 0 131.5 -53.5t47.5 -152.5q0 -69 -21 -125t-57.5 -97t-81.5 -63t-93 -22z" />
    <glyph glyph-name="uni1E1F" unicode="&#x1e1f;" horiz-adv-x="294" 
d="M41 0l83 415h-68l15 69l69 5l13 68q10 50 31.5 86.5t54.5 57t78 20.5q27 0 50 -6.5t42 -18.5l-31 -63q-9 6 -23 10t-31 4q-31 0 -50.5 -22t-27.5 -65l-15 -71h96l-15 -74h-96l-83 -415h-92zM321 755q-21 0 -38 13.5t-17 37.5q0 26 19.5 45t45.5 19q22 0 38.5 -13.5
t16.5 -37.5q0 -28 -19 -46t-46 -18z" />
    <glyph glyph-name="uni01F5" unicode="&#x1f5;" horiz-adv-x="535" 
d="M172 -215q-45 0 -90 16t-82 51l42 58q27 -23 61.5 -37t72.5 -14q57 0 93 34.5t50 94.5l24 99q-36 -37 -77.5 -58.5t-86.5 -21.5q-62 0 -102 44t-40 129q0 67 21.5 125t58 102t82.5 69t95 25q38 0 68 -19.5t46 -52.5h3l21 60h75l-101 -504q-20 -99 -80 -149.5t-154 -50.5z
M211 84q32 0 69.5 19.5t68.5 60.5l40 194q-19 36 -42 51t-48 15q-33 0 -62.5 -19t-53 -51t-37.5 -74t-14 -88q0 -54 21.5 -81t57.5 -27zM234 570l156 169h107l5 -10l-189 -159h-79z" />
    <glyph glyph-name="gcircumflex" unicode="&#x11d;" horiz-adv-x="535" 
d="M172 -215q-45 0 -90 16t-82 51l42 58q27 -23 61.5 -37t72.5 -14q57 0 93 34.5t50 94.5l24 99q-36 -37 -77.5 -58.5t-86.5 -21.5q-62 0 -102 44t-40 129q0 67 21.5 125t58 102t82.5 69t95 25q38 0 68 -19.5t46 -52.5h3l21 60h75l-101 -504q-20 -99 -80 -149.5t-154 -50.5z
M211 84q32 0 69.5 19.5t68.5 60.5l40 194q-19 36 -42 51t-48 15q-33 0 -62.5 -19t-53 -51t-37.5 -74t-14 -88q0 -54 21.5 -81t57.5 -27zM150 570l160 176h88l90 -176h-72l-69 104h-4l-115 -104h-78z" />
    <glyph glyph-name="uni1E21" unicode="&#x1e21;" horiz-adv-x="535" 
d="M172 -215q-45 0 -90 16t-82 51l42 58q27 -23 61.5 -37t72.5 -14q57 0 93 34.5t50 94.5l24 99q-36 -37 -77.5 -58.5t-86.5 -21.5q-62 0 -102 44t-40 129q0 67 21.5 125t58 102t82.5 69t95 25q38 0 68 -19.5t46 -52.5h3l21 60h75l-101 -504q-20 -99 -80 -149.5t-154 -50.5z
M211 84q32 0 69.5 19.5t68.5 60.5l40 194q-19 36 -42 51t-48 15q-33 0 -62.5 -19t-53 -51t-37.5 -74t-14 -88q0 -54 21.5 -81t57.5 -27zM196 600l11 62h262l-11 -62h-262z" />
    <glyph glyph-name="gbreve" unicode="&#x11f;" horiz-adv-x="535" 
d="M172 -215q-45 0 -90 16t-82 51l42 58q27 -23 61.5 -37t72.5 -14q57 0 93 34.5t50 94.5l24 99q-36 -37 -77.5 -58.5t-86.5 -21.5q-62 0 -102 44t-40 129q0 67 21.5 125t58 102t82.5 69t95 25q38 0 68 -19.5t46 -52.5h3l21 60h75l-101 -504q-20 -99 -80 -149.5t-154 -50.5z
M211 84q32 0 69.5 19.5t68.5 60.5l40 194q-19 36 -42 51t-48 15q-33 0 -62.5 -19t-53 -51t-37.5 -74t-14 -88q0 -54 21.5 -81t57.5 -27zM320 571q-47 0 -76 19.5t-43 54.5t-14 79l62 9q0 -27 8.5 -49t26.5 -35t49 -13q30 0 53.5 14t39 36.5t24.5 47.5l58 -10q-9 -39 -32 -74
t-61.5 -57t-94.5 -22z" />
    <glyph glyph-name="gdotaccent" unicode="&#x121;" horiz-adv-x="535" 
d="M172 -215q-45 0 -90 16t-82 51l42 58q27 -23 61.5 -37t72.5 -14q57 0 93 34.5t50 94.5l24 99q-36 -37 -77.5 -58.5t-86.5 -21.5q-62 0 -102 44t-40 129q0 67 21.5 125t58 102t82.5 69t95 25q38 0 68 -19.5t46 -52.5h3l21 60h75l-101 -504q-20 -99 -80 -149.5t-154 -50.5z
M211 84q32 0 69.5 19.5t68.5 60.5l40 194q-19 36 -42 51t-48 15q-33 0 -62.5 -19t-53 -51t-37.5 -74t-14 -88q0 -54 21.5 -81t57.5 -27zM329 583q-21 0 -38 13t-17 37q0 27 19.5 45.5t45.5 18.5q22 0 38.5 -13.5t16.5 -37.5q0 -27 -19 -45t-46 -18z" />
    <glyph glyph-name="gcaron" unicode="&#x1e7;" horiz-adv-x="535" 
d="M172 -215q-45 0 -90 16t-82 51l42 58q27 -23 61.5 -37t72.5 -14q57 0 93 34.5t50 94.5l24 99q-36 -37 -77.5 -58.5t-86.5 -21.5q-62 0 -102 44t-40 129q0 67 21.5 125t58 102t82.5 69t95 25q38 0 68 -19.5t46 -52.5h3l21 60h75l-101 -504q-20 -99 -80 -149.5t-154 -50.5z
M211 84q32 0 69.5 19.5t68.5 60.5l40 194q-19 36 -42 51t-48 15q-33 0 -62.5 -19t-53 -51t-37.5 -74t-14 -88q0 -54 21.5 -81t57.5 -27zM280 570l-90 176h71l70 -104h4l114 104h79l-160 -176h-88z" />
    <glyph glyph-name="uni0123" unicode="&#x123;" horiz-adv-x="535" 
d="M172 -215q-45 0 -90 16t-82 51l42 58q27 -23 61.5 -37t72.5 -14q57 0 93 34.5t50 94.5l24 99q-36 -37 -77.5 -58.5t-86.5 -21.5q-62 0 -102 44t-40 129q0 67 21.5 125t58 102t82.5 69t95 25q38 0 68 -19.5t46 -52.5h3l21 60h75l-101 -504q-20 -99 -80 -149.5t-154 -50.5z
M211 84q32 0 69.5 19.5t68.5 60.5l40 194q-19 36 -42 51t-48 15q-33 0 -62.5 -19t-53 -51t-37.5 -74t-14 -88q0 -54 21.5 -81t57.5 -27zM363 574q-46 4 -70 13t-32.5 23t-8.5 32q0 35 24.5 58t68 34.5t98.5 13.5v-45q-60 -2 -87.5 -15.5t-27.5 -34.5q0 -16 14 -26t47 -11z
" />
    <glyph glyph-name="uni01E5" unicode="&#x1e5;" horiz-adv-x="553" 
d="M253 227l14 64l112 6h177l-14 -70h-289zM172 -215q-45 0 -90 16t-82 51l42 58q27 -23 61.5 -37t72.5 -14q57 0 93 34.5t50 94.5l24 99q-36 -37 -77.5 -58.5t-86.5 -21.5q-62 0 -102 44t-40 129q0 67 21.5 125t58 102t82.5 69t95 25q38 0 68 -19.5t46 -52.5h3l21 60h75
l-101 -504q-20 -99 -80 -149.5t-154 -50.5zM211 84q32 0 69.5 19.5t68.5 60.5l40 194q-19 36 -42 51t-48 15q-33 0 -62.5 -19t-53 -51t-37.5 -74t-14 -88q0 -54 21.5 -81t57.5 -27z" />
    <glyph glyph-name="uni00670303" horiz-adv-x="535" 
d="M172 -215q-45 0 -90 16t-82 51l42 58q27 -23 61.5 -37t72.5 -14q57 0 93 34.5t50 94.5l24 99q-36 -37 -77.5 -58.5t-86.5 -21.5q-62 0 -102 44t-40 129q0 67 21.5 125t58 102t82.5 69t95 25q38 0 68 -19.5t46 -52.5h3l21 60h75l-101 -504q-20 -99 -80 -149.5t-154 -50.5z
M211 84q32 0 69.5 19.5t68.5 60.5l40 194q-19 36 -42 51t-48 15q-33 0 -62.5 -19t-53 -51t-37.5 -74t-14 -88q0 -54 21.5 -81t57.5 -27zM406 576q-27 0 -44.5 12t-30.5 28t-26.5 28t-31.5 12q-20 0 -34 -20t-21 -54l-64 4q8 42 23.5 73.5t40 48.5t56.5 17q27 0 44.5 -12
t30.5 -27.5t26.5 -27.5t31.5 -12q21 0 35 20t21 54l63 -4q-7 -42 -23 -73.5t-40 -49t-57 -17.5z" />
    <glyph glyph-name="uni0260" unicode="&#x260;" horiz-adv-x="542" 
d="M173 -216q-47 0 -91.5 18t-81.5 50l41 60q28 -22 62 -37.5t73 -15.5q58 0 93.5 35t49.5 93l25 100q-37 -37 -78.5 -58t-86.5 -21q-62 0 -102 43.5t-40 128.5q0 67 21.5 125t58 102t82.5 69t95 25q38 0 67 -19t45 -50h3l28 139q9 45 29.5 79t52.5 52.5t78 18.5
q15 0 29.5 -3.5t23.5 -8.5l-27 -69q-5 2 -13 4t-15 2q-29 0 -46.5 -21.5t-26.5 -63.5l-116 -576q-20 -98 -80 -149.5t-153 -51.5zM211 84q32 0 69.5 20t69.5 60l39 194q-19 36 -42 51t-48 15q-33 0 -62.5 -18.5t-53 -51.5t-37.5 -74.5t-14 -87.5q0 -54 21.5 -81t57.5 -27z
" />
    <glyph glyph-name="hcircumflex" unicode="&#x125;" horiz-adv-x="529" 
d="M27 0l142 709h92l-46 -221l-17 -67h4q39 35 79.5 57.5t84.5 22.5q62 0 89 -32.5t27 -90.5q0 -17 -1.5 -32.5t-6.5 -35.5l-62 -310h-92l60 298q4 19 6 30.5t2 24.5q0 34 -16.5 51t-50.5 17q-27 0 -60 -19.5t-75 -61.5l-67 -340h-92zM235 746l155 140h83l105 -140h-78
l-73 75h-4l-108 -75h-80z" />
    <glyph glyph-name="uni1E27" unicode="&#x1e27;" horiz-adv-x="529" 
d="M27 0l142 709h92l-46 -221l-17 -67h4q39 35 79.5 57.5t84.5 22.5q62 0 89 -32.5t27 -90.5q0 -17 -1.5 -32.5t-6.5 -35.5l-62 -310h-92l60 298q4 19 6 30.5t2 24.5q0 34 -16.5 51t-50.5 17q-27 0 -60 -19.5t-75 -61.5l-67 -340h-92zM309 751q-19 0 -32 12t-13 34
q0 24 17 41.5t40 17.5q20 0 33 -12t13 -34q0 -24 -17 -41.5t-41 -17.5zM512 751q-20 0 -33 12t-13 34q0 24 17 41.5t41 17.5q19 0 32 -12t13 -34q0 -24 -17 -41.5t-40 -17.5z" />
    <glyph glyph-name="uni1E23" unicode="&#x1e23;" horiz-adv-x="529" 
d="M27 0l142 709h92l-46 -221l-17 -67h4q39 35 79.5 57.5t84.5 22.5q62 0 89 -32.5t27 -90.5q0 -17 -1.5 -32.5t-6.5 -35.5l-62 -310h-92l60 298q4 19 6 30.5t2 24.5q0 34 -16.5 51t-50.5 17q-27 0 -60 -19.5t-75 -61.5l-67 -340h-92zM414 752q-21 0 -38 13.5t-17 37.5
q0 26 19.5 45t45.5 19q22 0 38.5 -13.5t16.5 -37.5q0 -28 -19 -46t-46 -18z" />
    <glyph glyph-name="uni021F" unicode="&#x21f;" horiz-adv-x="529" 
d="M27 0l142 709h92l-46 -221l-17 -67h4q39 35 79.5 57.5t84.5 22.5q62 0 89 -32.5t27 -90.5q0 -17 -1.5 -32.5t-6.5 -35.5l-62 -310h-92l60 298q4 19 6 30.5t2 24.5q0 34 -16.5 51t-50.5 17q-27 0 -60 -19.5t-75 -61.5l-67 -340h-92zM362 746l-102 140h78l71 -75h4l110 75
h80l-155 -140h-86z" />
    <glyph glyph-name="uni1E25" unicode="&#x1e25;" horiz-adv-x="529" 
d="M27 0l142 709h92l-46 -221l-17 -67h4q39 35 79.5 57.5t84.5 22.5q62 0 89 -32.5t27 -90.5q0 -17 -1.5 -32.5t-6.5 -35.5l-62 -310h-92l60 298q4 19 6 30.5t2 24.5q0 34 -16.5 51t-50.5 17q-27 0 -60 -19.5t-75 -61.5l-67 -340h-92zM190 -218q-21 0 -38 13t-17 37
q0 27 19.5 45.5t45.5 18.5q22 0 38.5 -13.5t16.5 -37.5q0 -27 -19 -45t-46 -18z" />
    <glyph glyph-name="uni1E29" unicode="&#x1e29;" horiz-adv-x="529" 
d="M27 0l142 709h92l-46 -221l-17 -67h4q39 35 79.5 57.5t84.5 22.5q62 0 89 -32.5t27 -90.5q0 -17 -1.5 -32.5t-6.5 -35.5l-62 -310h-92l60 298q4 19 6 30.5t2 24.5q0 34 -16.5 51t-50.5 17q-27 0 -60 -19.5t-75 -61.5l-67 -340h-92zM-63 -230l-1 45q60 2 87.5 15t29.5 36
q1 19 -14.5 29t-54.5 14l61 94h62l-41 -67q37 -9 50.5 -24t10.5 -42q-5 -48 -55.5 -72.5t-134.5 -27.5z" />
    <glyph glyph-name="uni1E2B" unicode="&#x1e2b;" horiz-adv-x="529" 
d="M27 0l142 709h92l-46 -221l-17 -67h4q39 35 79.5 57.5t84.5 22.5q62 0 89 -32.5t27 -90.5q0 -17 -1.5 -32.5t-6.5 -35.5l-62 -310h-92l60 298q4 19 6 30.5t2 24.5q0 34 -16.5 51t-50.5 17q-27 0 -60 -19.5t-75 -61.5l-67 -340h-92zM180 -230q-47 0 -76 19.5t-43 54.5
t-14 79l62 9q0 -27 8.5 -49t26.5 -35t49 -13q30 0 53.5 14t39 36.5t24.5 47.5l58 -10q-9 -39 -32 -74t-61.5 -57t-94.5 -22z" />
    <glyph glyph-name="uni1E96" unicode="&#x1e96;" horiz-adv-x="529" 
d="M27 0l142 709h92l-46 -221l-17 -67h4q39 35 79.5 57.5t84.5 22.5q62 0 89 -32.5t27 -90.5q0 -17 -1.5 -32.5t-6.5 -35.5l-62 -310h-92l60 298q4 19 6 30.5t2 24.5q0 34 -16.5 51t-50.5 17q-27 0 -60 -19.5t-75 -61.5l-67 -340h-92zM65 -161l11 62h262l-11 -62h-262z" />
    <glyph glyph-name="hbar" unicode="&#x127;" horiz-adv-x="539" 
d="M36 0l143 709h92l-52 -257l-18 -66h4q39 34 79.5 56.5t84.5 22.5q62 0 89.5 -32.5t27.5 -89.5q0 -18 -2 -33.5t-6 -34.5l-56 -275h-92l53 263q4 18 6 30t2 24q0 35 -16 52t-50 17q-28 0 -60.5 -20t-75.5 -62l-60 -304h-93zM67 550l12 64l83 6h264l-14 -70h-345z" />
    <glyph glyph-name="igrave" unicode="&#xec;" horiz-adv-x="244" 
d="M26 0l99 489h92l-98 -489h-93zM193 570l-127 159l6 10h99l94 -169h-72z" />
    <glyph glyph-name="iacute" unicode="&#xed;" horiz-adv-x="244" 
d="M26 0l99 489h92l-98 -489h-93zM100 570l156 169h107l5 -10l-189 -159h-79z" />
    <glyph glyph-name="icircumflex" unicode="&#xee;" horiz-adv-x="244" 
d="M26 0l99 489h92l-98 -489h-93zM16 570l160 176h88l90 -176h-72l-69 104h-4l-115 -104h-78z" />
    <glyph glyph-name="itilde" unicode="&#x129;" horiz-adv-x="244" 
d="M26 0l99 489h92l-98 -489h-93zM272 576q-27 0 -44.5 12t-30.5 28t-26.5 28t-31.5 12q-20 0 -34 -20t-21 -54l-64 4q8 42 23.5 73.5t40 48.5t56.5 17q27 0 44.5 -12t30.5 -27.5t26.5 -27.5t31.5 -12q21 0 35 20t21 54l63 -4q-7 -42 -23 -73.5t-40 -49t-57 -17.5z" />
    <glyph glyph-name="idieresis" unicode="&#xef;" horiz-adv-x="244" 
d="M26 0l99 489h92l-98 -489h-93zM98 585q-19 0 -32 11.5t-13 33.5q0 24 17 41.5t40 17.5q20 0 33 -12t13 -34q0 -24 -17 -41t-41 -17zM291 585q-20 0 -33 11.5t-13 33.5q0 24 17 41.5t41 17.5q19 0 32 -12t13 -34q0 -24 -17 -41t-40 -17z" />
    <glyph glyph-name="imacron" unicode="&#x12b;" horiz-adv-x="244" 
d="M26 0l99 489h92l-98 -489h-93zM62 600l11 62h262l-11 -62h-262z" />
    <glyph glyph-name="ibreve" unicode="&#x12d;" horiz-adv-x="244" 
d="M26 0l99 489h92l-98 -489h-93zM186 571q-47 0 -76 19.5t-43 54.5t-14 79l62 9q0 -27 8.5 -49t26.5 -35t49 -13q30 0 53.5 14t39 36.5t24.5 47.5l58 -10q-9 -39 -32 -74t-61.5 -57t-94.5 -22z" />
    <glyph glyph-name="uni1ECB" unicode="&#x1ecb;" horiz-adv-x="244" 
d="M26 0l99 489h92l-98 -489h-93zM195 583q-21 0 -38 13t-17 37q0 27 19.5 45.5t45.5 18.5q22 0 38.5 -13.5t16.5 -37.5q0 -27 -19 -45t-46 -18zM37 -218q-21 0 -38 13t-17 37q0 27 19.5 45.5t45.5 18.5q22 0 38.5 -13.5t16.5 -37.5q0 -27 -19 -45t-46 -18z" />
    <glyph glyph-name="uni01D0" unicode="&#x1d0;" horiz-adv-x="244" 
d="M26 0l99 489h92l-98 -489h-93zM146 570l-90 176h71l70 -104h4l114 104h79l-160 -176h-88z" />
    <glyph glyph-name="uni0209" unicode="&#x209;" horiz-adv-x="244" 
d="M26 0l99 489h92l-98 -489h-93zM78 570l-87 159l6 10h80l58 -169h-57zM243 570l-87 159l6 10h79l59 -169h-57z" />
    <glyph glyph-name="iogonek" unicode="&#x12f;" horiz-adv-x="244" 
d="M37 -216q-36 0 -59.5 19.5t-23.5 56.5q0 26 13.5 52t35 49t47.5 39h-23l97 489h93l-98 -489q-42 -25 -64.5 -54.5t-22.5 -60.5q0 -17 11 -27.5t27 -10.5q13 0 22.5 4t20.5 11l21 -43q-21 -16 -45 -25.5t-52 -9.5zM195 583q-21 0 -38 13t-17 37q0 27 19.5 45.5t45.5 18.5
q22 0 38.5 -13.5t16.5 -37.5q0 -27 -19 -45t-46 -18z" />
    <glyph glyph-name="uni1EC9" unicode="&#x1ec9;" horiz-adv-x="244" 
d="M26 0l99 489h92l-98 -489h-93zM143 562l-5 43q33 8 48.5 23t15.5 35q0 21 -18 31.5t-53 12.5l17 58q65 -1 98 -21t33 -62q0 -46 -35 -78.5t-101 -41.5z" />
    <glyph glyph-name="uni0268" unicode="&#x268;" horiz-adv-x="291" 
d="M14 219l12 64l89 6h178l-14 -70h-265zM56 0l98 489h92l-97 -489h-93zM224 607q-21 0 -38 13t-17 37q0 27 19.5 45.5t45.5 18.5q22 0 38.5 -13.5t16.5 -37.5q0 -27 -19 -45t-46 -18z" />
    <glyph glyph-name="dotlessi" unicode="&#x131;" horiz-adv-x="244" 
d="M26 0l99 489h92l-98 -489h-93z" />
    <glyph glyph-name="ij" unicode="&#x133;" horiz-adv-x="489" 
d="M26 0l99 489h92l-98 -489h-93zM195 583q-21 0 -38 13t-17 37q0 27 19.5 45.5t45.5 18.5q22 0 38.5 -13.5t16.5 -37.5q0 -27 -19 -45t-46 -18zM199 -211q-22 0 -42 4t-37 15l26 65q11 -5 22 -7.5t24 -2.5q28 0 43.5 22.5t25.5 65.5l108 538h92l-107 -540
q-10 -45 -29 -81.5t-50 -57.5t-76 -21zM439 583q-21 0 -38 13t-17 37q0 27 19.5 45.5t45.5 18.5q22 0 38.5 -13.5t16.5 -37.5q0 -27 -19 -45t-46 -18z" />
    <glyph glyph-name="jcircumflex" unicode="&#x135;" horiz-adv-x="245" 
d="M-45 -211q-22 0 -42 4t-37 15l26 65q11 -5 22 -7.5t24 -2.5q28 0 43.5 22.5t25.5 65.5l108 538h92l-107 -540q-10 -45 -29 -81.5t-50 -57.5t-76 -21zM16 570l160 176h88l90 -176h-72l-69 104h-4l-115 -104h-78z" />
    <glyph glyph-name="uni01F0" unicode="&#x1f0;" horiz-adv-x="245" 
d="M-45 -211q-22 0 -42 4t-37 15l26 65q11 -5 22 -7.5t24 -2.5q28 0 43.5 22.5t25.5 65.5l108 538h92l-107 -540q-10 -45 -29 -81.5t-50 -57.5t-76 -21zM146 570l-90 176h71l70 -104h4l114 104h79l-160 -176h-88z" />
    <glyph glyph-name="uni0249" unicode="&#x249;" horiz-adv-x="305" 
d="M19 219l12 64l90 6h179l-14 -70h-267zM-11 -211q-22 0 -41.5 4t-36.5 15l25 65q11 -5 22.5 -7.5t24.5 -2.5q28 0 43.5 22.5t25.5 65.5l108 538h92l-108 -540q-9 -45 -28 -81.5t-50 -57.5t-77 -21zM224 583q-21 0 -38 13t-17 37q0 27 19.5 45.5t45.5 18.5q22 0 38.5 -13.5
t16.5 -37.5q0 -27 -19 -45t-46 -18z" />
    <glyph glyph-name="uni0237" unicode="&#x237;" horiz-adv-x="245" 
d="M-45 -211q-22 0 -42 4t-37 15l26 65q11 -5 22 -7.5t24 -2.5q28 0 43.5 22.5t25.5 65.5l108 538h92l-107 -540q-10 -45 -29 -81.5t-50 -57.5t-76 -21z" />
    <glyph glyph-name="uni0137" unicode="&#x137;" horiz-adv-x="488" 
d="M27 0l142 709h92l-93 -463h3l233 243h104l-196 -207l117 -282h-93l-88 227l-104 -105l-25 -122h-92zM97 -230l-1 45q60 2 87.5 15.5t27.5 34.5q0 16 -14 26t-47 11l26 42q46 -4 70 -13t32.5 -22.5t8.5 -32.5q0 -34 -24 -57t-67 -35t-99 -14z" />
    <glyph glyph-name="uni1E33" unicode="&#x1e33;" horiz-adv-x="488" 
d="M27 0l142 709h92l-93 -463h3l233 243h104l-196 -207l117 -282h-93l-88 227l-104 -105l-25 -122h-92zM192 -222q-21 0 -38 13t-17 37q0 27 19.5 45.5t45.5 18.5q22 0 38.5 -13.5t16.5 -37.5q0 -27 -19 -45t-46 -18z" />
    <glyph glyph-name="uni1E35" unicode="&#x1e35;" horiz-adv-x="488" 
d="M27 0l142 709h92l-93 -463h3l233 243h104l-196 -207l117 -282h-93l-88 227l-104 -105l-25 -122h-92zM67 -165l11 62h262l-11 -62h-262z" />
    <glyph glyph-name="kgreenlandic" unicode="&#x138;" horiz-adv-x="488" 
d="M27 0l96 489h93l-48 -243h3l233 243h104l-196 -207l117 -282h-93l-88 227l-104 -105l-25 -122h-92z" />
    <glyph glyph-name="lacute" unicode="&#x13a;" horiz-adv-x="255" 
d="M121 -10q-41 0 -60 19.5t-19 52.5q0 10 1.5 21t4.5 25l121 601h92l-121 -604q-1 -8 -1.5 -13t-0.5 -10q0 -16 15 -16q3 0 6 0.5l9 1.5l6 -67q-12 -4 -25 -7.5t-28 -3.5zM135 755l151 140h117l6 -11l-193 -129h-81z" />
    <glyph glyph-name="lcaron" unicode="&#x13e;" horiz-adv-x="254" 
d="M121 -10q-41 0 -60 19.5t-19 52.5q0 10 1.5 21t4.5 25l121 601h92l-121 -604q-1 -8 -1.5 -13t-0.5 -10q0 -16 15 -16q3 0 6 0.5l9 1.5l6 -67q-12 -4 -25 -7.5t-28 -3.5zM276 548l40 215h63l-12 -61l-46 -154h-45z" />
    <glyph glyph-name="uni013C" unicode="&#x13c;" horiz-adv-x="255" 
d="M121 -10q-41 0 -60 19.5t-19 52.5q0 10 1.5 21t4.5 25l121 601h92l-121 -604q-1 -8 -1.5 -13t-0.5 -10q0 -16 15 -16q3 0 6 0.5l9 1.5l6 -67q-12 -4 -25 -7.5t-28 -3.5zM-34 -226l-1 45q60 2 87.5 15.5t27.5 34.5q0 16 -14 26t-47 11l26 42q46 -4 70 -13t32.5 -22.5
t8.5 -32.5q0 -34 -24 -57t-67 -35t-99 -14z" />
    <glyph glyph-name="uni1E37" unicode="&#x1e37;" horiz-adv-x="255" 
d="M121 -10q-41 0 -60 19.5t-19 52.5q0 10 1.5 21t4.5 25l121 601h92l-121 -604q-1 -8 -1.5 -13t-0.5 -10q0 -16 15 -16q3 0 6 0.5l9 1.5l6 -67q-12 -4 -25 -7.5t-28 -3.5zM63 -218q-21 0 -38 13t-17 37q0 27 19.5 45.5t45.5 18.5q22 0 38.5 -13.5t16.5 -37.5q0 -27 -19 -45
t-46 -18z" />
    <glyph glyph-name="uni1E39" unicode="&#x1e39;" horiz-adv-x="255" 
d="M121 -10q-41 0 -60 19.5t-19 52.5q0 10 1.5 21t4.5 25l121 601h92l-121 -604q-1 -8 -1.5 -13t-0.5 -10q0 -16 15 -16q3 0 6 0.5l9 1.5l6 -67q-12 -4 -25 -7.5t-28 -3.5zM90 782l12 63h264l-12 -63h-264zM63 -222q-21 0 -38 13t-17 37q0 27 19.5 45.5t45.5 18.5
q22 0 38.5 -13.5t16.5 -37.5q0 -27 -19 -45t-46 -18z" />
    <glyph glyph-name="uni1E3B" unicode="&#x1e3b;" horiz-adv-x="255" 
d="M121 -10q-41 0 -60 19.5t-19 52.5q0 10 1.5 21t4.5 25l121 601h92l-121 -604q-1 -8 -1.5 -13t-0.5 -10q0 -16 15 -16q3 0 6 0.5l9 1.5l6 -67q-12 -4 -25 -7.5t-28 -3.5zM-62 -161l11 62h262l-11 -62h-262z" />
    <glyph glyph-name="lslash" unicode="&#x142;" horiz-adv-x="301" 
d="M34 301l-26 65l136 58l85 37l103 43l25 -66l-144 -59l-85 -37zM145 -10q-41 0 -60 19.5t-19 52.5q0 10 1.5 21t5.5 25l120 601h92l-121 -604q-1 -8 -1.5 -13t-0.5 -10q0 -16 16 -16q3 0 6 0.5l9 1.5l6 -67q-12 -4 -25 -7.5t-29 -3.5z" />
    <glyph glyph-name="uni019A" unicode="&#x19a;" horiz-adv-x="315" 
d="M34 351l12 63l96 6h185l-14 -69h-279zM151 -10q-41 0 -60 19.5t-19 52.5q0 10 1.5 21t4.5 25l120 601h92l-121 -604q-1 -8 -1.5 -13t-0.5 -10q0 -16 16 -16q3 0 6 0.5l9 1.5l6 -67q-12 -4 -25 -7.5t-28 -3.5z" />
    <glyph glyph-name="uni2C61" unicode="&#x2c61;" horiz-adv-x="315" 
d="M47 419l11 51l95 6h185l-12 -57h-279zM22 295l10 51l96 6h185l-12 -57h-279zM151 -10q-41 0 -60 19.5t-19 52.5q0 10 1.5 21t4.5 25l120 601h92l-121 -604q-1 -8 -1.5 -13t-0.5 -10q0 -16 16 -16q3 0 6 0.5l9 1.5l6 -67q-12 -4 -25 -7.5t-28 -3.5z" />
    <glyph glyph-name="uni026B" unicode="&#x26b;" horiz-adv-x="364" 
d="M180 -10q-41 0 -60 19.5t-19 52.5q0 10 1.5 21t4.5 25l121 601h92l-121 -604q-1 -8 -1.5 -13t-0.5 -10q0 -16 15 -16q3 0 6 0.5l9 1.5l6 -67q-12 -4 -25 -7.5t-28 -3.5zM288 310q-26 0 -47.5 12.5t-40.5 28t-37 27.5t-38 12t-34 -19.5t-22 -52.5l-52 14q8 35 22.5 61.5
t35 41.5t47.5 15t48 -12t40 -28t37 -28t38 -12q21 0 34.5 20t21.5 52l52 -14q-8 -34 -22 -60.5t-35 -42t-48 -15.5z" />
    <glyph glyph-name="uni026C" unicode="&#x26c;" horiz-adv-x="341" 
d="M136 306q-59 0 -89 29t-30 73q0 31 22.5 58t62.5 27q35 0 54 -17.5t26 -42t7 -45.5l-38 -10q0 24 -10 42.5t-33 18.5q-15 0 -23 -8.5t-8 -21.5q0 -15 13 -24t40 -9h221l-12 -70h-203zM75 0l143 709h92l-142 -709h-93z" />
    <glyph glyph-name="ldot" unicode="&#x140;" horiz-adv-x="354" 
d="M121 -10q-41 0 -60 19.5t-19 52.5q0 10 1.5 21t4.5 25l121 601h92l-121 -604q-1 -8 -1.5 -13t-0.5 -10q0 -16 15 -16q3 0 6 0.5l9 1.5l6 -67q-12 -4 -25 -7.5t-28 -3.5zM305 265q-24 0 -38.5 16t-14.5 40q0 19 10 37t26.5 29.5t38.5 11.5q25 0 38.5 -16t13.5 -41
q0 -19 -9.5 -36.5t-26 -29t-38.5 -11.5z" />
    <glyph glyph-name="uni1E3F" unicode="&#x1e3f;" horiz-adv-x="806" 
d="M27 0l97 489h76l-6 -72h4q38 35 79 59.5t80 24.5q57 0 81.5 -27t31.5 -67q45 44 89 69t82 25q61 0 88 -32.5t27 -90.5q0 -17 -2 -32.5t-6 -35.5l-62 -310h-92l60 298q4 19 6 30.5t2 24.5q0 34 -16 51t-50 17q-20 0 -53 -19.5t-73 -61.5l-68 -340h-92l60 298q4 19 6 30.5
t2 24.5q0 34 -16 51t-49 17q-20 0 -53.5 -19.5t-73.5 -61.5l-67 -340h-92zM398 570l156 169h107l5 -10l-189 -159h-79z" />
    <glyph glyph-name="uni1E41" unicode="&#x1e41;" horiz-adv-x="806" 
d="M27 0l97 489h76l-6 -72h4q38 35 79 59.5t80 24.5q57 0 81.5 -27t31.5 -67q45 44 89 69t82 25q61 0 88 -32.5t27 -90.5q0 -17 -2 -32.5t-6 -35.5l-62 -310h-92l60 298q4 19 6 30.5t2 24.5q0 34 -16 51t-50 17q-20 0 -53 -19.5t-73 -61.5l-68 -340h-92l60 298q4 19 6 30.5
t2 24.5q0 34 -16 51t-49 17q-20 0 -53.5 -19.5t-73.5 -61.5l-67 -340h-92zM493 583q-21 0 -38 13t-17 37q0 27 19.5 45.5t45.5 18.5q22 0 38.5 -13.5t16.5 -37.5q0 -27 -19 -45t-46 -18z" />
    <glyph glyph-name="uni1E43" unicode="&#x1e43;" horiz-adv-x="806" 
d="M27 0l97 489h76l-6 -72h4q38 35 79 59.5t80 24.5q57 0 81.5 -27t31.5 -67q45 44 89 69t82 25q61 0 88 -32.5t27 -90.5q0 -17 -2 -32.5t-6 -35.5l-62 -310h-92l60 298q4 19 6 30.5t2 24.5q0 34 -16 51t-50 17q-20 0 -53 -19.5t-73 -61.5l-68 -340h-92l60 298q4 19 6 30.5
t2 24.5q0 34 -16 51t-49 17q-20 0 -53.5 -19.5t-73.5 -61.5l-67 -340h-92zM328 -218q-21 0 -38 13t-17 37q0 27 19.5 45.5t45.5 18.5q22 0 38.5 -13.5t16.5 -37.5q0 -27 -19 -45t-46 -18z" />
    <glyph glyph-name="uni01F9" unicode="&#x1f9;" horiz-adv-x="532" 
d="M27 0l97 489h76l-6 -72h4q38 35 80 59.5t88 24.5q62 0 89 -32.5t27 -90.5q0 -17 -2 -32.5t-6 -35.5l-62 -310h-92l60 298q4 19 6 30.5t2 24.5q0 34 -16.5 51t-50.5 17q-27 0 -60 -19.5t-75 -61.5l-67 -340h-92zM346 570l-127 159l6 10h99l94 -169h-72z" />
    <glyph glyph-name="nacute" unicode="&#x144;" horiz-adv-x="532" 
d="M27 0l97 489h76l-6 -72h4q38 35 80 59.5t88 24.5q62 0 89 -32.5t27 -90.5q0 -17 -2 -32.5t-6 -35.5l-62 -310h-92l60 298q4 19 6 30.5t2 24.5q0 34 -16.5 51t-50.5 17q-27 0 -60 -19.5t-75 -61.5l-67 -340h-92zM253 570l156 169h107l5 -10l-189 -159h-79z" />
    <glyph glyph-name="ncaron" unicode="&#x148;" horiz-adv-x="532" 
d="M27 0l97 489h76l-6 -72h4q38 35 80 59.5t88 24.5q62 0 89 -32.5t27 -90.5q0 -17 -2 -32.5t-6 -35.5l-62 -310h-92l60 298q4 19 6 30.5t2 24.5q0 34 -16.5 51t-50.5 17q-27 0 -60 -19.5t-75 -61.5l-67 -340h-92zM299 570l-90 176h71l70 -104h4l114 104h79l-160 -176h-88z
" />
    <glyph glyph-name="ntilde" unicode="&#xf1;" horiz-adv-x="532" 
d="M27 0l97 489h76l-6 -72h4q38 35 80 59.5t88 24.5q62 0 89 -32.5t27 -90.5q0 -17 -2 -32.5t-6 -35.5l-62 -310h-92l60 298q4 19 6 30.5t2 24.5q0 34 -16.5 51t-50.5 17q-27 0 -60 -19.5t-75 -61.5l-67 -340h-92zM425 576q-27 0 -44.5 12t-30.5 28t-26.5 28t-31.5 12
q-20 0 -34 -20t-21 -54l-64 4q8 42 23.5 73.5t40 48.5t56.5 17q27 0 44.5 -12t30.5 -27.5t26.5 -27.5t31.5 -12q21 0 35 20t21 54l63 -4q-7 -42 -23 -73.5t-40 -49t-57 -17.5z" />
    <glyph glyph-name="uni1E45" unicode="&#x1e45;" horiz-adv-x="532" 
d="M27 0l97 489h76l-6 -72h4q38 35 80 59.5t88 24.5q62 0 89 -32.5t27 -90.5q0 -17 -2 -32.5t-6 -35.5l-62 -310h-92l60 298q4 19 6 30.5t2 24.5q0 34 -16.5 51t-50.5 17q-27 0 -60 -19.5t-75 -61.5l-67 -340h-92zM348 583q-21 0 -38 13t-17 37q0 27 19.5 45.5t45.5 18.5
q22 0 38.5 -13.5t16.5 -37.5q0 -27 -19 -45t-46 -18z" />
    <glyph glyph-name="uni0146" unicode="&#x146;" horiz-adv-x="532" 
d="M27 0l97 489h76l-6 -72h4q38 35 80 59.5t88 24.5q62 0 89 -32.5t27 -90.5q0 -17 -2 -32.5t-6 -35.5l-62 -310h-92l60 298q4 19 6 30.5t2 24.5q0 34 -16.5 51t-50.5 17q-27 0 -60 -19.5t-75 -61.5l-67 -340h-92zM94 -226l-1 45q60 2 87.5 15.5t27.5 34.5q0 16 -14 26
t-47 11l26 42q46 -4 70 -13t32.5 -22.5t8.5 -32.5q0 -34 -24 -57t-67 -35t-99 -14z" />
    <glyph glyph-name="uni1E47" unicode="&#x1e47;" horiz-adv-x="532" 
d="M27 0l97 489h76l-6 -72h4q38 35 80 59.5t88 24.5q62 0 89 -32.5t27 -90.5q0 -17 -2 -32.5t-6 -35.5l-62 -310h-92l60 298q4 19 6 30.5t2 24.5q0 34 -16.5 51t-50.5 17q-27 0 -60 -19.5t-75 -61.5l-67 -340h-92zM191 -218q-21 0 -38 13t-17 37q0 27 19.5 45.5t45.5 18.5
q22 0 38.5 -13.5t16.5 -37.5q0 -27 -19 -45t-46 -18z" />
    <glyph glyph-name="uni1E49" unicode="&#x1e49;" horiz-adv-x="532" 
d="M27 0l97 489h76l-6 -72h4q38 35 80 59.5t88 24.5q62 0 89 -32.5t27 -90.5q0 -17 -2 -32.5t-6 -35.5l-62 -310h-92l60 298q4 19 6 30.5t2 24.5q0 34 -16.5 51t-50.5 17q-27 0 -60 -19.5t-75 -61.5l-67 -340h-92zM66 -161l11 62h262l-11 -62h-262z" />
    <glyph glyph-name="napostrophe" unicode="&#x149;" horiz-adv-x="763" 
d="M113 418l-18 48q59 23 86.5 57t34.5 79q1 9 -0.5 15t-5.5 12l12 -9q-7 -10 -18.5 -16t-25.5 -6q-23 0 -41 13t-18 39q0 30 22.5 50.5t59.5 20.5q32 0 58.5 -23.5t26.5 -68.5q0 -52 -22 -94.5t-61 -72t-90 -44.5zM258 0l97 489h76l-6 -72h4q38 35 80 59.5t88 24.5
q62 0 89 -32.5t27 -90.5q0 -17 -2 -32.5t-6 -35.5l-62 -310h-92l60 298q4 19 6 30.5t2 24.5q0 34 -16.5 51t-50.5 17q-27 0 -60 -19.5t-75 -61.5l-67 -340h-92z" />
    <glyph glyph-name="eng" unicode="&#x14b;" horiz-adv-x="532" 
d="M247 -212q-22 0 -41.5 4.5t-37.5 15.5l26 65q11 -5 22 -7.5t24 -2.5q28 0 44 22t25 66l71 347q4 19 6 30.5t2 24.5q0 34 -16.5 51t-50.5 17q-27 0 -60 -19.5t-75 -61.5l-67 -340h-92l97 489h76l-6 -72h4q40 35 81 59.5t87 24.5q62 0 89 -32.5t27 -90.5q0 -17 -2 -32.5
t-6 -35.5l-72 -360q-10 -47 -28.5 -83t-49.5 -57.5t-77 -21.5z" />
    <glyph glyph-name="uni019E" unicode="&#x19e;" horiz-adv-x="532" 
d="M280 -200l100 498q4 19 6 30.5t2 24.5q0 34 -16.5 51t-50.5 17q-27 0 -60 -19.5t-75 -61.5l-67 -340h-92l97 489h76l-6 -72h4q38 35 80 59.5t88 24.5q62 0 89 -32.5t27 -90.5q0 -17 -2 -32.5t-6 -35.5l-102 -510h-92z" />
    <glyph glyph-name="ograve" unicode="&#xf2;" horiz-adv-x="518" 
d="M215 -12q-55 0 -95 24t-62 68.5t-22 105.5q0 70 23 127.5t61 99.5t85.5 65t97.5 23q54 0 94 -24t62 -68.5t22 -105.5q0 -70 -22.5 -127.5t-61 -99.5t-86 -65t-96.5 -23zM224 64q32 0 61.5 18t52.5 50.5t36.5 75t13.5 91.5q0 61 -24 93.5t-71 32.5q-31 0 -60.5 -18
t-52.5 -50.5t-37 -75t-14 -91.5q0 -60 24.5 -93t70.5 -33zM333 570l-127 159l6 10h99l94 -169h-72z" />
    <glyph glyph-name="oacute" unicode="&#xf3;" horiz-adv-x="518" 
d="M215 -12q-55 0 -95 24t-62 68.5t-22 105.5q0 70 23 127.5t61 99.5t85.5 65t97.5 23q54 0 94 -24t62 -68.5t22 -105.5q0 -70 -22.5 -127.5t-61 -99.5t-86 -65t-96.5 -23zM224 64q32 0 61.5 18t52.5 50.5t36.5 75t13.5 91.5q0 61 -24 93.5t-71 32.5q-31 0 -60.5 -18
t-52.5 -50.5t-37 -75t-14 -91.5q0 -60 24.5 -93t70.5 -33zM240 570l156 169h107l5 -10l-189 -159h-79z" />
    <glyph glyph-name="ocircumflex" unicode="&#xf4;" horiz-adv-x="518" 
d="M215 -12q-55 0 -95 24t-62 68.5t-22 105.5q0 70 23 127.5t61 99.5t85.5 65t97.5 23q54 0 94 -24t62 -68.5t22 -105.5q0 -70 -22.5 -127.5t-61 -99.5t-86 -65t-96.5 -23zM224 64q32 0 61.5 18t52.5 50.5t36.5 75t13.5 91.5q0 61 -24 93.5t-71 32.5q-31 0 -60.5 -18
t-52.5 -50.5t-37 -75t-14 -91.5q0 -60 24.5 -93t70.5 -33zM156 570l160 176h88l90 -176h-72l-69 104h-4l-115 -104h-78z" />
    <glyph glyph-name="otilde" unicode="&#xf5;" horiz-adv-x="518" 
d="M215 -12q-55 0 -95 24t-62 68.5t-22 105.5q0 70 23 127.5t61 99.5t85.5 65t97.5 23q54 0 94 -24t62 -68.5t22 -105.5q0 -70 -22.5 -127.5t-61 -99.5t-86 -65t-96.5 -23zM224 64q32 0 61.5 18t52.5 50.5t36.5 75t13.5 91.5q0 61 -24 93.5t-71 32.5q-31 0 -60.5 -18
t-52.5 -50.5t-37 -75t-14 -91.5q0 -60 24.5 -93t70.5 -33zM412 576q-27 0 -44.5 12t-30.5 28t-26.5 28t-31.5 12q-20 0 -34 -20t-21 -54l-64 4q8 42 23.5 73.5t40 48.5t56.5 17q27 0 44.5 -12t30.5 -27.5t26.5 -27.5t31.5 -12q21 0 35 20t21 54l63 -4q-7 -42 -23 -73.5
t-40 -49t-57 -17.5z" />
    <glyph glyph-name="odieresis" unicode="&#xf6;" horiz-adv-x="518" 
d="M215 -12q-55 0 -95 24t-62 68.5t-22 105.5q0 70 23 127.5t61 99.5t85.5 65t97.5 23q54 0 94 -24t62 -68.5t22 -105.5q0 -70 -22.5 -127.5t-61 -99.5t-86 -65t-96.5 -23zM224 64q32 0 61.5 18t52.5 50.5t36.5 75t13.5 91.5q0 61 -24 93.5t-71 32.5q-31 0 -60.5 -18
t-52.5 -50.5t-37 -75t-14 -91.5q0 -60 24.5 -93t70.5 -33zM238 585q-19 0 -32 11.5t-13 33.5q0 24 17 41.5t40 17.5q20 0 33 -12t13 -34q0 -24 -17 -41t-41 -17zM431 585q-20 0 -33 11.5t-13 33.5q0 24 17 41.5t41 17.5q19 0 32 -12t13 -34q0 -24 -17 -41t-40 -17z" />
    <glyph glyph-name="omacron" unicode="&#x14d;" horiz-adv-x="518" 
d="M215 -12q-55 0 -95 24t-62 68.5t-22 105.5q0 70 23 127.5t61 99.5t85.5 65t97.5 23q54 0 94 -24t62 -68.5t22 -105.5q0 -70 -22.5 -127.5t-61 -99.5t-86 -65t-96.5 -23zM224 64q32 0 61.5 18t52.5 50.5t36.5 75t13.5 91.5q0 61 -24 93.5t-71 32.5q-31 0 -60.5 -18
t-52.5 -50.5t-37 -75t-14 -91.5q0 -60 24.5 -93t70.5 -33zM202 600l11 62h262l-11 -62h-262z" />
    <glyph glyph-name="obreve" unicode="&#x14f;" horiz-adv-x="518" 
d="M215 -12q-55 0 -95 24t-62 68.5t-22 105.5q0 70 23 127.5t61 99.5t85.5 65t97.5 23q54 0 94 -24t62 -68.5t22 -105.5q0 -70 -22.5 -127.5t-61 -99.5t-86 -65t-96.5 -23zM224 64q32 0 61.5 18t52.5 50.5t36.5 75t13.5 91.5q0 61 -24 93.5t-71 32.5q-31 0 -60.5 -18
t-52.5 -50.5t-37 -75t-14 -91.5q0 -60 24.5 -93t70.5 -33zM326 571q-47 0 -76 19.5t-43 54.5t-14 79l62 9q0 -27 8.5 -49t26.5 -35t49 -13q30 0 53.5 14t39 36.5t24.5 47.5l58 -10q-9 -39 -32 -74t-61.5 -57t-94.5 -22z" />
    <glyph glyph-name="ohungarumlaut" unicode="&#x151;" horiz-adv-x="518" 
d="M215 -12q-55 0 -95 24t-62 68.5t-22 105.5q0 70 23 127.5t61 99.5t85.5 65t97.5 23q54 0 94 -24t62 -68.5t22 -105.5q0 -70 -22.5 -127.5t-61 -99.5t-86 -65t-96.5 -23zM224 64q32 0 61.5 18t52.5 50.5t36.5 75t13.5 91.5q0 61 -24 93.5t-71 32.5q-31 0 -60.5 -18
t-52.5 -50.5t-37 -75t-14 -91.5q0 -60 24.5 -93t70.5 -33zM210 570l114 169h79l6 -10l-141 -159h-58zM375 570l113 169h80l6 -10l-142 -159h-57z" />
    <glyph glyph-name="uni01D2" unicode="&#x1d2;" horiz-adv-x="518" 
d="M215 -12q-55 0 -95 24t-62 68.5t-22 105.5q0 70 23 127.5t61 99.5t85.5 65t97.5 23q54 0 94 -24t62 -68.5t22 -105.5q0 -70 -22.5 -127.5t-61 -99.5t-86 -65t-96.5 -23zM224 64q32 0 61.5 18t52.5 50.5t36.5 75t13.5 91.5q0 61 -24 93.5t-71 32.5q-31 0 -60.5 -18
t-52.5 -50.5t-37 -75t-14 -91.5q0 -60 24.5 -93t70.5 -33zM286 570l-90 176h71l70 -104h4l114 104h79l-160 -176h-88z" />
    <glyph glyph-name="uni020D" unicode="&#x20d;" horiz-adv-x="518" 
d="M215 -12q-55 0 -95 24t-62 68.5t-22 105.5q0 70 23 127.5t61 99.5t85.5 65t97.5 23q54 0 94 -24t62 -68.5t22 -105.5q0 -70 -22.5 -127.5t-61 -99.5t-86 -65t-96.5 -23zM224 64q32 0 61.5 18t52.5 50.5t36.5 75t13.5 91.5q0 61 -24 93.5t-71 32.5q-31 0 -60.5 -18
t-52.5 -50.5t-37 -75t-14 -91.5q0 -60 24.5 -93t70.5 -33zM218 570l-87 159l6 10h80l58 -169h-57zM383 570l-87 159l6 10h79l59 -169h-57z" />
    <glyph glyph-name="uni01EB" unicode="&#x1eb;" horiz-adv-x="518" 
d="M173 -216q-36 0 -59.5 19.5t-23.5 56.5q0 28 15.5 55.5t41.5 50t56 35.5l12 -13q-55 0 -95 24t-62 68.5t-22 105.5q0 70 23 127.5t61 99.5t85.5 65t97.5 23q51 0 91 -23.5t63.5 -67.5t23.5 -107q0 -72 -25.5 -135t-73.5 -108t-113 -66q-56 -18 -78.5 -49.5t-22.5 -59.5
q0 -17 11 -27.5t27 -10.5q13 0 22.5 4t20.5 11l21 -43q-21 -16 -45 -25.5t-52 -9.5zM224 64q32 0 61.5 18t52.5 50.5t36.5 75t13.5 91.5q0 61 -24 93.5t-71 32.5q-31 0 -60.5 -18t-52.5 -50.5t-37 -75t-14 -91.5q0 -60 24.5 -93t70.5 -33z" />
    <glyph glyph-name="uni1ECD" unicode="&#x1ecd;" horiz-adv-x="518" 
d="M215 -12q-55 0 -95 24t-62 68.5t-22 105.5q0 70 23 127.5t61 99.5t85.5 65t97.5 23q54 0 94 -24t62 -68.5t22 -105.5q0 -70 -22.5 -127.5t-61 -99.5t-86 -65t-96.5 -23zM224 64q32 0 61.5 18t52.5 50.5t36.5 75t13.5 91.5q0 61 -24 93.5t-71 32.5q-31 0 -60.5 -18
t-52.5 -50.5t-37 -75t-14 -91.5q0 -60 24.5 -93t70.5 -33zM159 -222q-21 0 -38 13t-17 37q0 27 19.5 45.5t45.5 18.5q22 0 38.5 -13.5t16.5 -37.5q0 -27 -19 -45t-46 -18z" />
    <glyph glyph-name="uni1ECF" unicode="&#x1ecf;" horiz-adv-x="518" 
d="M215 -12q-55 0 -95 24t-62 68.5t-22 105.5q0 70 23 127.5t61 99.5t85.5 65t97.5 23q54 0 94 -24t62 -68.5t22 -105.5q0 -70 -22.5 -127.5t-61 -99.5t-86 -65t-96.5 -23zM224 64q32 0 61.5 18t52.5 50.5t36.5 75t13.5 91.5q0 61 -24 93.5t-71 32.5q-31 0 -60.5 -18
t-52.5 -50.5t-37 -75t-14 -91.5q0 -60 24.5 -93t70.5 -33zM283 562l-5 43q33 8 48.5 23t15.5 35q0 21 -18 31.5t-53 12.5l17 58q65 -1 98 -21t33 -62q0 -46 -35 -78.5t-101 -41.5z" />
    <glyph glyph-name="uni1ED1" unicode="&#x1ed1;" horiz-adv-x="518" 
d="M215 -12q-55 0 -95 24t-62 68.5t-22 105.5q0 70 23 127.5t61 99.5t85.5 65t97.5 23q54 0 94 -24t62 -68.5t22 -105.5q0 -70 -22.5 -127.5t-61 -99.5t-86 -65t-96.5 -23zM224 64q32 0 61.5 18t52.5 50.5t36.5 75t13.5 91.5q0 61 -24 93.5t-71 32.5q-31 0 -60.5 -18
t-52.5 -50.5t-37 -75t-14 -91.5q0 -60 24.5 -93t70.5 -33zM166 570l147 141h80l91 -141h-65l-73 78h-3l-105 -78h-72zM444 665l92 119h77l6 -11l-120 -108h-55z" />
    <glyph glyph-name="uni1ED3" unicode="&#x1ed3;" horiz-adv-x="518" 
d="M215 -12q-55 0 -95 24t-62 68.5t-22 105.5q0 70 23 127.5t61 99.5t85.5 65t97.5 23q54 0 94 -24t62 -68.5t22 -105.5q0 -70 -22.5 -127.5t-61 -99.5t-86 -65t-96.5 -23zM224 64q32 0 61.5 18t52.5 50.5t36.5 75t13.5 91.5q0 61 -24 93.5t-71 32.5q-31 0 -60.5 -18
t-52.5 -50.5t-37 -75t-14 -91.5q0 -60 24.5 -93t70.5 -33zM166 570l147 141h80l91 -141h-65l-73 78h-3l-105 -78h-72zM199 665l-78 108l6 11h70l49 -119h-47z" />
    <glyph glyph-name="uni1ED5" unicode="&#x1ed5;" horiz-adv-x="518" 
d="M215 -12q-55 0 -95 24t-62 68.5t-22 105.5q0 70 23 127.5t61 99.5t85.5 65t97.5 23q54 0 94 -24t62 -68.5t22 -105.5q0 -70 -22.5 -127.5t-61 -99.5t-86 -65t-96.5 -23zM224 64q32 0 61.5 18t52.5 50.5t36.5 75t13.5 91.5q0 61 -24 93.5t-71 32.5q-31 0 -60.5 -18
t-52.5 -50.5t-37 -75t-14 -91.5q0 -60 24.5 -93t70.5 -33zM466 649l-4 38q23 6 34.5 16.5t11.5 26.5q0 15 -14.5 22.5t-47.5 9.5l13 57q56 0 87 -18t31 -53q0 -38 -30.5 -64.5t-80.5 -34.5zM166 570l147 141h80l91 -141h-65l-73 78h-3l-105 -78h-72z" />
    <glyph glyph-name="uni1ED7" unicode="&#x1ed7;" horiz-adv-x="518" 
d="M215 -12q-55 0 -95 24t-62 68.5t-22 105.5q0 70 23 127.5t61 99.5t85.5 65t97.5 23q54 0 94 -24t62 -68.5t22 -105.5q0 -70 -22.5 -127.5t-61 -99.5t-86 -65t-96.5 -23zM224 64q32 0 61.5 18t52.5 50.5t36.5 75t13.5 91.5q0 61 -24 93.5t-71 32.5q-31 0 -60.5 -18
t-52.5 -50.5t-37 -75t-14 -91.5q0 -60 24.5 -93t70.5 -33zM427 726q-30 0 -50 10.5t-37 21t-37 10.5q-17 0 -26.5 -9.5t-16.5 -31.5l-49 5q10 44 33 69t58 25q29 0 49 -10.5t37 -21t37 -10.5q17 0 27 10.5t16 31.5l48 -5q-9 -44 -32 -69.5t-57 -25.5zM166 571l146 130h80
l92 -130h-65l-74 67h-3l-104 -67h-72z" />
    <glyph glyph-name="uni1ED9" unicode="&#x1ed9;" horiz-adv-x="518" 
d="M215 -12q-55 0 -95 24t-62 68.5t-22 105.5q0 70 23 127.5t61 99.5t85.5 65t97.5 23q54 0 94 -24t62 -68.5t22 -105.5q0 -70 -22.5 -127.5t-61 -99.5t-86 -65t-96.5 -23zM224 64q32 0 61.5 18t52.5 50.5t36.5 75t13.5 91.5q0 61 -24 93.5t-71 32.5q-31 0 -60.5 -18
t-52.5 -50.5t-37 -75t-14 -91.5q0 -60 24.5 -93t70.5 -33zM156 570l160 176h88l90 -176h-72l-69 104h-4l-115 -104h-78zM159 -218q-21 0 -38 13t-17 37q0 27 19.5 45.5t45.5 18.5q22 0 38.5 -13.5t16.5 -37.5q0 -27 -19 -45t-46 -18z" />
    <glyph glyph-name="uni1E53" unicode="&#x1e53;" horiz-adv-x="518" 
d="M215 -12q-55 0 -95 24t-62 68.5t-22 105.5q0 70 23 127.5t61 99.5t85.5 65t97.5 23q54 0 94 -24t62 -68.5t22 -105.5q0 -70 -22.5 -127.5t-61 -99.5t-86 -65t-96.5 -23zM224 64q32 0 61.5 18t52.5 50.5t36.5 75t13.5 91.5q0 61 -24 93.5t-71 32.5q-31 0 -60.5 -18
t-52.5 -50.5t-37 -75t-14 -91.5q0 -60 24.5 -93t70.5 -33zM202 602l11 62h262l-11 -62h-262zM295 719l111 120h87l6 -11l-140 -109h-64z" />
    <glyph glyph-name="oslash" unicode="&#xf8;" horiz-adv-x="519" 
d="M215 -12q-52 0 -92.5 23t-63.5 67t-23 108q0 70 23 127.5t61 99.5t85.5 65t96.5 23q53 0 93 -23.5t63.5 -67.5t23.5 -107q0 -70 -23 -128t-61 -99.5t-85.5 -64.5t-97.5 -23zM221 62q37 0 68.5 20t55 53.5t36.5 76t13 86.5q0 61 -25.5 95t-72.5 34q-36 0 -67.5 -20
t-55 -54t-37 -76.5t-13.5 -86.5q0 -60 25 -94t73 -34zM39 -30l-45 44l489 503l46 -43z" />
    <glyph glyph-name="oslashacute" unicode="&#x1ff;" horiz-adv-x="518" 
d="M215 -12q-52 0 -92.5 23t-63.5 67t-23 108q0 70 23 127.5t61 99.5t85.5 65t96.5 23q53 0 93 -23.5t63.5 -67.5t23.5 -107q0 -70 -23 -128t-61 -99.5t-85.5 -64.5t-97.5 -23zM221 62q37 0 68.5 20t55 53.5t36.5 76t13 86.5q0 61 -25.5 95t-72.5 34q-36 0 -67.5 -20
t-55 -54t-37 -76.5t-13.5 -86.5q0 -60 25 -94t73 -34zM39 -30l-45 44l489 503l46 -43zM240 570l156 169h107l5 -10l-189 -159h-79z" />
    <glyph glyph-name="oe" unicode="&#x153;" horiz-adv-x="809" 
d="M210 -12q-52 0 -91.5 24t-61 68.5t-21.5 105.5q0 70 22.5 127.5t60 99.5t84 65t95.5 23q60 0 96.5 -30.5t51.5 -88.5q32 57 80 88t97 31q55 0 89 -24t49.5 -64t15.5 -91q0 -31 -7.5 -59.5t-12.5 -43.5h-294q-5 -56 9 -91t41.5 -51t62.5 -16q30 0 56 11t48 27l35 -59
q-28 -20 -66 -36t-87 -16q-59 0 -101 31.5t-57 92.5q-34 -57 -86.5 -90.5t-107.5 -33.5zM225 64q29 0 57.5 18t51 50.5t35.5 75t13 91.5q0 61 -23.5 93.5t-69.5 32.5q-29 0 -57.5 -18t-51.5 -50t-37 -75t-14 -92q0 -60 24.5 -93t71.5 -33zM474 289h220q2 9 3 19t1 22
q0 25 -8 47t-27 36t-51 14q-29 0 -56.5 -16.5t-49 -47.5t-32.5 -74z" />
    <glyph glyph-name="uni028C" unicode="&#x28c;" horiz-adv-x="461" 
d="M338 489l69 -489h-92l-31 271q-4 36 -6.5 73.5t-5.5 73.5h-4q-17 -37 -35 -73.5t-35 -73.5l-135 -271h-91l257 489h109z" />
    <glyph glyph-name="uni0254" unicode="&#x254;" horiz-adv-x="443" 
d="M128 -12q-48 0 -85 18t-59 45l49 59q19 -20 43.5 -33t55.5 -13q50 0 91 28.5t65.5 79.5t24.5 118q0 64 -27.5 99.5t-72.5 35.5q-30 0 -54.5 -10.5t-51.5 -32.5l-39 58q33 27 73.5 44t92.5 17q50 0 89 -23.5t61.5 -68.5t22.5 -108q0 -72 -23 -130t-62.5 -99t-89.5 -62.5
t-104 -21.5z" />
    <glyph glyph-name="uniA74F" unicode="&#xa74f;" horiz-adv-x="835" 
d="M202 -12q-47 0 -84.5 23.5t-59.5 67.5t-22 107q0 68 21 125.5t56.5 99.5t80.5 66t94 24q64 0 106 -39t51 -126h-26q38 87 92.5 126t120.5 39q47 0 84.5 -23.5t59.5 -68t22 -106.5q0 -68 -21 -125.5t-56.5 -99.5t-80.5 -66t-94 -24q-64 0 -105.5 39.5t-51.5 125.5h26
q-38 -86 -92 -125.5t-121 -39.5zM224 64q31 0 59.5 18t50.5 50.5t35.5 75t13.5 91.5q0 61 -24 93.5t-71 32.5q-29 0 -57.5 -18t-51 -50.5t-36.5 -75t-14 -91.5q0 -60 24.5 -93t70.5 -33zM546 64q30 0 58 18t50.5 50.5t36.5 75t14 91.5q0 61 -24.5 93.5t-70.5 32.5
q-30 0 -59 -18t-51 -50.5t-35.5 -75t-13.5 -91.5q0 -60 24.5 -93t70.5 -33z" />
    <glyph glyph-name="uni0223" unicode="&#x223;" horiz-adv-x="530" 
d="M228 68q43 0 75.5 20.5t51 52.5t18.5 68q0 54 -30.5 92t-94.5 67q-58 -30 -94 -81.5t-36 -106.5q0 -34 14.5 -59t39 -39t56.5 -14zM216 -12q-58 0 -101 22t-67 61t-24 90q0 59 25 105t65.5 79.5t85.5 53.5v4q-33 30 -53.5 66t-20.5 86t18 91.5t45 74.5l77 -25
q-23 -31 -35 -61.5t-12 -62.5q0 -30 10 -54.5t34 -45t66 -41.5q58 40 85 95t27 107q0 28 -10 54l82 25q8 -19 11 -35.5t3 -35.5q0 -44 -17.5 -89.5t-50 -84.5t-78.5 -64v-4q37 -25 64 -66.5t27 -103.5q0 -64 -32 -119t-89.5 -88.5t-134.5 -33.5z" />
    <glyph glyph-name="ohorn" unicode="&#x1a1;" horiz-adv-x="522" 
d="M431 439l-44 38q44 5 71 33t28 71q1 9 -1.5 22t-6.5 23l72 25q7 -14 9.5 -31.5t2.5 -32.5q0 -40 -17.5 -70.5t-47.5 -50t-66 -27.5zM215 -12q-55 0 -95 24t-62 68.5t-22 105.5q0 70 23 127.5t61 99.5t85.5 65t97.5 23q54 0 94 -24t62 -68.5t22 -105.5q0 -70 -22.5 -127.5
t-61 -99.5t-86 -65t-96.5 -23zM224 64q32 0 61.5 18t52.5 50.5t36.5 75t13.5 91.5q0 61 -24 93.5t-71 32.5q-31 0 -60.5 -18t-52.5 -50.5t-37 -75t-14 -91.5q0 -60 24.5 -93t70.5 -33z" />
    <glyph glyph-name="uni1EDB" unicode="&#x1edb;" horiz-adv-x="522" 
d="M431 439l-44 38q44 5 71 33t28 71q1 9 -1.5 22t-6.5 23l72 25q7 -14 9.5 -31.5t2.5 -32.5q0 -40 -17.5 -70.5t-47.5 -50t-66 -27.5zM215 -12q-55 0 -95 24t-62 68.5t-22 105.5q0 70 23 127.5t61 99.5t85.5 65t97.5 23q54 0 94 -24t62 -68.5t22 -105.5q0 -70 -22.5 -127.5
t-61 -99.5t-86 -65t-96.5 -23zM224 64q32 0 61.5 18t52.5 50.5t36.5 75t13.5 91.5q0 61 -24 93.5t-71 32.5q-31 0 -60.5 -18t-52.5 -50.5t-37 -75t-14 -91.5q0 -60 24.5 -93t70.5 -33zM235 570l156 169h107l5 -10l-189 -159h-79z" />
    <glyph glyph-name="uni1EDD" unicode="&#x1edd;" horiz-adv-x="522" 
d="M431 439l-44 38q44 5 71 33t28 71q1 9 -1.5 22t-6.5 23l72 25q7 -14 9.5 -31.5t2.5 -32.5q0 -40 -17.5 -70.5t-47.5 -50t-66 -27.5zM215 -12q-55 0 -95 24t-62 68.5t-22 105.5q0 70 23 127.5t61 99.5t85.5 65t97.5 23q54 0 94 -24t62 -68.5t22 -105.5q0 -70 -22.5 -127.5
t-61 -99.5t-86 -65t-96.5 -23zM224 64q32 0 61.5 18t52.5 50.5t36.5 75t13.5 91.5q0 61 -24 93.5t-71 32.5q-31 0 -60.5 -18t-52.5 -50.5t-37 -75t-14 -91.5q0 -60 24.5 -93t70.5 -33zM328 570l-127 159l6 10h99l94 -169h-72z" />
    <glyph glyph-name="uni1EDF" unicode="&#x1edf;" horiz-adv-x="522" 
d="M431 439l-44 38q44 5 71 33t28 71q1 9 -1.5 22t-6.5 23l72 25q7 -14 9.5 -31.5t2.5 -32.5q0 -40 -17.5 -70.5t-47.5 -50t-66 -27.5zM215 -12q-55 0 -95 24t-62 68.5t-22 105.5q0 70 23 127.5t61 99.5t85.5 65t97.5 23q54 0 94 -24t62 -68.5t22 -105.5q0 -70 -22.5 -127.5
t-61 -99.5t-86 -65t-96.5 -23zM224 64q32 0 61.5 18t52.5 50.5t36.5 75t13.5 91.5q0 61 -24 93.5t-71 32.5q-31 0 -60.5 -18t-52.5 -50.5t-37 -75t-14 -91.5q0 -60 24.5 -93t70.5 -33zM278 562l-5 43q33 8 48.5 23t15.5 35q0 21 -18 31.5t-53 12.5l17 58q65 -1 98 -21
t33 -62q0 -46 -35 -78.5t-101 -41.5z" />
    <glyph glyph-name="uni1EE1" unicode="&#x1ee1;" horiz-adv-x="522" 
d="M431 439l-44 38q44 5 71 33t28 71q1 9 -1.5 22t-6.5 23l72 25q7 -14 9.5 -31.5t2.5 -32.5q0 -40 -17.5 -70.5t-47.5 -50t-66 -27.5zM215 -12q-55 0 -95 24t-62 68.5t-22 105.5q0 70 23 127.5t61 99.5t85.5 65t97.5 23q54 0 94 -24t62 -68.5t22 -105.5q0 -70 -22.5 -127.5
t-61 -99.5t-86 -65t-96.5 -23zM224 64q32 0 61.5 18t52.5 50.5t36.5 75t13.5 91.5q0 61 -24 93.5t-71 32.5q-31 0 -60.5 -18t-52.5 -50.5t-37 -75t-14 -91.5q0 -60 24.5 -93t70.5 -33zM373 576q-27 0 -44.5 12t-30.5 28t-26.5 28t-31.5 12q-20 0 -34 -20t-21 -54l-64 4
q8 42 23.5 73.5t40 48.5t56.5 17q27 0 44.5 -12t30.5 -27.5t26.5 -27.5t31.5 -12q21 0 35 20t21 54l63 -4q-7 -42 -23 -73.5t-40 -49t-57 -17.5z" />
    <glyph glyph-name="uni1EE3" unicode="&#x1ee3;" horiz-adv-x="522" 
d="M431 439l-44 38q44 5 71 33t28 71q1 9 -1.5 22t-6.5 23l72 25q7 -14 9.5 -31.5t2.5 -32.5q0 -40 -17.5 -70.5t-47.5 -50t-66 -27.5zM215 -12q-55 0 -95 24t-62 68.5t-22 105.5q0 70 23 127.5t61 99.5t85.5 65t97.5 23q54 0 94 -24t62 -68.5t22 -105.5q0 -70 -22.5 -127.5
t-61 -99.5t-86 -65t-96.5 -23zM224 64q32 0 61.5 18t52.5 50.5t36.5 75t13.5 91.5q0 61 -24 93.5t-71 32.5q-31 0 -60.5 -18t-52.5 -50.5t-37 -75t-14 -91.5q0 -60 24.5 -93t70.5 -33zM159 -218q-21 0 -38 13t-17 37q0 27 19.5 45.5t45.5 18.5q22 0 38.5 -13.5t16.5 -37.5
q0 -27 -19 -45t-46 -18z" />
    <glyph glyph-name="uni1E57" unicode="&#x1e57;" horiz-adv-x="539" 
d="M-14 -200l138 689h76l-4 -63h4q36 31 77.5 53t84.5 22q65 0 102.5 -46t37.5 -132q0 -70 -21.5 -131t-59 -107t-84.5 -71.5t-98 -25.5q-35 0 -64.5 19t-47.5 48h-2l-17 -102l-29 -153h-93zM235 65q33 0 64 19.5t55.5 53.5t38.5 78.5t14 93.5q0 58 -21.5 86t-59.5 28
q-31 0 -68.5 -19t-68.5 -56l-45 -221q19 -34 42 -48.5t49 -14.5zM353 583q-21 0 -38 13t-17 37q0 27 19.5 45.5t45.5 18.5q22 0 38.5 -13.5t16.5 -37.5q0 -27 -19 -45t-46 -18z" />
    <glyph glyph-name="racute" unicode="&#x155;" horiz-adv-x="353" 
d="M27 0l97 489h76l-10 -94h4q29 45 67.5 75.5t82.5 30.5q15 0 27 -2t21 -7l-32 -81q-8 5 -19.5 6t-24.5 1q-35 0 -71 -29t-67 -87l-59 -302h-92zM185 570l156 169h107l5 -10l-189 -159h-79z" />
    <glyph glyph-name="rcaron" unicode="&#x159;" horiz-adv-x="353" 
d="M27 0l97 489h76l-10 -94h4q29 45 67.5 75.5t82.5 30.5q15 0 27 -2t21 -7l-32 -81q-8 5 -19.5 6t-24.5 1q-35 0 -71 -29t-67 -87l-59 -302h-92zM231 570l-90 176h71l70 -104h4l114 104h79l-160 -176h-88z" />
    <glyph glyph-name="uni1E59" unicode="&#x1e59;" horiz-adv-x="353" 
d="M27 0l97 489h76l-10 -94h4q29 45 67.5 75.5t82.5 30.5q15 0 27 -2t21 -7l-32 -81q-8 5 -19.5 6t-24.5 1q-35 0 -71 -29t-67 -87l-59 -302h-92zM280 583q-21 0 -38 13t-17 37q0 27 19.5 45.5t45.5 18.5q22 0 38.5 -13.5t16.5 -37.5q0 -27 -19 -45t-46 -18z" />
    <glyph glyph-name="uni0157" unicode="&#x157;" horiz-adv-x="353" 
d="M27 0l97 489h76l-10 -94h4q29 45 67.5 75.5t82.5 30.5q15 0 27 -2t21 -7l-32 -81q-8 5 -19.5 6t-24.5 1q-35 0 -71 -29t-67 -87l-59 -302h-92zM-58 -226l-1 45q60 2 87.5 15.5t27.5 34.5q0 16 -14 26t-47 11l26 42q46 -4 70 -13t32.5 -22.5t8.5 -32.5q0 -34 -24 -57
t-67 -35t-99 -14z" />
    <glyph glyph-name="uni1E5B" unicode="&#x1e5b;" horiz-adv-x="353" 
d="M27 0l97 489h76l-10 -94h4q29 45 67.5 75.5t82.5 30.5q15 0 27 -2t21 -7l-32 -81q-8 5 -19.5 6t-24.5 1q-35 0 -71 -29t-67 -87l-59 -302h-92zM39 -218q-21 0 -38 13t-17 37q0 27 19.5 45.5t45.5 18.5q22 0 38.5 -13.5t16.5 -37.5q0 -27 -19 -45t-46 -18z" />
    <glyph glyph-name="uni1E5D" unicode="&#x1e5d;" horiz-adv-x="353" 
d="M27 0l97 489h76l-10 -94h4q29 45 67.5 75.5t82.5 30.5q15 0 27 -2t21 -7l-32 -81q-8 5 -19.5 6t-24.5 1q-35 0 -71 -29t-67 -87l-59 -302h-92zM147 600l11 62h262l-11 -62h-262zM39 -218q-21 0 -38 13t-17 37q0 27 19.5 45.5t45.5 18.5q22 0 38.5 -13.5t16.5 -37.5
q0 -27 -19 -45t-46 -18z" />
    <glyph glyph-name="uni1E5F" unicode="&#x1e5f;" horiz-adv-x="353" 
d="M27 0l97 489h76l-10 -94h4q29 45 67.5 75.5t82.5 30.5q15 0 27 -2t21 -7l-32 -81q-8 5 -19.5 6t-24.5 1q-35 0 -71 -29t-67 -87l-59 -302h-92zM-86 -161l11 62h262l-11 -62h-262z" />
    <glyph glyph-name="sacute" unicode="&#x15b;" horiz-adv-x="407" 
d="M165 -12q-32 0 -64 11t-59.5 31.5t-44.5 49.5l49 43q25 -31 57.5 -48t68.5 -17q25 0 46.5 9.5t34.5 25.5t13 37q0 17 -9 30t-29.5 26.5t-56.5 33.5q-44 26 -73 57.5t-29 75.5q0 43 23 76.5t61.5 52.5t84.5 19q47 0 85 -19t66 -51l-48 -48q-20 21 -46.5 34t-57.5 13
q-35 0 -57.5 -20t-22.5 -47t25 -45t60 -38q38 -21 62.5 -41t36.5 -43.5t12 -53.5q0 -47 -24.5 -81.5t-67 -53.5t-96.5 -19zM182 570l156 169h107l5 -10l-189 -159h-79z" />
    <glyph glyph-name="scircumflex" unicode="&#x15d;" horiz-adv-x="407" 
d="M165 -12q-32 0 -64 11t-59.5 31.5t-44.5 49.5l49 43q25 -31 57.5 -48t68.5 -17q25 0 46.5 9.5t34.5 25.5t13 37q0 17 -9 30t-29.5 26.5t-56.5 33.5q-44 26 -73 57.5t-29 75.5q0 43 23 76.5t61.5 52.5t84.5 19q47 0 85 -19t66 -51l-48 -48q-20 21 -46.5 34t-57.5 13
q-35 0 -57.5 -20t-22.5 -47t25 -45t60 -38q38 -21 62.5 -41t36.5 -43.5t12 -53.5q0 -47 -24.5 -81.5t-67 -53.5t-96.5 -19zM98 570l160 176h88l90 -176h-72l-69 104h-4l-115 -104h-78z" />
    <glyph glyph-name="uni1E61" unicode="&#x1e61;" horiz-adv-x="407" 
d="M165 -12q-32 0 -64 11t-59.5 31.5t-44.5 49.5l49 43q25 -31 57.5 -48t68.5 -17q25 0 46.5 9.5t34.5 25.5t13 37q0 17 -9 30t-29.5 26.5t-56.5 33.5q-44 26 -73 57.5t-29 75.5q0 43 23 76.5t61.5 52.5t84.5 19q47 0 85 -19t66 -51l-48 -48q-20 21 -46.5 34t-57.5 13
q-35 0 -57.5 -20t-22.5 -47t25 -45t60 -38q38 -21 62.5 -41t36.5 -43.5t12 -53.5q0 -47 -24.5 -81.5t-67 -53.5t-96.5 -19zM277 583q-21 0 -38 13t-17 37q0 27 19.5 45.5t45.5 18.5q22 0 38.5 -13.5t16.5 -37.5q0 -27 -19 -45t-46 -18z" />
    <glyph glyph-name="scaron" unicode="&#x161;" horiz-adv-x="407" 
d="M165 -12q-32 0 -64 11t-59.5 31.5t-44.5 49.5l49 43q25 -31 57.5 -48t68.5 -17q25 0 46.5 9.5t34.5 25.5t13 37q0 17 -9 30t-29.5 26.5t-56.5 33.5q-44 26 -73 57.5t-29 75.5q0 43 23 76.5t61.5 52.5t84.5 19q47 0 85 -19t66 -51l-48 -48q-20 21 -46.5 34t-57.5 13
q-35 0 -57.5 -20t-22.5 -47t25 -45t60 -38q38 -21 62.5 -41t36.5 -43.5t12 -53.5q0 -47 -24.5 -81.5t-67 -53.5t-96.5 -19zM228 570l-90 176h71l70 -104h4l114 104h79l-160 -176h-88z" />
    <glyph glyph-name="uni015F" unicode="&#x15f;" horiz-adv-x="407" 
d="M165 -12q-32 0 -64 11t-59.5 31.5t-44.5 49.5l49 43q25 -31 57.5 -48t68.5 -17q25 0 46.5 9.5t34.5 25.5t13 37q0 17 -9 30t-29.5 26.5t-56.5 33.5q-44 26 -73 57.5t-29 75.5q0 43 23 76.5t61.5 52.5t84.5 19q47 0 85 -19t66 -51l-48 -48q-20 21 -46.5 34t-57.5 13
q-35 0 -57.5 -20t-22.5 -47t25 -45t60 -38q38 -21 62.5 -41t36.5 -43.5t12 -53.5q0 -47 -24.5 -81.5t-67 -53.5t-96.5 -19zM36 -230l-1 45q60 2 87.5 15t29.5 36q1 19 -14.5 29t-54.5 14l61 94h62l-41 -67q37 -9 50.5 -24t10.5 -42q-5 -48 -55.5 -72.5t-134.5 -27.5z" />
    <glyph glyph-name="uni0219" unicode="&#x219;" horiz-adv-x="407" 
d="M165 -12q-32 0 -64 11t-59.5 31.5t-44.5 49.5l49 43q25 -31 57.5 -48t68.5 -17q25 0 46.5 9.5t34.5 25.5t13 37q0 17 -9 30t-29.5 26.5t-56.5 33.5q-44 26 -73 57.5t-29 75.5q0 43 23 76.5t61.5 52.5t84.5 19q47 0 85 -19t66 -51l-48 -48q-20 21 -46.5 34t-57.5 13
q-35 0 -57.5 -20t-22.5 -47t25 -45t60 -38q38 -21 62.5 -41t36.5 -43.5t12 -53.5q0 -47 -24.5 -81.5t-67 -53.5t-96.5 -19zM33 -226l-1 45q60 2 87.5 15.5t27.5 34.5q0 16 -14 26t-47 11l26 42q46 -4 70 -13t32.5 -22.5t8.5 -32.5q0 -34 -24 -57t-67 -35t-99 -14z" />
    <glyph glyph-name="uni1E63" unicode="&#x1e63;" horiz-adv-x="407" 
d="M165 -12q-32 0 -64 11t-59.5 31.5t-44.5 49.5l49 43q25 -31 57.5 -48t68.5 -17q25 0 46.5 9.5t34.5 25.5t13 37q0 17 -9 30t-29.5 26.5t-56.5 33.5q-44 26 -73 57.5t-29 75.5q0 43 23 76.5t61.5 52.5t84.5 19q47 0 85 -19t66 -51l-48 -48q-20 21 -46.5 34t-57.5 13
q-35 0 -57.5 -20t-22.5 -47t25 -45t60 -38q38 -21 62.5 -41t36.5 -43.5t12 -53.5q0 -47 -24.5 -81.5t-67 -53.5t-96.5 -19zM130 -218q-21 0 -38 13t-17 37q0 27 19.5 45.5t45.5 18.5q22 0 38.5 -13.5t16.5 -37.5q0 -27 -19 -45t-46 -18z" />
    <glyph glyph-name="uni1E67" unicode="&#x1e67;" horiz-adv-x="407" 
d="M165 -12q-32 0 -64 11t-59.5 31.5t-44.5 49.5l49 43q25 -31 57.5 -48t68.5 -17q25 0 46.5 9.5t34.5 25.5t13 37q0 17 -9 30t-29.5 26.5t-56.5 33.5q-44 26 -73 57.5t-29 75.5q0 43 23 76.5t61.5 52.5t84.5 19q47 0 85 -19t66 -51l-48 -48q-20 21 -46.5 34t-57.5 13
q-35 0 -57.5 -20t-22.5 -47t25 -45t60 -38q38 -21 62.5 -41t36.5 -43.5t12 -53.5q0 -47 -24.5 -81.5t-67 -53.5t-96.5 -19zM230 570l-88 142h66l68 -79h4l104 79h72l-146 -142h-80zM300 722q-18 0 -32.5 11.5t-14.5 32.5q0 27 18.5 44.5t42.5 17.5q18 0 32 -11.5t14 -34.5
q0 -24 -18 -42t-42 -18z" />
    <glyph glyph-name="germandbls" unicode="&#xdf;" horiz-adv-x="569" 
d="M348 -12q-36 0 -72 11.5t-65 37.5l35 58q22 -17 47 -26.5t55 -9.5q24 0 43.5 10t30.5 28t11 42q0 26 -14 45.5t-34 36t-40.5 34t-34 39.5t-13.5 53t14 53.5t34.5 41t41 37.5t34.5 41.5t14 52.5q0 33 -18.5 53.5t-60.5 20.5q-35 0 -62.5 -19.5t-47 -53t-27.5 -74.5
l-100 -500h-92l104 520q11 55 41.5 101t77.5 73t110 27q44 0 81.5 -14.5t60 -45t22.5 -76.5q0 -37 -13.5 -63.5t-34 -47.5t-41.5 -38.5t-34.5 -35.5t-13.5 -39t13.5 -37.5t33 -32.5t39 -35t33 -45t13.5 -62q0 -44 -22.5 -80.5t-61 -58.5t-87.5 -22z" />
    <glyph glyph-name="longs" unicode="&#x17f;" horiz-adv-x="294" 
d="M41 0l112 557q11 51 32.5 87.5t54.5 56.5t77 20q27 0 50 -6.5t42 -18.5l-31 -64q-9 6 -22.5 10.5t-30.5 4.5q-31 0 -51 -22t-28 -65l-113 -560h-92zM61 415l14 69l66 5h46l-15 -74h-111z" />
    <glyph glyph-name="tcaron" unicode="&#x165;" horiz-adv-x="336" 
d="M187 -10q-64 0 -91.5 33.5t-27.5 82.5q0 13 1 26.5t4 27.5l54 255h-72l16 69l75 5l42 153h77l-30 -153h121l-16 -74h-122l-54 -258q-1 -9 -2 -17.5t-1 -18.5q0 -27 13.5 -41.5t42.5 -14.5q15 0 27.5 3.5t22.5 7.5l20 -62q-17 -9 -42.5 -16.5t-57.5 -7.5zM318 548l40 215
h63l-12 -61l-46 -154h-45z" />
    <glyph glyph-name="uni1E6B" unicode="&#x1e6b;" horiz-adv-x="336" 
d="M187 -10q-64 0 -91.5 33.5t-27.5 82.5q0 13 1 26.5t4 27.5l54 255h-72l16 69l75 5l42 153h77l-30 -153h121l-16 -74h-122l-54 -258q-1 -9 -2 -17.5t-1 -18.5q0 -27 13.5 -41.5t42.5 -14.5q15 0 27.5 3.5t22.5 7.5l20 -62q-17 -9 -42.5 -16.5t-57.5 -7.5zM244 718
q-21 0 -38 13t-17 37q0 27 19.5 45.5t45.5 18.5q22 0 38.5 -13.5t16.5 -37.5q0 -27 -19 -45t-46 -18z" />
    <glyph glyph-name="uni0163" unicode="&#x163;" horiz-adv-x="336" 
d="M187 -10q-64 0 -91.5 33.5t-27.5 82.5q0 13 1 26.5t4 27.5l54 255h-72l16 69l75 5l42 153h77l-30 -153h121l-16 -74h-122l-54 -258q-1 -9 -2 -17.5t-1 -18.5q0 -27 13.5 -41.5t42.5 -14.5q15 0 27.5 3.5t22.5 7.5l20 -62q-17 -9 -42.5 -16.5t-57.5 -7.5zM42 -230l-1 45
q60 2 87.5 15t29.5 36q1 19 -14.5 29t-54.5 14l61 94h62l-41 -67q37 -9 50.5 -24t10.5 -42q-5 -48 -55.5 -72.5t-134.5 -27.5z" />
    <glyph glyph-name="uni021B" unicode="&#x21b;" horiz-adv-x="336" 
d="M187 -10q-64 0 -91.5 33.5t-27.5 82.5q0 13 1 26.5t4 27.5l54 255h-72l16 69l75 5l42 153h77l-30 -153h121l-16 -74h-122l-54 -258q-1 -9 -2 -17.5t-1 -18.5q0 -27 13.5 -41.5t42.5 -14.5q15 0 27.5 3.5t22.5 7.5l20 -62q-17 -9 -42.5 -16.5t-57.5 -7.5zM34 -226l-1 45
q60 2 87.5 15.5t27.5 34.5q0 16 -14 26t-47 11l26 42q46 -4 70 -13t32.5 -22.5t8.5 -32.5q0 -34 -24 -57t-67 -35t-99 -14z" />
    <glyph glyph-name="uni1E6D" unicode="&#x1e6d;" horiz-adv-x="336" 
d="M187 -10q-64 0 -91.5 33.5t-27.5 82.5q0 13 1 26.5t4 27.5l54 255h-72l16 69l75 5l42 153h77l-30 -153h121l-16 -74h-122l-54 -258q-1 -9 -2 -17.5t-1 -18.5q0 -27 13.5 -41.5t42.5 -14.5q15 0 27.5 3.5t22.5 7.5l20 -62q-17 -9 -42.5 -16.5t-57.5 -7.5zM131 -218
q-21 0 -38 13t-17 37q0 27 19.5 45.5t45.5 18.5q22 0 38.5 -13.5t16.5 -37.5q0 -27 -19 -45t-46 -18z" />
    </font>
</defs>
</svg>
